G75*
G70*
%OFA0B0*%
%FSLAX24Y24*%
%IPPOS*%
%LPD*%
%AMOC8*
5,1,8,0,0,1.08239X$1,22.5*
%
%ADD10C,0.0004*%
%ADD11C,0.0000*%
%ADD12C,0.1043*%
%ADD13C,0.0650*%
D10*
X001018Y002826D02*
X001020Y002927D01*
X001028Y003029D01*
X001040Y003129D01*
X001058Y003229D01*
X001080Y003328D01*
X001107Y003426D01*
X001139Y003522D01*
X001175Y003617D01*
X001216Y003710D01*
X001262Y003800D01*
X001312Y003889D01*
X001366Y003974D01*
X001425Y004057D01*
X001487Y004137D01*
X001553Y004214D01*
X001623Y004288D01*
X001697Y004358D01*
X001774Y004424D01*
X001854Y004486D01*
X001937Y004545D01*
X002022Y004599D01*
X002111Y004649D01*
X002201Y004695D01*
X002294Y004736D01*
X002389Y004772D01*
X002485Y004804D01*
X002583Y004831D01*
X002682Y004853D01*
X002782Y004871D01*
X002882Y004883D01*
X002984Y004891D01*
X003085Y004893D01*
X003186Y004891D01*
X003288Y004883D01*
X003388Y004871D01*
X003488Y004853D01*
X003587Y004831D01*
X003685Y004804D01*
X003781Y004772D01*
X003876Y004736D01*
X003969Y004695D01*
X004059Y004649D01*
X004148Y004599D01*
X004233Y004545D01*
X004316Y004486D01*
X004396Y004424D01*
X004473Y004358D01*
X004547Y004288D01*
X004617Y004214D01*
X004683Y004137D01*
X004745Y004057D01*
X004804Y003974D01*
X004858Y003889D01*
X004908Y003800D01*
X004954Y003710D01*
X004995Y003617D01*
X005031Y003522D01*
X005063Y003426D01*
X005090Y003328D01*
X005112Y003229D01*
X005130Y003129D01*
X005142Y003029D01*
X005150Y002927D01*
X005152Y002826D01*
X005150Y002725D01*
X005142Y002623D01*
X005130Y002523D01*
X005112Y002423D01*
X005090Y002324D01*
X005063Y002226D01*
X005031Y002130D01*
X004995Y002035D01*
X004954Y001942D01*
X004908Y001852D01*
X004858Y001763D01*
X004804Y001678D01*
X004745Y001595D01*
X004683Y001515D01*
X004617Y001438D01*
X004547Y001364D01*
X004473Y001294D01*
X004396Y001228D01*
X004316Y001166D01*
X004233Y001107D01*
X004148Y001053D01*
X004059Y001003D01*
X003969Y000957D01*
X003876Y000916D01*
X003781Y000880D01*
X003685Y000848D01*
X003587Y000821D01*
X003488Y000799D01*
X003388Y000781D01*
X003288Y000769D01*
X003186Y000761D01*
X003085Y000759D01*
X002984Y000761D01*
X002882Y000769D01*
X002782Y000781D01*
X002682Y000799D01*
X002583Y000821D01*
X002485Y000848D01*
X002389Y000880D01*
X002294Y000916D01*
X002201Y000957D01*
X002111Y001003D01*
X002022Y001053D01*
X001937Y001107D01*
X001854Y001166D01*
X001774Y001228D01*
X001697Y001294D01*
X001623Y001364D01*
X001553Y001438D01*
X001487Y001515D01*
X001425Y001595D01*
X001366Y001678D01*
X001312Y001763D01*
X001262Y001852D01*
X001216Y001942D01*
X001175Y002035D01*
X001139Y002130D01*
X001107Y002226D01*
X001080Y002324D01*
X001058Y002423D01*
X001040Y002523D01*
X001028Y002623D01*
X001020Y002725D01*
X001018Y002826D01*
X003247Y001353D02*
X003247Y000648D01*
X004625Y000648D01*
X004625Y001353D01*
X004613Y001353D01*
X003247Y001353D01*
X003247Y001351D02*
X004625Y001351D01*
X004625Y001349D02*
X003247Y001349D01*
X003247Y001346D02*
X004625Y001346D01*
X004625Y001344D02*
X003247Y001344D01*
X003247Y001341D02*
X004625Y001341D01*
X004625Y001339D02*
X003247Y001339D01*
X003247Y001336D02*
X004625Y001336D01*
X004625Y001334D02*
X003247Y001334D01*
X003247Y001332D02*
X004625Y001332D01*
X004625Y001329D02*
X003247Y001329D01*
X003247Y001327D02*
X004625Y001327D01*
X004625Y001324D02*
X003247Y001324D01*
X003247Y001322D02*
X004625Y001322D01*
X004625Y001319D02*
X003247Y001319D01*
X003247Y001317D02*
X004625Y001317D01*
X004625Y001314D02*
X003247Y001314D01*
X003247Y001312D02*
X004625Y001312D01*
X004625Y001310D02*
X003247Y001310D01*
X003247Y001307D02*
X004625Y001307D01*
X004625Y001305D02*
X003247Y001305D01*
X003247Y001302D02*
X004625Y001302D01*
X004625Y001300D02*
X003247Y001300D01*
X003247Y001297D02*
X004625Y001297D01*
X004625Y001295D02*
X003247Y001295D01*
X003247Y001293D02*
X004625Y001293D01*
X004625Y001290D02*
X003247Y001290D01*
X003247Y001288D02*
X004625Y001288D01*
X004625Y001285D02*
X003247Y001285D01*
X003247Y001283D02*
X004625Y001283D01*
X004625Y001280D02*
X003247Y001280D01*
X003247Y001278D02*
X004625Y001278D01*
X004625Y001275D02*
X003247Y001275D01*
X003247Y001273D02*
X004625Y001273D01*
X004625Y001271D02*
X003247Y001271D01*
X003247Y001268D02*
X004625Y001268D01*
X004625Y001266D02*
X003247Y001266D01*
X003247Y001263D02*
X004625Y001263D01*
X004625Y001261D02*
X003247Y001261D01*
X003247Y001258D02*
X004625Y001258D01*
X004625Y001256D02*
X003247Y001256D01*
X003247Y001254D02*
X004625Y001254D01*
X004625Y001251D02*
X003247Y001251D01*
X003247Y001249D02*
X004625Y001249D01*
X004625Y001246D02*
X003247Y001246D01*
X003247Y001244D02*
X004625Y001244D01*
X004625Y001241D02*
X003247Y001241D01*
X003247Y001239D02*
X004625Y001239D01*
X004625Y001237D02*
X003247Y001237D01*
X003247Y001234D02*
X004625Y001234D01*
X004625Y001232D02*
X003247Y001232D01*
X003247Y001229D02*
X004625Y001229D01*
X004625Y001227D02*
X003247Y001227D01*
X003247Y001224D02*
X004625Y001224D01*
X004625Y001222D02*
X003247Y001222D01*
X003247Y001219D02*
X004625Y001219D01*
X004625Y001217D02*
X003247Y001217D01*
X003247Y001215D02*
X004625Y001215D01*
X004625Y001212D02*
X003247Y001212D01*
X003247Y001210D02*
X004625Y001210D01*
X004625Y001207D02*
X003247Y001207D01*
X003247Y001205D02*
X004625Y001205D01*
X004625Y001202D02*
X003247Y001202D01*
X003247Y001200D02*
X004625Y001200D01*
X004625Y001198D02*
X003247Y001198D01*
X003247Y001195D02*
X004625Y001195D01*
X004625Y001193D02*
X003247Y001193D01*
X003247Y001190D02*
X004625Y001190D01*
X004625Y001188D02*
X003247Y001188D01*
X003247Y001185D02*
X004625Y001185D01*
X004625Y001183D02*
X003247Y001183D01*
X003247Y001180D02*
X004625Y001180D01*
X004625Y001178D02*
X003247Y001178D01*
X003247Y001176D02*
X004625Y001176D01*
X004625Y001173D02*
X003247Y001173D01*
X003247Y001171D02*
X004625Y001171D01*
X004625Y001168D02*
X003247Y001168D01*
X003247Y001166D02*
X004625Y001166D01*
X004625Y001163D02*
X003247Y001163D01*
X003247Y001161D02*
X004625Y001161D01*
X004625Y001159D02*
X003247Y001159D01*
X003247Y001156D02*
X004625Y001156D01*
X004625Y001154D02*
X003247Y001154D01*
X003247Y001151D02*
X004625Y001151D01*
X004625Y001149D02*
X003247Y001149D01*
X003247Y001146D02*
X004625Y001146D01*
X004625Y001144D02*
X003247Y001144D01*
X003247Y001141D02*
X004625Y001141D01*
X004625Y001139D02*
X003247Y001139D01*
X003247Y001137D02*
X004625Y001137D01*
X004625Y001134D02*
X003247Y001134D01*
X003247Y001132D02*
X004625Y001132D01*
X004625Y001129D02*
X003247Y001129D01*
X003247Y001127D02*
X004625Y001127D01*
X004625Y001124D02*
X003247Y001124D01*
X003247Y001122D02*
X004625Y001122D01*
X004625Y001120D02*
X003247Y001120D01*
X003247Y001117D02*
X004625Y001117D01*
X004625Y001115D02*
X003247Y001115D01*
X003247Y001112D02*
X004625Y001112D01*
X004625Y001110D02*
X003247Y001110D01*
X003247Y001107D02*
X004625Y001107D01*
X004625Y001105D02*
X003247Y001105D01*
X003247Y001102D02*
X004625Y001102D01*
X004625Y001100D02*
X003247Y001100D01*
X003247Y001098D02*
X004625Y001098D01*
X004625Y001095D02*
X003247Y001095D01*
X003247Y001093D02*
X004625Y001093D01*
X004625Y001090D02*
X003247Y001090D01*
X003247Y001088D02*
X004625Y001088D01*
X004625Y001085D02*
X003247Y001085D01*
X003247Y001083D02*
X004625Y001083D01*
X004625Y001081D02*
X003247Y001081D01*
X003247Y001078D02*
X004625Y001078D01*
X004625Y001076D02*
X003247Y001076D01*
X003247Y001073D02*
X004625Y001073D01*
X004625Y001071D02*
X003247Y001071D01*
X003247Y001068D02*
X004625Y001068D01*
X004625Y001066D02*
X003247Y001066D01*
X003247Y001063D02*
X004625Y001063D01*
X004625Y001061D02*
X003247Y001061D01*
X003247Y001059D02*
X004625Y001059D01*
X004625Y001056D02*
X003247Y001056D01*
X003247Y001054D02*
X004625Y001054D01*
X004625Y001051D02*
X003247Y001051D01*
X003247Y001049D02*
X004625Y001049D01*
X004625Y001046D02*
X003247Y001046D01*
X003247Y001044D02*
X004625Y001044D01*
X004625Y001042D02*
X003247Y001042D01*
X003247Y001039D02*
X004625Y001039D01*
X004625Y001037D02*
X003247Y001037D01*
X003247Y001034D02*
X004625Y001034D01*
X004625Y001032D02*
X003247Y001032D01*
X003247Y001029D02*
X004625Y001029D01*
X004625Y001027D02*
X003247Y001027D01*
X003247Y001024D02*
X004625Y001024D01*
X004625Y001022D02*
X003247Y001022D01*
X003247Y001020D02*
X004625Y001020D01*
X004625Y001017D02*
X003247Y001017D01*
X003247Y001015D02*
X004625Y001015D01*
X004625Y001012D02*
X003247Y001012D01*
X003247Y001010D02*
X004625Y001010D01*
X004625Y001007D02*
X003247Y001007D01*
X003247Y001005D02*
X004625Y001005D01*
X004625Y001003D02*
X003247Y001003D01*
X003247Y001000D02*
X004625Y001000D01*
X004625Y000998D02*
X003247Y000998D01*
X003247Y000995D02*
X004625Y000995D01*
X004625Y000993D02*
X003247Y000993D01*
X003247Y000990D02*
X004625Y000990D01*
X004625Y000988D02*
X003247Y000988D01*
X003247Y000985D02*
X004625Y000985D01*
X004625Y000983D02*
X003247Y000983D01*
X003247Y000981D02*
X004625Y000981D01*
X004625Y000978D02*
X003247Y000978D01*
X003247Y000976D02*
X004625Y000976D01*
X004625Y000973D02*
X003247Y000973D01*
X003247Y000971D02*
X004625Y000971D01*
X004625Y000968D02*
X003247Y000968D01*
X003247Y000966D02*
X004625Y000966D01*
X004625Y000964D02*
X003247Y000964D01*
X003247Y000961D02*
X004625Y000961D01*
X004625Y000959D02*
X003247Y000959D01*
X003247Y000956D02*
X004625Y000956D01*
X004625Y000954D02*
X003247Y000954D01*
X003247Y000951D02*
X004625Y000951D01*
X004625Y000949D02*
X003247Y000949D01*
X003247Y000946D02*
X004625Y000946D01*
X004625Y000944D02*
X003247Y000944D01*
X003247Y000942D02*
X004625Y000942D01*
X004625Y000939D02*
X003247Y000939D01*
X003247Y000937D02*
X004625Y000937D01*
X004625Y000934D02*
X003247Y000934D01*
X003247Y000932D02*
X004625Y000932D01*
X004625Y000929D02*
X003247Y000929D01*
X003247Y000927D02*
X004625Y000927D01*
X004625Y000925D02*
X003247Y000925D01*
X003247Y000922D02*
X004625Y000922D01*
X004625Y000920D02*
X003247Y000920D01*
X003247Y000917D02*
X004625Y000917D01*
X004625Y000915D02*
X003247Y000915D01*
X003247Y000912D02*
X004625Y000912D01*
X004625Y000910D02*
X003247Y000910D01*
X003247Y000907D02*
X004625Y000907D01*
X004625Y000905D02*
X003247Y000905D01*
X003247Y000903D02*
X004625Y000903D01*
X004625Y000900D02*
X003247Y000900D01*
X003247Y000898D02*
X004625Y000898D01*
X004625Y000895D02*
X003247Y000895D01*
X003247Y000893D02*
X004625Y000893D01*
X004625Y000890D02*
X003247Y000890D01*
X003247Y000888D02*
X004625Y000888D01*
X004625Y000886D02*
X003247Y000886D01*
X003247Y000883D02*
X004625Y000883D01*
X004625Y000881D02*
X003247Y000881D01*
X003247Y000878D02*
X004625Y000878D01*
X004625Y000876D02*
X003247Y000876D01*
X003247Y000873D02*
X004625Y000873D01*
X004625Y000871D02*
X003247Y000871D01*
X003247Y000868D02*
X004625Y000868D01*
X004625Y000866D02*
X003247Y000866D01*
X003247Y000864D02*
X004625Y000864D01*
X004625Y000861D02*
X003247Y000861D01*
X003247Y000859D02*
X004625Y000859D01*
X004625Y000856D02*
X003247Y000856D01*
X003247Y000854D02*
X004625Y000854D01*
X004625Y000851D02*
X003247Y000851D01*
X003247Y000849D02*
X004625Y000849D01*
X004625Y000847D02*
X003247Y000847D01*
X003247Y000844D02*
X004625Y000844D01*
X004625Y000842D02*
X003247Y000842D01*
X003247Y000839D02*
X004625Y000839D01*
X004625Y000837D02*
X003247Y000837D01*
X003247Y000834D02*
X004625Y000834D01*
X004625Y000832D02*
X003247Y000832D01*
X003247Y000829D02*
X004625Y000829D01*
X004625Y000827D02*
X003247Y000827D01*
X003247Y000825D02*
X004625Y000825D01*
X004625Y000822D02*
X003247Y000822D01*
X003247Y000820D02*
X004625Y000820D01*
X004625Y000817D02*
X003247Y000817D01*
X003247Y000815D02*
X004625Y000815D01*
X004625Y000812D02*
X003247Y000812D01*
X003247Y000810D02*
X004625Y000810D01*
X004625Y000808D02*
X003247Y000808D01*
X003247Y000805D02*
X004625Y000805D01*
X004625Y000803D02*
X003247Y000803D01*
X003247Y000800D02*
X004625Y000800D01*
X004625Y000798D02*
X003247Y000798D01*
X003247Y000795D02*
X004625Y000795D01*
X004625Y000793D02*
X003247Y000793D01*
X003247Y000790D02*
X004625Y000790D01*
X004625Y000788D02*
X003247Y000788D01*
X003247Y000786D02*
X004625Y000786D01*
X004625Y000783D02*
X003247Y000783D01*
X003247Y000781D02*
X004625Y000781D01*
X004625Y000778D02*
X003247Y000778D01*
X003247Y000776D02*
X004625Y000776D01*
X004625Y000773D02*
X003247Y000773D01*
X003247Y000771D02*
X004625Y000771D01*
X004625Y000769D02*
X003247Y000769D01*
X003247Y000766D02*
X004625Y000766D01*
X004625Y000764D02*
X003247Y000764D01*
X003247Y000761D02*
X004625Y000761D01*
X004625Y000759D02*
X003247Y000759D01*
X003247Y000756D02*
X004625Y000756D01*
X004625Y000754D02*
X003247Y000754D01*
X003247Y000751D02*
X004625Y000751D01*
X004625Y000749D02*
X003247Y000749D01*
X003247Y000747D02*
X004625Y000747D01*
X004625Y000744D02*
X003247Y000744D01*
X003247Y000742D02*
X004625Y000742D01*
X004625Y000739D02*
X003247Y000739D01*
X003247Y000737D02*
X004625Y000737D01*
X004625Y000734D02*
X003247Y000734D01*
X003247Y000732D02*
X004625Y000732D01*
X004625Y000730D02*
X003247Y000730D01*
X003247Y000727D02*
X004625Y000727D01*
X004625Y000725D02*
X003247Y000725D01*
X003247Y000722D02*
X004625Y000722D01*
X004625Y000720D02*
X003247Y000720D01*
X003247Y000717D02*
X004625Y000717D01*
X004625Y000715D02*
X003247Y000715D01*
X003247Y000712D02*
X004625Y000712D01*
X004625Y000710D02*
X003247Y000710D01*
X003247Y000708D02*
X004625Y000708D01*
X004625Y000705D02*
X003247Y000705D01*
X003247Y000703D02*
X004625Y000703D01*
X004625Y000700D02*
X003247Y000700D01*
X003247Y000698D02*
X004625Y000698D01*
X004625Y000695D02*
X003247Y000695D01*
X003247Y000693D02*
X004625Y000693D01*
X004625Y000691D02*
X003247Y000691D01*
X003247Y000688D02*
X004625Y000688D01*
X004625Y000686D02*
X003247Y000686D01*
X003247Y000683D02*
X004625Y000683D01*
X004625Y000681D02*
X003247Y000681D01*
X003247Y000678D02*
X004625Y000678D01*
X004625Y000676D02*
X003247Y000676D01*
X003247Y000673D02*
X004625Y000673D01*
X004625Y000671D02*
X003247Y000671D01*
X003247Y000669D02*
X004625Y000669D01*
X004625Y000666D02*
X003247Y000666D01*
X003247Y000664D02*
X004625Y000664D01*
X004625Y000661D02*
X003247Y000661D01*
X003247Y000659D02*
X004625Y000659D01*
X004625Y000656D02*
X003247Y000656D01*
X003247Y000654D02*
X004625Y000654D01*
X004625Y000652D02*
X003247Y000652D01*
X003247Y000649D02*
X004625Y000649D01*
X003085Y004598D02*
X003052Y004600D01*
X003019Y004605D01*
X002988Y004615D01*
X002957Y004627D01*
X002928Y004643D01*
X002901Y004662D01*
X002876Y004684D01*
X002854Y004709D01*
X002835Y004736D01*
X002819Y004765D01*
X002807Y004796D01*
X002797Y004827D01*
X002792Y004860D01*
X002790Y004893D01*
X003085Y004598D02*
X003118Y004600D01*
X003151Y004605D01*
X003182Y004615D01*
X003213Y004627D01*
X003242Y004643D01*
X003269Y004662D01*
X003294Y004684D01*
X003316Y004709D01*
X003335Y004736D01*
X003351Y004765D01*
X003363Y004796D01*
X003373Y004827D01*
X003378Y004860D01*
X003380Y004893D01*
D11*
X002593Y002826D02*
X002595Y002870D01*
X002601Y002914D01*
X002611Y002957D01*
X002624Y002999D01*
X002642Y003039D01*
X002663Y003078D01*
X002687Y003115D01*
X002714Y003150D01*
X002745Y003182D01*
X002778Y003211D01*
X002814Y003237D01*
X002852Y003259D01*
X002892Y003278D01*
X002933Y003294D01*
X002976Y003306D01*
X003019Y003314D01*
X003063Y003318D01*
X003107Y003318D01*
X003151Y003314D01*
X003194Y003306D01*
X003237Y003294D01*
X003278Y003278D01*
X003318Y003259D01*
X003356Y003237D01*
X003392Y003211D01*
X003425Y003182D01*
X003456Y003150D01*
X003483Y003115D01*
X003507Y003078D01*
X003528Y003039D01*
X003546Y002999D01*
X003559Y002957D01*
X003569Y002914D01*
X003575Y002870D01*
X003577Y002826D01*
X003575Y002782D01*
X003569Y002738D01*
X003559Y002695D01*
X003546Y002653D01*
X003528Y002613D01*
X003507Y002574D01*
X003483Y002537D01*
X003456Y002502D01*
X003425Y002470D01*
X003392Y002441D01*
X003356Y002415D01*
X003318Y002393D01*
X003278Y002374D01*
X003237Y002358D01*
X003194Y002346D01*
X003151Y002338D01*
X003107Y002334D01*
X003063Y002334D01*
X003019Y002338D01*
X002976Y002346D01*
X002933Y002358D01*
X002892Y002374D01*
X002852Y002393D01*
X002814Y002415D01*
X002778Y002441D01*
X002745Y002470D01*
X002714Y002502D01*
X002687Y002537D01*
X002663Y002574D01*
X002642Y002613D01*
X002624Y002653D01*
X002611Y002695D01*
X002601Y002738D01*
X002595Y002782D01*
X002593Y002826D01*
D12*
X003085Y002826D03*
D13*
X004109Y001802D03*
X003440Y001448D03*
X004542Y002432D03*
X004581Y003141D03*
M02*
