G75*
G70*
%OFA0B0*%
%FSLAX24Y24*%
%IPPOS*%
%LPD*%
%AMOC8*
5,1,8,0,0,1.08239X$1,22.5*
%
%ADD10C,0.0004*%
%ADD11C,0.0000*%
%ADD12R,0.0138X0.0098*%
%ADD13R,0.0098X0.0138*%
%ADD14R,0.0374X0.0335*%
%ADD15R,0.0197X0.0394*%
%ADD16C,0.0079*%
%ADD17R,0.0169X0.0110*%
%ADD18C,0.0787*%
%ADD19C,0.0394*%
%ADD20R,0.0110X0.0169*%
%ADD21R,0.0315X0.0630*%
%ADD22R,0.0100X0.0110*%
%ADD23R,0.0256X0.0157*%
%ADD24C,0.0049*%
%ADD25C,0.0177*%
D10*
X001018Y002826D02*
X001020Y002927D01*
X001028Y003029D01*
X001040Y003129D01*
X001058Y003229D01*
X001080Y003328D01*
X001107Y003426D01*
X001139Y003522D01*
X001175Y003617D01*
X001216Y003710D01*
X001262Y003800D01*
X001312Y003889D01*
X001366Y003974D01*
X001425Y004057D01*
X001487Y004137D01*
X001553Y004214D01*
X001623Y004288D01*
X001697Y004358D01*
X001774Y004424D01*
X001854Y004486D01*
X001937Y004545D01*
X002022Y004599D01*
X002111Y004649D01*
X002201Y004695D01*
X002294Y004736D01*
X002389Y004772D01*
X002485Y004804D01*
X002583Y004831D01*
X002682Y004853D01*
X002782Y004871D01*
X002882Y004883D01*
X002984Y004891D01*
X003085Y004893D01*
X003186Y004891D01*
X003288Y004883D01*
X003388Y004871D01*
X003488Y004853D01*
X003587Y004831D01*
X003685Y004804D01*
X003781Y004772D01*
X003876Y004736D01*
X003969Y004695D01*
X004059Y004649D01*
X004148Y004599D01*
X004233Y004545D01*
X004316Y004486D01*
X004396Y004424D01*
X004473Y004358D01*
X004547Y004288D01*
X004617Y004214D01*
X004683Y004137D01*
X004745Y004057D01*
X004804Y003974D01*
X004858Y003889D01*
X004908Y003800D01*
X004954Y003710D01*
X004995Y003617D01*
X005031Y003522D01*
X005063Y003426D01*
X005090Y003328D01*
X005112Y003229D01*
X005130Y003129D01*
X005142Y003029D01*
X005150Y002927D01*
X005152Y002826D01*
X005150Y002725D01*
X005142Y002623D01*
X005130Y002523D01*
X005112Y002423D01*
X005090Y002324D01*
X005063Y002226D01*
X005031Y002130D01*
X004995Y002035D01*
X004954Y001942D01*
X004908Y001852D01*
X004858Y001763D01*
X004804Y001678D01*
X004745Y001595D01*
X004683Y001515D01*
X004617Y001438D01*
X004547Y001364D01*
X004473Y001294D01*
X004396Y001228D01*
X004316Y001166D01*
X004233Y001107D01*
X004148Y001053D01*
X004059Y001003D01*
X003969Y000957D01*
X003876Y000916D01*
X003781Y000880D01*
X003685Y000848D01*
X003587Y000821D01*
X003488Y000799D01*
X003388Y000781D01*
X003288Y000769D01*
X003186Y000761D01*
X003085Y000759D01*
X002984Y000761D01*
X002882Y000769D01*
X002782Y000781D01*
X002682Y000799D01*
X002583Y000821D01*
X002485Y000848D01*
X002389Y000880D01*
X002294Y000916D01*
X002201Y000957D01*
X002111Y001003D01*
X002022Y001053D01*
X001937Y001107D01*
X001854Y001166D01*
X001774Y001228D01*
X001697Y001294D01*
X001623Y001364D01*
X001553Y001438D01*
X001487Y001515D01*
X001425Y001595D01*
X001366Y001678D01*
X001312Y001763D01*
X001262Y001852D01*
X001216Y001942D01*
X001175Y002035D01*
X001139Y002130D01*
X001107Y002226D01*
X001080Y002324D01*
X001058Y002423D01*
X001040Y002523D01*
X001028Y002623D01*
X001020Y002725D01*
X001018Y002826D01*
X002790Y004893D02*
X002792Y004860D01*
X002797Y004827D01*
X002807Y004796D01*
X002819Y004765D01*
X002835Y004736D01*
X002854Y004709D01*
X002876Y004684D01*
X002901Y004662D01*
X002928Y004643D01*
X002957Y004627D01*
X002988Y004615D01*
X003019Y004605D01*
X003052Y004600D01*
X003085Y004598D01*
X003118Y004600D01*
X003151Y004605D01*
X003182Y004615D01*
X003213Y004627D01*
X003242Y004643D01*
X003269Y004662D01*
X003294Y004684D01*
X003316Y004709D01*
X003335Y004736D01*
X003351Y004765D01*
X003363Y004796D01*
X003373Y004827D01*
X003378Y004860D01*
X003380Y004893D01*
D11*
X002593Y002826D02*
X002595Y002870D01*
X002601Y002914D01*
X002611Y002957D01*
X002624Y002999D01*
X002642Y003039D01*
X002663Y003078D01*
X002687Y003115D01*
X002714Y003150D01*
X002745Y003182D01*
X002778Y003211D01*
X002814Y003237D01*
X002852Y003259D01*
X002892Y003278D01*
X002933Y003294D01*
X002976Y003306D01*
X003019Y003314D01*
X003063Y003318D01*
X003107Y003318D01*
X003151Y003314D01*
X003194Y003306D01*
X003237Y003294D01*
X003278Y003278D01*
X003318Y003259D01*
X003356Y003237D01*
X003392Y003211D01*
X003425Y003182D01*
X003456Y003150D01*
X003483Y003115D01*
X003507Y003078D01*
X003528Y003039D01*
X003546Y002999D01*
X003559Y002957D01*
X003569Y002914D01*
X003575Y002870D01*
X003577Y002826D01*
X003575Y002782D01*
X003569Y002738D01*
X003559Y002695D01*
X003546Y002653D01*
X003528Y002613D01*
X003507Y002574D01*
X003483Y002537D01*
X003456Y002502D01*
X003425Y002470D01*
X003392Y002441D01*
X003356Y002415D01*
X003318Y002393D01*
X003278Y002374D01*
X003237Y002358D01*
X003194Y002346D01*
X003151Y002338D01*
X003107Y002334D01*
X003063Y002334D01*
X003019Y002338D01*
X002976Y002346D01*
X002933Y002358D01*
X002892Y002374D01*
X002852Y002393D01*
X002814Y002415D01*
X002778Y002441D01*
X002745Y002470D01*
X002714Y002502D01*
X002687Y002537D01*
X002663Y002574D01*
X002642Y002613D01*
X002624Y002653D01*
X002611Y002695D01*
X002601Y002738D01*
X002595Y002782D01*
X002593Y002826D01*
D12*
X002613Y003589D03*
X002613Y003786D03*
X001888Y003889D03*
X001699Y003889D03*
X001699Y004085D03*
X001888Y004085D03*
D13*
X004050Y002983D03*
X004247Y002983D03*
X003447Y002105D03*
X003251Y002105D03*
X003022Y001851D03*
X002825Y001851D03*
X002682Y001851D03*
X002485Y001851D03*
X004365Y001881D03*
X004562Y001881D03*
D14*
X004591Y002206D03*
X004591Y002658D03*
X004020Y002658D03*
X004020Y002206D03*
D15*
X002967Y001522D03*
X002534Y001522D03*
D16*
X002258Y002196D03*
X002258Y002353D03*
X002416Y002353D03*
X002416Y002511D03*
X002416Y002668D03*
X002258Y002668D03*
X002258Y002511D03*
X002101Y002511D03*
X002101Y002668D03*
X001944Y002511D03*
X001786Y002511D03*
X001629Y002511D03*
X001629Y002668D03*
X001471Y002668D03*
X001471Y002511D03*
X001314Y002511D03*
X001314Y002668D03*
X001314Y002826D03*
X001471Y002826D03*
X001629Y002826D03*
X001629Y002983D03*
X001629Y003141D03*
X001471Y003141D03*
X001314Y003141D03*
X001314Y002983D03*
X001471Y002983D03*
X001471Y003298D03*
X001314Y003298D03*
X001471Y003456D03*
X001629Y003456D03*
X001629Y003298D03*
X001786Y003298D03*
X001786Y003456D03*
X001944Y003456D03*
X002101Y003456D03*
X002258Y003456D03*
X002416Y003456D03*
X002416Y003298D03*
X002416Y003141D03*
X002416Y002983D03*
X002258Y002983D03*
X002258Y002826D03*
X002416Y002826D03*
X002101Y002826D03*
X001786Y003141D03*
X001786Y002353D03*
X001786Y002196D03*
X001944Y002196D03*
X002101Y002196D03*
X002101Y002353D03*
X001944Y002353D03*
X001629Y002353D03*
X001629Y002196D03*
X001471Y002196D03*
X001471Y002353D03*
X001314Y002353D03*
D17*
X001499Y003686D03*
X001499Y003887D03*
D18*
X003558Y001605D03*
D19*
X004266Y001526D03*
X003089Y000975D03*
X002180Y001810D03*
X004652Y003204D03*
D20*
X002784Y001050D03*
X002583Y001050D03*
D21*
X002569Y004306D03*
X003907Y004306D03*
D22*
X002262Y004097D03*
X002105Y004097D03*
X002105Y003900D03*
X002105Y003704D03*
X002262Y003704D03*
D23*
X004131Y003778D03*
X004131Y003385D03*
X004583Y003581D03*
D24*
X001974Y001633D02*
X001823Y001633D01*
X001870Y001585D02*
X002022Y001585D01*
X002026Y001580D02*
X002126Y001539D01*
X002234Y001539D01*
X002333Y001580D01*
X002362Y001609D01*
X002362Y001295D01*
X002405Y001252D01*
X002663Y001252D01*
X002706Y001295D01*
X002706Y001679D01*
X002745Y001679D01*
X002754Y001681D01*
X002763Y001679D01*
X002795Y001679D01*
X002795Y001295D01*
X002838Y001252D01*
X003096Y001252D01*
X003139Y001295D01*
X003139Y001335D01*
X003179Y001281D01*
X003234Y001226D01*
X003297Y001180D01*
X003367Y001144D01*
X003441Y001120D01*
X003519Y001108D01*
X003533Y001108D01*
X003533Y001581D01*
X003582Y001581D01*
X003582Y001108D01*
X003597Y001108D01*
X003674Y001120D01*
X003748Y001144D01*
X003818Y001180D01*
X003881Y001226D01*
X003937Y001281D01*
X003983Y001345D01*
X004002Y001382D01*
X004033Y001335D01*
X004075Y001293D01*
X004124Y001260D01*
X004158Y001246D01*
X004046Y001161D01*
X003583Y000969D01*
X003360Y000939D01*
X003360Y001029D01*
X003319Y001129D01*
X003242Y001205D01*
X003143Y001246D01*
X003035Y001246D01*
X002936Y001205D01*
X002905Y001174D01*
X002870Y001208D01*
X002698Y001208D01*
X002684Y001194D01*
X002669Y001208D01*
X002550Y001208D01*
X002543Y001215D01*
X002327Y001215D01*
X002000Y001542D01*
X001992Y001550D01*
X001906Y001550D01*
X001625Y001831D01*
X001625Y002053D01*
X001629Y002053D01*
X001647Y002053D01*
X001684Y002063D01*
X001688Y002065D01*
X001688Y002046D01*
X001686Y002044D01*
X001688Y002005D01*
X001688Y001966D01*
X001689Y001965D01*
X001689Y001963D01*
X001691Y001961D01*
X001691Y001876D01*
X001786Y001781D01*
X001909Y001781D01*
X001909Y001756D01*
X001950Y001657D01*
X002026Y001580D01*
X002005Y001537D02*
X002362Y001537D01*
X002362Y001490D02*
X002053Y001490D01*
X002100Y001442D02*
X002362Y001442D01*
X002362Y001394D02*
X002148Y001394D01*
X002196Y001346D02*
X002362Y001346D01*
X002362Y001299D02*
X002243Y001299D01*
X002291Y001251D02*
X003209Y001251D01*
X003244Y001203D02*
X003265Y001203D01*
X003292Y001156D02*
X003345Y001156D01*
X003327Y001108D02*
X003919Y001108D01*
X003850Y001203D02*
X004102Y001203D01*
X004147Y001251D02*
X003907Y001251D01*
X003949Y001299D02*
X004069Y001299D01*
X004025Y001346D02*
X003984Y001346D01*
X004034Y001156D02*
X003770Y001156D01*
X003803Y001060D02*
X003347Y001060D01*
X003360Y001013D02*
X003688Y001013D01*
X003552Y000965D02*
X003360Y000965D01*
X003533Y001156D02*
X003582Y001156D01*
X003582Y001203D02*
X003533Y001203D01*
X003533Y001251D02*
X003582Y001251D01*
X003582Y001299D02*
X003533Y001299D01*
X003533Y001346D02*
X003582Y001346D01*
X003582Y001394D02*
X003533Y001394D01*
X003533Y001442D02*
X003582Y001442D01*
X003582Y001490D02*
X003533Y001490D01*
X003533Y001537D02*
X003582Y001537D01*
X003558Y001605D02*
X004176Y001605D01*
X004255Y001526D01*
X004266Y001526D02*
X004440Y001526D01*
X004569Y001656D01*
X004569Y001873D01*
X004562Y001881D01*
X004714Y001881D01*
X004714Y001935D01*
X004779Y001935D01*
X004750Y001864D01*
X004714Y001818D01*
X004714Y001881D01*
X004562Y001881D01*
X004562Y001881D01*
X004562Y002196D01*
X004591Y002206D01*
X004489Y002206D01*
X004567Y002205D02*
X004281Y002205D01*
X004301Y002181D02*
X004301Y002025D01*
X004301Y002023D01*
X004285Y002023D01*
X004281Y002020D01*
X004281Y002403D01*
X004274Y002411D01*
X004290Y002427D01*
X004304Y002451D01*
X004311Y002477D01*
X004311Y002634D01*
X004045Y002634D01*
X004045Y002683D01*
X004311Y002683D01*
X004311Y002780D01*
X004330Y002760D01*
X004330Y002460D01*
X004338Y002453D01*
X004321Y002436D01*
X004308Y002413D01*
X004301Y002386D01*
X004301Y002230D01*
X004567Y002230D01*
X004567Y002181D01*
X004301Y002181D01*
X004301Y002158D02*
X004281Y002158D01*
X004281Y002110D02*
X004301Y002110D01*
X004301Y002062D02*
X004281Y002062D01*
X004365Y001881D02*
X004117Y001881D01*
X004022Y001975D01*
X004022Y002164D01*
X004020Y002206D01*
X003871Y002206D01*
X003770Y002306D01*
X003766Y002310D01*
X003727Y002349D01*
X003727Y002353D01*
X003727Y003093D01*
X003695Y003125D01*
X003688Y003133D01*
X003388Y003432D01*
X003384Y003436D01*
X003357Y003463D01*
X002672Y003463D01*
X002640Y003432D01*
X002605Y003396D01*
X002506Y003298D01*
X002416Y003298D01*
X002416Y003456D02*
X002416Y003463D01*
X002444Y003491D01*
X002518Y003566D01*
X002613Y003566D01*
X002617Y003574D02*
X002617Y003585D01*
X002613Y003589D01*
X002617Y003574D02*
X002621Y003570D01*
X003506Y003570D01*
X003703Y003373D01*
X003703Y003377D01*
X003699Y003381D02*
X003615Y003465D01*
X003684Y003535D02*
X003656Y003564D01*
X003652Y003564D01*
X003605Y003610D01*
X003547Y003668D01*
X002759Y003668D01*
X002764Y003674D01*
X002778Y003697D01*
X002785Y003723D01*
X002785Y003786D01*
X002613Y003786D01*
X002613Y003786D01*
X002785Y003786D01*
X002785Y003849D01*
X002778Y003875D01*
X003681Y003875D01*
X003663Y003857D02*
X003663Y003723D01*
X003758Y003628D01*
X003893Y003628D01*
X003931Y003666D01*
X003972Y003626D01*
X004289Y003626D01*
X004332Y003669D01*
X004332Y003888D01*
X004313Y003907D01*
X004657Y003907D01*
X004750Y003787D01*
X004942Y003323D01*
X005007Y002826D01*
X004852Y002826D01*
X004852Y002856D02*
X004809Y002899D01*
X004470Y002899D01*
X004370Y002999D01*
X004370Y003083D01*
X004345Y003107D01*
X004345Y003126D01*
X004287Y003184D01*
X004243Y003229D01*
X004239Y003232D01*
X004289Y003232D01*
X004332Y003275D01*
X004332Y003494D01*
X004289Y003537D01*
X003972Y003537D01*
X003929Y003494D01*
X003929Y003483D01*
X003823Y003483D01*
X003771Y003535D01*
X003684Y003535D01*
X003678Y003541D02*
X004381Y003541D01*
X004381Y003494D02*
X004332Y003494D01*
X004332Y003446D02*
X004408Y003446D01*
X004425Y003429D02*
X004485Y003429D01*
X004485Y003419D01*
X004423Y003357D01*
X004381Y003257D01*
X004381Y003150D01*
X004423Y003050D01*
X004499Y002974D01*
X004598Y002933D01*
X004706Y002933D01*
X004805Y002974D01*
X004882Y003050D01*
X004923Y003150D01*
X004923Y003257D01*
X004882Y003357D01*
X004805Y003433D01*
X004763Y003450D01*
X004785Y003472D01*
X004785Y003691D01*
X004742Y003734D01*
X004425Y003734D01*
X004381Y003691D01*
X004381Y003472D01*
X004425Y003429D01*
X004464Y003398D02*
X004332Y003398D01*
X004332Y003350D02*
X004420Y003350D01*
X004400Y003303D02*
X004332Y003303D01*
X004312Y003255D02*
X004381Y003255D01*
X004381Y003207D02*
X004264Y003207D01*
X004243Y003229D02*
X004243Y003229D01*
X004287Y003184D02*
X004287Y003184D01*
X004312Y003160D02*
X004381Y003160D01*
X004397Y003112D02*
X004345Y003112D01*
X004370Y003064D02*
X004417Y003064D01*
X004456Y003016D02*
X004370Y003016D01*
X004400Y002969D02*
X004512Y002969D01*
X004448Y002921D02*
X004995Y002921D01*
X005001Y002873D02*
X004835Y002873D01*
X004852Y002856D02*
X004852Y002460D01*
X004844Y002453D01*
X004861Y002436D01*
X004874Y002413D01*
X004881Y002386D01*
X004881Y002230D01*
X004616Y002230D01*
X004616Y002181D01*
X004881Y002181D01*
X004942Y002328D01*
X004942Y002328D01*
X005007Y002826D01*
X005001Y002778D02*
X004852Y002778D01*
X004852Y002730D02*
X004995Y002730D01*
X004989Y002682D02*
X004852Y002682D01*
X004852Y002635D02*
X004982Y002635D01*
X004976Y002587D02*
X004852Y002587D01*
X004852Y002539D02*
X004970Y002539D01*
X004964Y002492D02*
X004852Y002492D01*
X004853Y002444D02*
X004957Y002444D01*
X004951Y002396D02*
X004879Y002396D01*
X004881Y002348D02*
X004945Y002348D01*
X004931Y002301D02*
X004881Y002301D01*
X004881Y002253D02*
X004911Y002253D01*
X004891Y002205D02*
X004616Y002205D01*
X004329Y002444D02*
X004299Y002444D01*
X004303Y002396D02*
X004281Y002396D01*
X004281Y002348D02*
X004301Y002348D01*
X004301Y002301D02*
X004281Y002301D01*
X004281Y002253D02*
X004301Y002253D01*
X004311Y002492D02*
X004330Y002492D01*
X004330Y002539D02*
X004311Y002539D01*
X004311Y002587D02*
X004330Y002587D01*
X004330Y002635D02*
X004045Y002635D01*
X004020Y002658D02*
X004117Y002522D01*
X004172Y002522D01*
X004045Y002682D02*
X004330Y002682D01*
X004330Y002730D02*
X004311Y002730D01*
X004311Y002778D02*
X004313Y002778D01*
X004247Y002983D02*
X004552Y002678D01*
X004591Y002658D01*
X004793Y002969D02*
X004989Y002969D01*
X004982Y003016D02*
X004848Y003016D01*
X004887Y003064D02*
X004976Y003064D01*
X004970Y003112D02*
X004907Y003112D01*
X004923Y003160D02*
X004964Y003160D01*
X004957Y003207D02*
X004923Y003207D01*
X004923Y003255D02*
X004951Y003255D01*
X004945Y003303D02*
X004904Y003303D01*
X004884Y003350D02*
X004931Y003350D01*
X004911Y003398D02*
X004840Y003398D01*
X004891Y003446D02*
X004774Y003446D01*
X004785Y003494D02*
X004871Y003494D01*
X004852Y003541D02*
X004785Y003541D01*
X004785Y003589D02*
X004832Y003589D01*
X004812Y003637D02*
X004785Y003637D01*
X004785Y003684D02*
X004792Y003684D01*
X004773Y003732D02*
X004744Y003732D01*
X004753Y003780D02*
X004332Y003780D01*
X004332Y003828D02*
X004719Y003828D01*
X004682Y003875D02*
X004332Y003875D01*
X004332Y003732D02*
X004423Y003732D01*
X004381Y003684D02*
X004332Y003684D01*
X004300Y003637D02*
X004381Y003637D01*
X004381Y003589D02*
X003626Y003589D01*
X003579Y003637D02*
X003749Y003637D01*
X003701Y003684D02*
X002771Y003684D01*
X002785Y003732D02*
X003663Y003732D01*
X003663Y003780D02*
X002785Y003780D01*
X002785Y003828D02*
X003663Y003828D01*
X003663Y003857D02*
X003713Y003907D01*
X002756Y003907D01*
X002764Y003899D01*
X002778Y003875D01*
X002613Y003786D02*
X002613Y003786D01*
X002441Y003786D01*
X002441Y003723D01*
X002448Y003697D01*
X002461Y003674D01*
X002470Y003665D01*
X002470Y003657D01*
X002420Y003607D01*
X002403Y003589D01*
X002382Y003569D01*
X002369Y003569D01*
X002358Y003558D01*
X002348Y003568D01*
X002361Y003580D01*
X002361Y003581D01*
X002361Y003581D01*
X002361Y003593D01*
X002386Y003618D01*
X002386Y003789D01*
X002343Y003832D01*
X002229Y003832D01*
X002229Y003939D01*
X002262Y003939D01*
X002262Y004097D01*
X002263Y004097D01*
X002263Y003939D01*
X002317Y003939D01*
X002317Y003922D01*
X002331Y003907D01*
X002470Y003907D01*
X002461Y003899D01*
X002448Y003875D01*
X002229Y003875D01*
X002229Y003923D02*
X002317Y003923D01*
X002263Y003971D02*
X002262Y003971D01*
X002262Y004018D02*
X002263Y004018D01*
X002262Y004066D02*
X002263Y004066D01*
X002105Y004097D02*
X002107Y004124D01*
X002112Y004151D01*
X002121Y004177D01*
X002133Y004202D01*
X002148Y004224D01*
X002166Y004245D01*
X002187Y004263D01*
X002209Y004278D01*
X002234Y004290D01*
X002260Y004299D01*
X002287Y004304D01*
X002314Y004306D01*
X002573Y004306D01*
X002317Y004404D02*
X002231Y004404D01*
X002089Y004322D01*
X002089Y004322D01*
X002033Y004226D01*
X002024Y004226D01*
X002017Y004219D01*
X001997Y004231D01*
X001971Y004238D01*
X001888Y004238D01*
X001806Y004238D01*
X001794Y004235D01*
X001792Y004235D01*
X002124Y004490D01*
X002317Y004570D01*
X002317Y004404D01*
X002317Y004448D02*
X002069Y004448D01*
X002007Y004400D02*
X002224Y004400D01*
X002141Y004352D02*
X001944Y004352D01*
X001882Y004305D02*
X002079Y004305D01*
X002089Y004322D02*
X002089Y004322D01*
X002051Y004257D02*
X001820Y004257D01*
X001888Y004238D02*
X001888Y004085D01*
X001699Y004085D01*
X001703Y004085D01*
X001630Y004085D01*
X001699Y004085D02*
X001703Y004085D01*
X001751Y004085D01*
X001888Y004085D01*
X001888Y004085D01*
X001872Y004085D01*
X001699Y004085D01*
X001699Y004085D01*
X001703Y004085D02*
X001751Y004085D01*
X001888Y004085D02*
X001888Y004085D01*
X001888Y004238D01*
X001888Y004209D02*
X001888Y004209D01*
X001888Y004162D02*
X001888Y004162D01*
X001888Y004114D02*
X001888Y004114D01*
X001888Y003889D02*
X001884Y003861D01*
X001884Y003688D01*
X001790Y003593D01*
X001790Y003491D01*
X001786Y003487D01*
X001786Y003456D01*
X001899Y003342D02*
X001990Y003342D01*
X002022Y003374D01*
X002054Y003342D01*
X002148Y003342D01*
X002159Y003353D01*
X002171Y003341D01*
X002076Y003247D01*
X002076Y003113D01*
X002135Y003054D01*
X002125Y003038D01*
X002116Y003002D01*
X002116Y002983D01*
X002116Y002964D01*
X002123Y002939D01*
X002080Y002939D01*
X002030Y002988D01*
X001896Y002988D01*
X001801Y002893D01*
X001801Y002758D01*
X001896Y002663D01*
X001988Y002663D01*
X001988Y002647D01*
X001962Y002653D01*
X001944Y002653D01*
X001944Y002511D01*
X001943Y002511D01*
X001943Y002653D01*
X001925Y002653D01*
X001888Y002644D01*
X001856Y002625D01*
X001844Y002613D01*
X001833Y002624D01*
X001764Y002624D01*
X001771Y002649D01*
X001771Y002668D01*
X001629Y002668D01*
X001629Y002668D01*
X001771Y002668D01*
X001771Y002687D01*
X001762Y002723D01*
X001743Y002756D01*
X001731Y002768D01*
X001742Y002779D01*
X001742Y002872D01*
X001731Y002883D01*
X001743Y002895D01*
X001762Y002928D01*
X001771Y002964D01*
X001771Y002983D01*
X001629Y002983D01*
X001629Y002983D01*
X001771Y002983D01*
X001771Y003002D01*
X001764Y003027D01*
X001833Y003027D01*
X001899Y003094D01*
X001899Y003187D01*
X001867Y003219D01*
X001899Y003251D01*
X001899Y003342D01*
X001899Y003303D02*
X002132Y003303D01*
X002109Y003306D02*
X002148Y003341D01*
X002258Y003456D01*
X002258Y003476D01*
X002258Y003476D01*
X002258Y003456D01*
X002258Y003456D01*
X002258Y003459D01*
X002388Y003589D01*
X002402Y003589D02*
X002361Y003589D01*
X002403Y003589D02*
X002403Y003589D01*
X002386Y003637D02*
X002450Y003637D01*
X002455Y003684D02*
X002386Y003684D01*
X002386Y003732D02*
X002441Y003732D01*
X002441Y003780D02*
X002386Y003780D01*
X002441Y003786D02*
X002441Y003849D01*
X002448Y003875D01*
X002441Y003828D02*
X002348Y003828D01*
X002441Y003786D02*
X002613Y003786D01*
X002262Y003704D02*
X002262Y003621D01*
X002101Y003456D01*
X002156Y003350D02*
X002162Y003350D01*
X002109Y003306D02*
X002093Y003290D01*
X002084Y003255D02*
X001899Y003255D01*
X001879Y003207D02*
X002076Y003207D01*
X002076Y003160D02*
X001899Y003160D01*
X001899Y003112D02*
X002077Y003112D01*
X002125Y003064D02*
X001870Y003064D01*
X001877Y002969D02*
X001771Y002969D01*
X001767Y003016D02*
X002120Y003016D01*
X002116Y002983D02*
X002258Y002983D01*
X002116Y002983D01*
X002116Y002969D02*
X002050Y002969D01*
X002101Y002826D02*
X001963Y002826D01*
X001801Y002826D02*
X001742Y002826D01*
X001741Y002873D02*
X001801Y002873D01*
X001829Y002921D02*
X001758Y002921D01*
X001741Y002778D02*
X001801Y002778D01*
X001829Y002730D02*
X001758Y002730D01*
X001771Y002682D02*
X001877Y002682D01*
X001873Y002635D02*
X001767Y002635D01*
X001943Y002635D02*
X001944Y002635D01*
X001943Y002587D02*
X001944Y002587D01*
X001943Y002539D02*
X001944Y002539D01*
X001944Y002196D02*
X001944Y002097D01*
X002180Y001861D01*
X001921Y001728D02*
X001727Y001728D01*
X001751Y001751D02*
X001857Y001731D01*
X001853Y001707D01*
X001775Y001680D02*
X001940Y001680D01*
X001909Y001776D02*
X001680Y001776D01*
X001731Y001763D02*
X001751Y001751D01*
X001743Y001824D02*
X001632Y001824D01*
X001625Y001871D02*
X001696Y001871D01*
X001691Y001919D02*
X001625Y001919D01*
X001625Y001967D02*
X001688Y001967D01*
X001687Y002014D02*
X001625Y002014D01*
X001629Y002053D02*
X001629Y002196D01*
X001629Y002053D01*
X001629Y002062D02*
X001629Y002062D01*
X001629Y002110D02*
X001629Y002110D01*
X001629Y002158D02*
X001629Y002158D01*
X001629Y002196D02*
X001629Y002196D01*
X001526Y002137D02*
X001526Y001790D01*
X001865Y001452D01*
X001951Y001452D01*
X001959Y001444D01*
X002286Y001117D01*
X002503Y001117D01*
X002581Y001038D01*
X002573Y001050D02*
X002581Y000999D01*
X002784Y001050D02*
X003006Y001050D01*
X003081Y000975D01*
X003089Y000975D02*
X003089Y001022D01*
X003081Y001030D01*
X002975Y000987D01*
X002935Y001203D02*
X002875Y001203D01*
X002795Y001299D02*
X002706Y001299D01*
X002706Y001346D02*
X002795Y001346D01*
X002795Y001394D02*
X002706Y001394D01*
X002706Y001442D02*
X002795Y001442D01*
X002795Y001490D02*
X002706Y001490D01*
X002706Y001537D02*
X002795Y001537D01*
X002795Y001585D02*
X002706Y001585D01*
X002706Y001633D02*
X002795Y001633D01*
X002757Y001680D02*
X002750Y001680D01*
X002751Y001826D02*
X002751Y001326D01*
X002751Y001243D01*
X002650Y001243D01*
X002674Y001203D02*
X002693Y001203D01*
X002534Y001522D02*
X002485Y001615D01*
X002485Y001851D01*
X002487Y001826D02*
X002475Y001814D01*
X002487Y001826D02*
X002487Y001940D01*
X002534Y001987D01*
X002648Y002101D01*
X002648Y002207D01*
X002636Y002219D01*
X002503Y002353D01*
X002416Y002353D01*
X002396Y002215D02*
X002447Y002168D01*
X002396Y002215D02*
X002258Y002353D01*
X002416Y002511D02*
X002483Y002511D01*
X002487Y002507D01*
X002999Y001995D01*
X003022Y001975D01*
X003022Y001889D01*
X003034Y001877D01*
X003034Y001883D01*
X003022Y001851D01*
X003030Y001887D01*
X003030Y001672D01*
X002967Y001609D01*
X002967Y001522D01*
X003139Y001299D02*
X003166Y001299D01*
X003533Y001630D02*
X003533Y001939D01*
X003537Y001940D01*
X003560Y001954D01*
X003579Y001973D01*
X003582Y001978D01*
X003582Y001630D01*
X003533Y001630D01*
X003533Y001633D02*
X003582Y001633D01*
X003558Y001605D02*
X003558Y001837D01*
X003455Y001940D01*
X003455Y002038D01*
X003447Y002046D01*
X003447Y002105D01*
X003447Y002091D01*
X003447Y002091D01*
X003447Y002105D01*
X003447Y002105D01*
X003447Y002277D01*
X003421Y002277D01*
X003445Y002287D01*
X003623Y002466D01*
X003629Y002478D01*
X003629Y002308D01*
X003668Y002269D01*
X003730Y002207D01*
X003759Y002178D01*
X003759Y002060D01*
X003748Y002066D01*
X003674Y002090D01*
X003600Y002102D01*
X003600Y002105D01*
X003447Y002105D01*
X003447Y002105D01*
X003447Y002277D01*
X003510Y002277D01*
X003537Y002270D01*
X003560Y002257D01*
X003579Y002237D01*
X003593Y002214D01*
X003600Y002188D01*
X003600Y002105D01*
X003447Y002105D01*
X003447Y002105D01*
X003447Y002101D02*
X003455Y002093D01*
X003455Y002038D01*
X003447Y002110D02*
X003447Y002110D01*
X003447Y002158D02*
X003447Y002158D01*
X003447Y002205D02*
X003447Y002205D01*
X003447Y002253D02*
X003447Y002253D01*
X003458Y002301D02*
X003636Y002301D01*
X003629Y002348D02*
X003506Y002348D01*
X003554Y002396D02*
X003629Y002396D01*
X003629Y002444D02*
X003601Y002444D01*
X003564Y002253D02*
X003684Y002253D01*
X003730Y002207D02*
X003730Y002207D01*
X003732Y002205D02*
X003595Y002205D01*
X003600Y002158D02*
X003759Y002158D01*
X003759Y002110D02*
X003600Y002110D01*
X003582Y001967D02*
X003573Y001967D01*
X003582Y001919D02*
X003533Y001919D01*
X003533Y001871D02*
X003582Y001871D01*
X003582Y001824D02*
X003533Y001824D01*
X003533Y001776D02*
X003582Y001776D01*
X003582Y001728D02*
X003533Y001728D01*
X003533Y001680D02*
X003582Y001680D01*
X003755Y002062D02*
X003759Y002062D01*
X003251Y002105D02*
X003168Y002105D01*
X003093Y002180D01*
X002951Y002180D01*
X002542Y002589D01*
X002542Y002593D01*
X002534Y002601D01*
X002534Y002936D01*
X002487Y002983D01*
X002416Y002983D01*
X002483Y002983D01*
X002424Y002983D01*
X002420Y002987D01*
X002416Y003141D02*
X002353Y003141D01*
X002255Y003141D01*
X002239Y003180D01*
X002258Y002983D02*
X002258Y002983D01*
X002046Y003350D02*
X001998Y003350D01*
X001944Y003456D02*
X001944Y003542D01*
X002105Y003704D01*
X002089Y003889D02*
X001888Y003889D01*
X001699Y003889D02*
X001692Y003857D01*
X001692Y003554D01*
X001684Y003546D01*
X001629Y003491D01*
X001629Y003456D01*
X001471Y003298D02*
X001333Y003436D01*
X001333Y003597D01*
X001321Y003597D02*
X001422Y003650D01*
X001422Y003686D01*
X001499Y003686D01*
X001502Y003884D02*
X001502Y003890D01*
X001557Y003890D01*
X001557Y003884D01*
X001502Y003884D01*
X001499Y003887D02*
X001528Y003887D01*
X001546Y003904D01*
X001546Y004008D01*
X001547Y004022D01*
X001551Y004036D01*
X001558Y004048D01*
X001567Y004059D01*
X001567Y004060D02*
X001581Y004071D01*
X001596Y004079D01*
X001613Y004084D01*
X001630Y004086D01*
X002089Y003889D02*
X002101Y003900D01*
X002137Y004496D02*
X002317Y004496D01*
X002317Y004543D02*
X002252Y004543D01*
X003089Y003830D02*
X003105Y003845D01*
X003692Y003385D02*
X003688Y003381D01*
X003692Y003385D02*
X004131Y003385D01*
X004129Y003204D02*
X003955Y003204D01*
X003932Y003180D01*
X003825Y003057D02*
X003864Y003018D01*
X003897Y003018D01*
X003897Y002983D01*
X003897Y002929D01*
X003825Y002929D01*
X003825Y003057D01*
X003825Y003016D02*
X003897Y003016D01*
X003897Y002983D02*
X004050Y002983D01*
X004050Y002707D01*
X003999Y002656D01*
X003995Y002656D01*
X003975Y002637D01*
X003996Y002635D02*
X003825Y002635D01*
X003825Y002634D02*
X003825Y002683D01*
X003996Y002683D01*
X003996Y002634D01*
X003825Y002634D01*
X003825Y002682D02*
X003996Y002682D01*
X003897Y002969D02*
X003825Y002969D01*
X003897Y002983D02*
X004050Y002983D01*
X004050Y002983D01*
X004247Y002983D02*
X004247Y003085D01*
X004144Y003188D01*
X004129Y003204D01*
X003929Y003494D02*
X003812Y003494D01*
X003902Y003637D02*
X003961Y003637D01*
X003825Y003790D02*
X004119Y003790D01*
X004131Y003778D01*
X004583Y003581D02*
X004583Y003272D01*
X004652Y003204D01*
X004714Y001919D02*
X004773Y001919D01*
X004753Y001871D02*
X004714Y001871D01*
X004714Y001824D02*
X004719Y001824D01*
X004632Y001710D02*
X004556Y001611D01*
X004555Y001614D01*
X004532Y001669D01*
X004506Y001708D01*
X004562Y001708D01*
X004624Y001708D01*
X004632Y001710D01*
X004609Y001680D02*
X004524Y001680D01*
X004562Y001708D02*
X004562Y001881D01*
X004562Y001708D01*
X004562Y001728D02*
X004562Y001728D01*
X004562Y001776D02*
X004562Y001776D01*
X004562Y001824D02*
X004562Y001824D01*
X004562Y001871D02*
X004562Y001871D01*
X004562Y001881D02*
X004562Y001881D01*
X004547Y001633D02*
X004572Y001633D01*
X004509Y001551D02*
X004291Y001551D01*
X004291Y001502D01*
X004472Y001502D01*
X004509Y001551D01*
X004499Y001537D02*
X004291Y001537D01*
X002825Y001851D02*
X002682Y001851D01*
X002825Y001851D01*
X002825Y001851D01*
X002682Y001851D01*
X002682Y001851D01*
X002749Y001828D01*
X002751Y001826D01*
X002362Y001585D02*
X002338Y001585D01*
X001853Y001944D02*
X001786Y002007D01*
X001786Y002196D01*
X001688Y002062D02*
X001682Y002062D01*
X001526Y002137D02*
X001471Y002192D01*
X001471Y002196D01*
X001447Y002330D02*
X001463Y002341D01*
X001467Y002345D01*
X001463Y002341D01*
X001471Y002341D02*
X001471Y002353D01*
X001447Y002330D02*
X001329Y002211D01*
X001294Y002176D01*
X001160Y002904D02*
X001160Y003247D01*
X001211Y003298D01*
X001314Y003298D01*
D25*
X001321Y003597D03*
X001991Y004298D03*
X002857Y003841D03*
X003042Y003841D03*
X003227Y003841D03*
X003825Y003790D03*
X003703Y003373D03*
X003932Y003180D03*
X004321Y003581D03*
X003975Y002637D03*
X002447Y002168D03*
X001853Y001944D03*
X001853Y001707D03*
X002266Y001456D03*
X003081Y001030D03*
X001294Y002176D03*
X001963Y002826D03*
X002239Y003180D03*
X001160Y002904D03*
M02*
