G75*
G70*
%OFA0B0*%
%FSLAX24Y24*%
%IPPOS*%
%LPD*%
%AMOC8*
5,1,8,0,0,1.08239X$1,22.5*
%
%ADD10C,0.0004*%
D10*
X003064Y009370D02*
X003066Y009449D01*
X003072Y009527D01*
X003082Y009605D01*
X003096Y009683D01*
X003114Y009760D01*
X003135Y009836D01*
X003161Y009910D01*
X003190Y009983D01*
X003223Y010055D01*
X003259Y010125D01*
X003299Y010193D01*
X003343Y010258D01*
X003389Y010322D01*
X003439Y010383D01*
X003492Y010441D01*
X003548Y010497D01*
X003606Y010550D01*
X003667Y010600D01*
X003731Y010646D01*
X003796Y010690D01*
X003864Y010730D01*
X003934Y010766D01*
X004006Y010799D01*
X004079Y010828D01*
X004153Y010854D01*
X004229Y010875D01*
X004306Y010893D01*
X004384Y010907D01*
X004462Y010917D01*
X004540Y010923D01*
X004619Y010925D01*
X004698Y010923D01*
X004776Y010917D01*
X004854Y010907D01*
X004932Y010893D01*
X005009Y010875D01*
X005085Y010854D01*
X005159Y010828D01*
X005232Y010799D01*
X005304Y010766D01*
X005374Y010730D01*
X005442Y010690D01*
X005507Y010646D01*
X005571Y010600D01*
X005632Y010550D01*
X005690Y010497D01*
X005746Y010441D01*
X005799Y010383D01*
X005849Y010322D01*
X005895Y010258D01*
X005939Y010193D01*
X005979Y010125D01*
X006015Y010055D01*
X006048Y009983D01*
X006077Y009910D01*
X006103Y009836D01*
X006124Y009760D01*
X006142Y009683D01*
X006156Y009605D01*
X006166Y009527D01*
X006172Y009449D01*
X006174Y009370D01*
X006172Y009291D01*
X006166Y009213D01*
X006156Y009135D01*
X006142Y009057D01*
X006124Y008980D01*
X006103Y008904D01*
X006077Y008830D01*
X006048Y008757D01*
X006015Y008685D01*
X005979Y008615D01*
X005939Y008547D01*
X005895Y008482D01*
X005849Y008418D01*
X005799Y008357D01*
X005746Y008299D01*
X005690Y008243D01*
X005632Y008190D01*
X005571Y008140D01*
X005507Y008094D01*
X005442Y008050D01*
X005374Y008010D01*
X005304Y007974D01*
X005232Y007941D01*
X005159Y007912D01*
X005085Y007886D01*
X005009Y007865D01*
X004932Y007847D01*
X004854Y007833D01*
X004776Y007823D01*
X004698Y007817D01*
X004619Y007815D01*
X004540Y007817D01*
X004462Y007823D01*
X004384Y007833D01*
X004306Y007847D01*
X004229Y007865D01*
X004153Y007886D01*
X004079Y007912D01*
X004006Y007941D01*
X003934Y007974D01*
X003864Y008010D01*
X003796Y008050D01*
X003731Y008094D01*
X003667Y008140D01*
X003606Y008190D01*
X003548Y008243D01*
X003492Y008299D01*
X003439Y008357D01*
X003389Y008418D01*
X003343Y008482D01*
X003299Y008547D01*
X003259Y008615D01*
X003223Y008685D01*
X003190Y008757D01*
X003161Y008830D01*
X003135Y008904D01*
X003114Y008980D01*
X003096Y009057D01*
X003082Y009135D01*
X003072Y009213D01*
X003066Y009291D01*
X003064Y009370D01*
X005721Y010492D02*
X005697Y010469D01*
X005677Y010443D01*
X005660Y010416D01*
X005646Y010386D01*
X005636Y010355D01*
X005630Y010323D01*
X005627Y010290D01*
X005628Y010258D01*
X005634Y010225D01*
X005642Y010194D01*
X005655Y010164D01*
X005671Y010135D01*
X005690Y010109D01*
X005713Y010085D01*
X005738Y010064D01*
X005765Y010046D01*
X005794Y010031D01*
X005825Y010020D01*
X005857Y010013D01*
X005889Y010009D01*
X005922Y010010D01*
X005955Y010014D01*
X005986Y010022D01*
X006017Y010034D01*
X006046Y010049D01*
M02*
