G75*
G70*
%OFA0B0*%
%FSLAX24Y24*%
%IPPOS*%
%LPD*%
%AMOC8*
5,1,8,0,0,1.08239X$1,22.5*
%
%ADD10C,0.0004*%
%ADD11C,0.0394*%
%ADD12R,0.0110X0.0169*%
%ADD13C,0.0079*%
%ADD14R,0.0098X0.0138*%
%ADD15R,0.0138X0.0098*%
%ADD16R,0.0354X0.0276*%
%ADD17R,0.0205X0.0264*%
%ADD18R,0.0169X0.0110*%
%ADD19C,0.0591*%
%ADD20C,0.0049*%
%ADD21C,0.0177*%
%ADD22C,0.0047*%
D10*
X003064Y009370D02*
X003066Y009449D01*
X003072Y009527D01*
X003082Y009605D01*
X003096Y009683D01*
X003114Y009760D01*
X003135Y009836D01*
X003161Y009910D01*
X003190Y009983D01*
X003223Y010055D01*
X003259Y010125D01*
X003299Y010193D01*
X003343Y010258D01*
X003389Y010322D01*
X003439Y010383D01*
X003492Y010441D01*
X003548Y010497D01*
X003606Y010550D01*
X003667Y010600D01*
X003731Y010646D01*
X003796Y010690D01*
X003864Y010730D01*
X003934Y010766D01*
X004006Y010799D01*
X004079Y010828D01*
X004153Y010854D01*
X004229Y010875D01*
X004306Y010893D01*
X004384Y010907D01*
X004462Y010917D01*
X004540Y010923D01*
X004619Y010925D01*
X004698Y010923D01*
X004776Y010917D01*
X004854Y010907D01*
X004932Y010893D01*
X005009Y010875D01*
X005085Y010854D01*
X005159Y010828D01*
X005232Y010799D01*
X005304Y010766D01*
X005374Y010730D01*
X005442Y010690D01*
X005507Y010646D01*
X005571Y010600D01*
X005632Y010550D01*
X005690Y010497D01*
X005746Y010441D01*
X005799Y010383D01*
X005849Y010322D01*
X005895Y010258D01*
X005939Y010193D01*
X005979Y010125D01*
X006015Y010055D01*
X006048Y009983D01*
X006077Y009910D01*
X006103Y009836D01*
X006124Y009760D01*
X006142Y009683D01*
X006156Y009605D01*
X006166Y009527D01*
X006172Y009449D01*
X006174Y009370D01*
X006172Y009291D01*
X006166Y009213D01*
X006156Y009135D01*
X006142Y009057D01*
X006124Y008980D01*
X006103Y008904D01*
X006077Y008830D01*
X006048Y008757D01*
X006015Y008685D01*
X005979Y008615D01*
X005939Y008547D01*
X005895Y008482D01*
X005849Y008418D01*
X005799Y008357D01*
X005746Y008299D01*
X005690Y008243D01*
X005632Y008190D01*
X005571Y008140D01*
X005507Y008094D01*
X005442Y008050D01*
X005374Y008010D01*
X005304Y007974D01*
X005232Y007941D01*
X005159Y007912D01*
X005085Y007886D01*
X005009Y007865D01*
X004932Y007847D01*
X004854Y007833D01*
X004776Y007823D01*
X004698Y007817D01*
X004619Y007815D01*
X004540Y007817D01*
X004462Y007823D01*
X004384Y007833D01*
X004306Y007847D01*
X004229Y007865D01*
X004153Y007886D01*
X004079Y007912D01*
X004006Y007941D01*
X003934Y007974D01*
X003864Y008010D01*
X003796Y008050D01*
X003731Y008094D01*
X003667Y008140D01*
X003606Y008190D01*
X003548Y008243D01*
X003492Y008299D01*
X003439Y008357D01*
X003389Y008418D01*
X003343Y008482D01*
X003299Y008547D01*
X003259Y008615D01*
X003223Y008685D01*
X003190Y008757D01*
X003161Y008830D01*
X003135Y008904D01*
X003114Y008980D01*
X003096Y009057D01*
X003082Y009135D01*
X003072Y009213D01*
X003066Y009291D01*
X003064Y009370D01*
X005721Y010492D02*
X005697Y010469D01*
X005677Y010443D01*
X005660Y010416D01*
X005646Y010386D01*
X005636Y010355D01*
X005630Y010323D01*
X005627Y010290D01*
X005628Y010258D01*
X005634Y010225D01*
X005642Y010194D01*
X005655Y010164D01*
X005671Y010135D01*
X005690Y010109D01*
X005713Y010085D01*
X005738Y010064D01*
X005765Y010046D01*
X005794Y010031D01*
X005825Y010020D01*
X005857Y010013D01*
X005889Y010009D01*
X005922Y010010D01*
X005955Y010014D01*
X005986Y010022D01*
X006017Y010034D01*
X006046Y010049D01*
D11*
X005762Y009667D03*
X004796Y010600D03*
X004323Y010590D03*
X003997Y008307D03*
D12*
X003920Y008645D03*
X003719Y008645D03*
D13*
X003721Y008877D03*
X003879Y008877D03*
X004036Y008877D03*
X004194Y008877D03*
X004351Y008877D03*
X004351Y009035D03*
X004351Y009192D03*
X004194Y009192D03*
X004194Y009035D03*
X004036Y009035D03*
X003879Y009035D03*
X003721Y009035D03*
X003721Y009192D03*
X003721Y009350D03*
X003721Y009507D03*
X003879Y009507D03*
X004036Y009507D03*
X004194Y009507D03*
X004351Y009507D03*
X004351Y009350D03*
X004194Y009350D03*
X004508Y009350D03*
X004508Y009507D03*
X004508Y009665D03*
X004508Y009822D03*
X004351Y009665D03*
X004194Y009665D03*
X004036Y009665D03*
X004036Y009822D03*
X003879Y009822D03*
X003879Y009665D03*
X003721Y009665D03*
X003721Y009822D03*
X003564Y009822D03*
X003564Y009665D03*
X003406Y009665D03*
X003406Y009822D03*
X003406Y009507D03*
X003406Y009350D03*
X003406Y009192D03*
X003406Y009035D03*
X003406Y008877D03*
X003564Y008877D03*
X003564Y009035D03*
X003564Y009192D03*
X003564Y009350D03*
X003564Y009507D03*
X004508Y009192D03*
X004508Y009035D03*
X004508Y008877D03*
D14*
X004552Y008653D03*
X004355Y008653D03*
X005129Y009649D03*
X005325Y009649D03*
X004882Y009704D03*
X004686Y009704D03*
X004127Y010068D03*
X003930Y010068D03*
X003910Y010334D03*
X004127Y010334D03*
X005117Y010543D03*
X005314Y010543D03*
D15*
X004335Y010234D03*
X004335Y010037D03*
X004729Y008866D03*
X004729Y008669D03*
D16*
X005158Y008649D03*
X005566Y008653D03*
X005566Y009165D03*
X005158Y009161D03*
D17*
X005093Y009911D03*
X005377Y009911D03*
X005377Y010293D03*
X005093Y010293D03*
D18*
X005879Y009372D03*
X005879Y009171D03*
D19*
X004737Y008238D03*
D20*
X005054Y008038D02*
X005106Y008164D01*
X005106Y008311D01*
X005066Y008408D01*
X005133Y008408D01*
X005133Y008625D01*
X004901Y008625D01*
X004901Y008669D01*
X004901Y008674D01*
X005133Y008674D01*
X005133Y008625D01*
X005183Y008625D01*
X005285Y008625D01*
X005285Y008628D01*
X005541Y008628D01*
X005590Y008628D01*
X005590Y008412D01*
X005633Y008412D01*
X005498Y008267D01*
X005134Y008057D01*
X005054Y008038D01*
X005062Y008058D02*
X005137Y008058D01*
X005082Y008106D02*
X005220Y008106D01*
X005302Y008154D02*
X005102Y008154D01*
X005106Y008202D02*
X005385Y008202D01*
X005468Y008249D02*
X005106Y008249D01*
X005106Y008297D02*
X005526Y008297D01*
X005570Y008345D02*
X005092Y008345D01*
X005072Y008392D02*
X005615Y008392D01*
X005590Y008440D02*
X005541Y008440D01*
X005541Y008412D02*
X005541Y008628D01*
X005541Y008678D01*
X005541Y008894D01*
X005375Y008894D01*
X005354Y008889D01*
X005349Y008890D01*
X005183Y008890D01*
X005183Y008674D01*
X005439Y008674D01*
X005439Y008678D01*
X005541Y008678D01*
X005590Y008678D01*
X005590Y008894D01*
X005667Y008894D01*
X005667Y008953D01*
X005370Y008953D01*
X005366Y008949D01*
X005062Y008949D01*
X005062Y008915D01*
X005036Y008890D01*
X005133Y008890D01*
X005133Y008674D01*
X005183Y008674D01*
X005183Y008625D01*
X005183Y008408D01*
X005349Y008408D01*
X005369Y008413D01*
X005375Y008412D01*
X005541Y008412D01*
X005541Y008488D02*
X005590Y008488D01*
X005590Y008536D02*
X005541Y008536D01*
X005541Y008583D02*
X005590Y008583D01*
X005541Y008631D02*
X005183Y008631D01*
X005158Y008649D02*
X005493Y008649D01*
X005566Y008653D01*
X005377Y008464D01*
X005377Y008307D01*
X005183Y008440D02*
X005133Y008440D01*
X005133Y008488D02*
X005183Y008488D01*
X005183Y008536D02*
X005133Y008536D01*
X005133Y008583D02*
X005183Y008583D01*
X005133Y008631D02*
X004901Y008631D01*
X004901Y008669D02*
X004729Y008669D01*
X004901Y008669D01*
X005060Y008669D02*
X005158Y008649D01*
X005133Y008679D02*
X005183Y008679D01*
X005183Y008726D02*
X005133Y008726D01*
X005133Y008774D02*
X005183Y008774D01*
X005183Y008822D02*
X005133Y008822D01*
X005133Y008870D02*
X005183Y008870D01*
X005062Y008917D02*
X005667Y008917D01*
X005590Y008870D02*
X005541Y008870D01*
X005541Y008822D02*
X005590Y008822D01*
X005590Y008774D02*
X005541Y008774D01*
X005541Y008726D02*
X005590Y008726D01*
X005590Y008679D02*
X005541Y008679D01*
X005829Y008907D02*
X005879Y008956D01*
X005879Y009171D01*
X005879Y009173D01*
X005879Y009171D01*
X005879Y009372D02*
X005879Y009665D01*
X005770Y009665D01*
X005770Y009655D01*
X005790Y009635D01*
X005770Y009665D02*
X005603Y009498D01*
X004914Y009498D01*
X004609Y009192D01*
X004508Y009192D01*
X004508Y009035D02*
X004727Y009035D01*
X004816Y009124D01*
X004865Y009173D01*
X004865Y009301D01*
X004953Y009389D01*
X005416Y009389D01*
X005465Y009340D01*
X005465Y009202D01*
X005505Y009163D01*
X005506Y009165D01*
X005566Y009165D01*
X005497Y009220D01*
X005158Y009161D02*
X005079Y009135D01*
X005150Y009163D01*
X005131Y009153D01*
X005101Y009173D01*
X005158Y009161D02*
X004963Y009045D01*
X004963Y008956D01*
X004873Y008866D01*
X004729Y008866D01*
X004717Y008877D01*
X004508Y008877D01*
X004355Y008874D02*
X004355Y008653D01*
X004195Y008513D02*
X004276Y008433D01*
X004552Y008433D01*
X004776Y008208D01*
X004776Y008218D01*
X004737Y008238D01*
X004747Y008651D02*
X004729Y008669D01*
X004729Y008669D01*
X005060Y008669D01*
X004729Y008669D02*
X004568Y008669D01*
X004552Y008653D01*
X004355Y008874D02*
X004351Y008877D01*
X004117Y008750D02*
X004117Y008592D01*
X004195Y008513D01*
X003997Y008568D02*
X003920Y008645D01*
X003879Y008687D01*
X003879Y008877D01*
X004036Y008877D02*
X004036Y008830D01*
X004117Y008750D01*
X003997Y008568D02*
X003997Y008307D01*
X004068Y008307D02*
X004107Y008287D01*
X004068Y008287D01*
X004069Y008295D01*
X003674Y008415D02*
X003497Y008612D01*
X003497Y008777D01*
X003406Y008877D01*
X003359Y008740D02*
X003290Y008740D01*
X003290Y008750D02*
X003290Y009960D01*
X003398Y009960D01*
X003556Y010039D02*
X003564Y010066D01*
X003564Y009822D01*
X003721Y009822D02*
X003721Y009870D01*
X003723Y009980D01*
X003723Y010236D01*
X003694Y010236D01*
X003910Y010334D02*
X003910Y010088D01*
X003930Y010068D01*
X003949Y010068D01*
X003959Y010059D01*
X003949Y010059D01*
X003940Y010068D01*
X003930Y010078D01*
X003940Y010078D01*
X003940Y010088D01*
X003930Y010068D01*
X003959Y010068D01*
X003959Y010059D01*
X003959Y010000D01*
X004036Y009923D01*
X004036Y009822D01*
X004146Y009773D02*
X004038Y009665D01*
X004036Y009665D01*
X004080Y009665D01*
X004080Y009665D01*
X004036Y009665D01*
X004036Y009665D01*
X003879Y009507D01*
X003879Y009365D01*
X003897Y009365D01*
X003934Y009374D01*
X003966Y009393D01*
X003978Y009405D01*
X003989Y009394D01*
X004058Y009394D01*
X004051Y009369D01*
X004051Y009350D01*
X004193Y009350D01*
X004193Y009350D01*
X004051Y009350D01*
X004051Y009331D01*
X004061Y009295D01*
X004074Y009271D01*
X004061Y009248D01*
X004051Y009211D01*
X004051Y009192D01*
X004051Y009174D01*
X004058Y009148D01*
X003989Y009148D01*
X003957Y009116D01*
X003925Y009148D01*
X003857Y009148D01*
X003864Y009174D01*
X003864Y009192D01*
X003721Y009192D01*
X003721Y009192D01*
X003821Y009192D01*
X003881Y009252D01*
X003881Y009311D01*
X003920Y009350D01*
X004194Y009350D01*
X004194Y009192D01*
X004164Y009222D01*
X004097Y009222D01*
X004058Y009232D01*
X004063Y009251D02*
X003852Y009251D01*
X003854Y009248D02*
X003835Y009280D01*
X003823Y009292D01*
X003834Y009303D01*
X003834Y009372D01*
X003860Y009365D01*
X003879Y009365D01*
X003879Y009507D01*
X003879Y009507D01*
X003881Y009505D01*
X003881Y009311D01*
X003830Y009299D02*
X004059Y009299D01*
X004051Y009347D02*
X003834Y009347D01*
X003879Y009394D02*
X003879Y009394D01*
X003879Y009442D02*
X003879Y009442D01*
X003879Y009490D02*
X003879Y009490D01*
X003967Y009394D02*
X003989Y009394D01*
X004193Y009350D02*
X004194Y009350D01*
X004194Y009192D01*
X004193Y009192D02*
X004051Y009192D01*
X004193Y009192D01*
X004193Y009192D01*
X004193Y009335D01*
X004193Y009350D01*
X004193Y009347D02*
X004194Y009347D01*
X004193Y009299D02*
X004194Y009299D01*
X004193Y009251D02*
X004194Y009251D01*
X004193Y009204D02*
X004194Y009204D01*
X004194Y009192D02*
X004193Y009192D01*
X004056Y009156D02*
X003859Y009156D01*
X003864Y009192D02*
X003864Y009211D01*
X003854Y009248D01*
X003864Y009204D02*
X004051Y009204D01*
X003864Y009192D02*
X003721Y009192D01*
X003721Y008877D02*
X003719Y008876D01*
X003719Y008645D01*
X004508Y009507D02*
X004668Y009507D01*
X004678Y009498D01*
X004686Y009704D02*
X004548Y009704D01*
X004508Y009665D01*
X004508Y009822D02*
X004530Y009822D01*
X004806Y010098D01*
X004944Y010098D01*
X004887Y010000D02*
X004887Y009936D01*
X005068Y009936D01*
X005068Y009886D01*
X004887Y009886D01*
X004887Y009877D01*
X004882Y009877D01*
X004820Y009877D01*
X004793Y009869D01*
X004770Y009856D01*
X004761Y009847D01*
X004694Y009847D01*
X004846Y010000D01*
X004887Y010000D01*
X004887Y009967D02*
X004814Y009967D01*
X004766Y009919D02*
X005068Y009919D01*
X005093Y009911D02*
X004865Y009911D01*
X004882Y009877D02*
X004882Y009704D01*
X004884Y009704D01*
X004944Y009645D01*
X005111Y009645D01*
X005121Y009655D01*
X005129Y009649D02*
X005129Y009876D01*
X005093Y009911D01*
X005239Y010098D02*
X005377Y009960D01*
X005377Y009911D01*
X005377Y009901D01*
X005325Y009850D01*
X005325Y009649D01*
X004919Y009704D02*
X004882Y009704D01*
X004882Y009704D01*
X004882Y009704D01*
X004882Y009877D01*
X004882Y009871D02*
X004882Y009871D01*
X004882Y009824D02*
X004882Y009824D01*
X004882Y009776D02*
X004882Y009776D01*
X004882Y009728D02*
X004882Y009728D01*
X004882Y009704D02*
X004919Y009704D01*
X004919Y009704D01*
X004801Y009871D02*
X004718Y009871D01*
X004492Y010110D02*
X004478Y010110D01*
X004478Y010112D02*
X004478Y010096D01*
X004697Y010316D01*
X004654Y010334D01*
X004605Y010367D01*
X004563Y010409D01*
X004547Y010431D01*
X004477Y010361D01*
X004474Y010359D01*
X004487Y010346D01*
X004500Y010323D01*
X004507Y010297D01*
X004507Y010234D01*
X004335Y010234D01*
X004335Y010234D01*
X004249Y010234D01*
X004249Y010234D01*
X004335Y010234D01*
X004292Y010234D01*
X004127Y010068D01*
X004193Y010068D01*
X004193Y010068D01*
X004127Y010068D01*
X004127Y010068D01*
X004136Y010068D01*
X004146Y010059D01*
X004146Y009773D01*
X004215Y009694D02*
X004245Y009724D01*
X004245Y009911D01*
X004294Y009960D01*
X004294Y009990D01*
X004323Y010019D01*
X004335Y010031D01*
X004335Y010037D01*
X004478Y010112D02*
X004487Y010121D01*
X004500Y010145D01*
X004507Y010171D01*
X004507Y010234D01*
X004335Y010234D01*
X004430Y010234D01*
X004796Y010600D01*
X004845Y010649D01*
X004806Y010610D01*
X004820Y010625D02*
X004994Y010625D01*
X004994Y010575D01*
X004820Y010575D01*
X004820Y010374D01*
X004771Y010374D01*
X004771Y010575D01*
X004820Y010575D01*
X004820Y010625D01*
X004771Y010625D01*
X004771Y010765D01*
X004820Y010754D01*
X004820Y010625D01*
X004820Y010635D02*
X004771Y010635D01*
X004771Y010625D02*
X004594Y010625D01*
X004594Y010575D01*
X004771Y010575D01*
X004771Y010625D01*
X004771Y010587D02*
X004594Y010587D01*
X004771Y010539D02*
X004820Y010539D01*
X004820Y010492D02*
X004771Y010492D01*
X004771Y010444D02*
X004820Y010444D01*
X004820Y010396D02*
X004771Y010396D01*
X004796Y010275D02*
X005075Y010275D01*
X005093Y010293D01*
X005093Y010509D01*
X005117Y010543D01*
X004994Y010587D02*
X004820Y010587D01*
X004820Y010683D02*
X004771Y010683D01*
X004771Y010730D02*
X004820Y010730D01*
X004575Y010396D02*
X004512Y010396D01*
X004485Y010349D02*
X004632Y010349D01*
X004682Y010301D02*
X004506Y010301D01*
X004507Y010253D02*
X004635Y010253D01*
X004587Y010205D02*
X004507Y010205D01*
X004504Y010158D02*
X004539Y010158D01*
X004335Y010234D02*
X004335Y010234D01*
X004127Y010334D02*
X004127Y010393D01*
X004323Y010590D01*
X004304Y010610D01*
X004323Y010590D01*
X004796Y010275D02*
X004351Y009830D01*
X004351Y009665D01*
X004215Y009694D02*
X004194Y009673D01*
X004194Y009665D01*
X003940Y010059D02*
X003940Y010068D01*
X003940Y010059D01*
X005269Y010268D02*
X005269Y010317D01*
X005352Y010317D01*
X005352Y010268D01*
X005401Y010268D01*
X005401Y010117D01*
X005359Y010117D01*
X005352Y010124D01*
X005352Y010268D01*
X005269Y010268D01*
X005269Y010301D02*
X005352Y010301D01*
X005377Y010293D02*
X005379Y010293D01*
X005386Y010295D01*
X005377Y010293D02*
X005377Y010470D01*
X005314Y010543D01*
X005401Y010317D02*
X005474Y010317D01*
X005481Y010268D01*
X005401Y010268D01*
X005401Y010317D01*
X005401Y010301D02*
X005477Y010301D01*
X005401Y010253D02*
X005352Y010253D01*
X005352Y010205D02*
X005401Y010205D01*
X005401Y010158D02*
X005352Y010158D01*
X005762Y009667D02*
X005764Y009665D01*
X005770Y009665D01*
X005879Y009478D02*
X005879Y009372D01*
D21*
X005829Y008907D03*
X005377Y008307D03*
X005150Y009163D03*
X004678Y009498D03*
X004865Y009911D03*
X005386Y010295D03*
X004806Y010610D03*
X003694Y010236D03*
X003556Y010039D03*
X004058Y009232D03*
X003674Y008415D03*
X004068Y008307D03*
D22*
X004944Y010098D02*
X005239Y010098D01*
M02*
