G75*
%MOIN*%
%OFA0B0*%
%FSLAX24Y24*%
%IPPOS*%
%LPD*%
%AMOC8*
5,1,8,0,0,1.08239X$1,22.5*
%
%ADD10C,0.0004*%
%ADD11C,0.0000*%
%ADD12C,0.1043*%
%ADD13C,0.0650*%
%ADD14C,0.0236*%
D10*
X003301Y001793D02*
X004679Y001793D01*
X004679Y002498D01*
X004667Y002498D01*
X003301Y002498D01*
X003301Y001793D01*
X003301Y001794D02*
X004679Y001794D01*
X004679Y001796D02*
X003301Y001796D01*
X003301Y001798D02*
X004679Y001798D01*
X004679Y001801D02*
X003301Y001801D01*
X003301Y001803D02*
X004679Y001803D01*
X004679Y001806D02*
X003301Y001806D01*
X003301Y001808D02*
X004679Y001808D01*
X004679Y001811D02*
X003301Y001811D01*
X003301Y001813D02*
X004679Y001813D01*
X004679Y001816D02*
X003301Y001816D01*
X003301Y001818D02*
X004679Y001818D01*
X004679Y001820D02*
X003301Y001820D01*
X003301Y001823D02*
X004679Y001823D01*
X004679Y001825D02*
X003301Y001825D01*
X003301Y001828D02*
X004679Y001828D01*
X004679Y001830D02*
X003301Y001830D01*
X003301Y001833D02*
X004679Y001833D01*
X004679Y001835D02*
X003301Y001835D01*
X003301Y001837D02*
X004679Y001837D01*
X004679Y001840D02*
X003301Y001840D01*
X003301Y001842D02*
X004679Y001842D01*
X004679Y001845D02*
X003301Y001845D01*
X003301Y001847D02*
X004679Y001847D01*
X004679Y001850D02*
X003301Y001850D01*
X003301Y001852D02*
X004679Y001852D01*
X004679Y001855D02*
X003301Y001855D01*
X003301Y001857D02*
X004679Y001857D01*
X004679Y001859D02*
X003301Y001859D01*
X003301Y001862D02*
X004679Y001862D01*
X004679Y001864D02*
X003301Y001864D01*
X003301Y001867D02*
X004679Y001867D01*
X004679Y001869D02*
X003301Y001869D01*
X003301Y001872D02*
X004679Y001872D01*
X004679Y001874D02*
X003301Y001874D01*
X003301Y001876D02*
X004679Y001876D01*
X004679Y001879D02*
X003301Y001879D01*
X003301Y001881D02*
X004679Y001881D01*
X004679Y001884D02*
X003301Y001884D01*
X003301Y001886D02*
X004679Y001886D01*
X004679Y001889D02*
X003301Y001889D01*
X003301Y001891D02*
X004679Y001891D01*
X004679Y001894D02*
X003301Y001894D01*
X003301Y001896D02*
X004679Y001896D01*
X004679Y001898D02*
X003301Y001898D01*
X003301Y001901D02*
X004679Y001901D01*
X004679Y001903D02*
X003301Y001903D01*
X003301Y001906D02*
X004679Y001906D01*
X004679Y001908D02*
X003301Y001908D01*
X003301Y001911D02*
X004679Y001911D01*
X004679Y001913D02*
X003301Y001913D01*
X003301Y001915D02*
X004679Y001915D01*
X004679Y001918D02*
X003301Y001918D01*
X003301Y001920D02*
X004679Y001920D01*
X004679Y001923D02*
X003301Y001923D01*
X003301Y001925D02*
X004679Y001925D01*
X004679Y001928D02*
X003301Y001928D01*
X003301Y001930D02*
X004679Y001930D01*
X004679Y001933D02*
X003301Y001933D01*
X003301Y001935D02*
X004679Y001935D01*
X004679Y001937D02*
X003301Y001937D01*
X003301Y001940D02*
X004679Y001940D01*
X004679Y001942D02*
X003301Y001942D01*
X003301Y001945D02*
X004679Y001945D01*
X004679Y001947D02*
X003301Y001947D01*
X003301Y001950D02*
X004679Y001950D01*
X004679Y001952D02*
X003301Y001952D01*
X003301Y001954D02*
X004679Y001954D01*
X004679Y001957D02*
X003301Y001957D01*
X003301Y001959D02*
X004679Y001959D01*
X004679Y001962D02*
X003301Y001962D01*
X003301Y001964D02*
X004679Y001964D01*
X004679Y001967D02*
X003301Y001967D01*
X003301Y001969D02*
X004679Y001969D01*
X004679Y001972D02*
X003301Y001972D01*
X003301Y001974D02*
X004679Y001974D01*
X004679Y001976D02*
X003301Y001976D01*
X003301Y001979D02*
X004679Y001979D01*
X004679Y001981D02*
X003301Y001981D01*
X003301Y001984D02*
X004679Y001984D01*
X004679Y001986D02*
X003301Y001986D01*
X003301Y001989D02*
X004679Y001989D01*
X004679Y001991D02*
X003301Y001991D01*
X003301Y001993D02*
X004679Y001993D01*
X004679Y001996D02*
X003301Y001996D01*
X003301Y001998D02*
X004679Y001998D01*
X004679Y002001D02*
X003301Y002001D01*
X003301Y002003D02*
X004679Y002003D01*
X004679Y002006D02*
X003301Y002006D01*
X003301Y002008D02*
X004679Y002008D01*
X004679Y002010D02*
X003301Y002010D01*
X003301Y002013D02*
X004679Y002013D01*
X004679Y002015D02*
X003301Y002015D01*
X003301Y002018D02*
X004679Y002018D01*
X004679Y002020D02*
X003301Y002020D01*
X003301Y002023D02*
X004679Y002023D01*
X004679Y002025D02*
X003301Y002025D01*
X003301Y002028D02*
X004679Y002028D01*
X004679Y002030D02*
X003301Y002030D01*
X003301Y002032D02*
X004679Y002032D01*
X004679Y002035D02*
X003301Y002035D01*
X003301Y002037D02*
X004679Y002037D01*
X004679Y002040D02*
X003301Y002040D01*
X003301Y002042D02*
X004679Y002042D01*
X004679Y002045D02*
X003301Y002045D01*
X003301Y002047D02*
X004679Y002047D01*
X004679Y002049D02*
X003301Y002049D01*
X003301Y002052D02*
X004679Y002052D01*
X004679Y002054D02*
X003301Y002054D01*
X003301Y002057D02*
X004679Y002057D01*
X004679Y002059D02*
X003301Y002059D01*
X003301Y002062D02*
X004679Y002062D01*
X004679Y002064D02*
X003301Y002064D01*
X003301Y002067D02*
X004679Y002067D01*
X004679Y002069D02*
X003301Y002069D01*
X003301Y002071D02*
X004679Y002071D01*
X004679Y002074D02*
X003301Y002074D01*
X003301Y002076D02*
X004679Y002076D01*
X004679Y002079D02*
X003301Y002079D01*
X003301Y002081D02*
X004679Y002081D01*
X004679Y002084D02*
X003301Y002084D01*
X003301Y002086D02*
X004679Y002086D01*
X004679Y002088D02*
X003301Y002088D01*
X003301Y002091D02*
X004679Y002091D01*
X004679Y002093D02*
X003301Y002093D01*
X003301Y002096D02*
X004679Y002096D01*
X004679Y002098D02*
X003301Y002098D01*
X003301Y002101D02*
X004679Y002101D01*
X004679Y002103D02*
X003301Y002103D01*
X003301Y002106D02*
X004679Y002106D01*
X004679Y002108D02*
X003301Y002108D01*
X003301Y002110D02*
X004679Y002110D01*
X004679Y002113D02*
X003301Y002113D01*
X003301Y002115D02*
X004679Y002115D01*
X004679Y002118D02*
X003301Y002118D01*
X003301Y002120D02*
X004679Y002120D01*
X004679Y002123D02*
X003301Y002123D01*
X003301Y002125D02*
X004679Y002125D01*
X004679Y002127D02*
X003301Y002127D01*
X003301Y002130D02*
X004679Y002130D01*
X004679Y002132D02*
X003301Y002132D01*
X003301Y002135D02*
X004679Y002135D01*
X004679Y002137D02*
X003301Y002137D01*
X003301Y002140D02*
X004679Y002140D01*
X004679Y002142D02*
X003301Y002142D01*
X003301Y002145D02*
X004679Y002145D01*
X004679Y002147D02*
X003301Y002147D01*
X003301Y002149D02*
X004679Y002149D01*
X004679Y002152D02*
X003301Y002152D01*
X003301Y002154D02*
X004679Y002154D01*
X004679Y002157D02*
X003301Y002157D01*
X003301Y002159D02*
X004679Y002159D01*
X004679Y002162D02*
X003301Y002162D01*
X003301Y002164D02*
X004679Y002164D01*
X004679Y002166D02*
X003301Y002166D01*
X003301Y002169D02*
X004679Y002169D01*
X004679Y002171D02*
X003301Y002171D01*
X003301Y002174D02*
X004679Y002174D01*
X004679Y002176D02*
X003301Y002176D01*
X003301Y002179D02*
X004679Y002179D01*
X004679Y002181D02*
X003301Y002181D01*
X003301Y002184D02*
X004679Y002184D01*
X004679Y002186D02*
X003301Y002186D01*
X003301Y002188D02*
X004679Y002188D01*
X004679Y002191D02*
X003301Y002191D01*
X003301Y002193D02*
X004679Y002193D01*
X004679Y002196D02*
X003301Y002196D01*
X003301Y002198D02*
X004679Y002198D01*
X004679Y002201D02*
X003301Y002201D01*
X003301Y002203D02*
X004679Y002203D01*
X004679Y002205D02*
X003301Y002205D01*
X003301Y002208D02*
X004679Y002208D01*
X004679Y002210D02*
X003301Y002210D01*
X003301Y002213D02*
X004679Y002213D01*
X004679Y002215D02*
X003301Y002215D01*
X003301Y002218D02*
X004679Y002218D01*
X004679Y002220D02*
X003301Y002220D01*
X003301Y002223D02*
X004679Y002223D01*
X004679Y002225D02*
X003301Y002225D01*
X003301Y002227D02*
X004679Y002227D01*
X004679Y002230D02*
X003301Y002230D01*
X003301Y002232D02*
X004679Y002232D01*
X004679Y002235D02*
X003301Y002235D01*
X003301Y002237D02*
X004679Y002237D01*
X004679Y002240D02*
X003301Y002240D01*
X003301Y002242D02*
X004679Y002242D01*
X004679Y002244D02*
X003301Y002244D01*
X003301Y002247D02*
X004679Y002247D01*
X004679Y002249D02*
X003301Y002249D01*
X003301Y002252D02*
X004679Y002252D01*
X004679Y002254D02*
X003301Y002254D01*
X003301Y002257D02*
X004679Y002257D01*
X004679Y002259D02*
X003301Y002259D01*
X003301Y002262D02*
X004679Y002262D01*
X004679Y002264D02*
X003301Y002264D01*
X003301Y002266D02*
X004679Y002266D01*
X004679Y002269D02*
X003301Y002269D01*
X003301Y002271D02*
X004679Y002271D01*
X004679Y002274D02*
X003301Y002274D01*
X003301Y002276D02*
X004679Y002276D01*
X004679Y002279D02*
X003301Y002279D01*
X003301Y002281D02*
X004679Y002281D01*
X004679Y002283D02*
X003301Y002283D01*
X003301Y002286D02*
X004679Y002286D01*
X004679Y002288D02*
X003301Y002288D01*
X003301Y002291D02*
X004679Y002291D01*
X004679Y002293D02*
X003301Y002293D01*
X003301Y002296D02*
X004679Y002296D01*
X004679Y002298D02*
X003301Y002298D01*
X003301Y002301D02*
X004679Y002301D01*
X004679Y002303D02*
X003301Y002303D01*
X003301Y002305D02*
X004679Y002305D01*
X004679Y002308D02*
X003301Y002308D01*
X003301Y002310D02*
X004679Y002310D01*
X004679Y002313D02*
X003301Y002313D01*
X003301Y002315D02*
X004679Y002315D01*
X004679Y002318D02*
X003301Y002318D01*
X003301Y002320D02*
X004679Y002320D01*
X004679Y002322D02*
X003301Y002322D01*
X003301Y002325D02*
X004679Y002325D01*
X004679Y002327D02*
X003301Y002327D01*
X003301Y002330D02*
X004679Y002330D01*
X004679Y002332D02*
X003301Y002332D01*
X003301Y002335D02*
X004679Y002335D01*
X004679Y002337D02*
X003301Y002337D01*
X003301Y002340D02*
X004679Y002340D01*
X004679Y002342D02*
X003301Y002342D01*
X003301Y002344D02*
X004679Y002344D01*
X004679Y002347D02*
X003301Y002347D01*
X003301Y002349D02*
X004679Y002349D01*
X004679Y002352D02*
X003301Y002352D01*
X003301Y002354D02*
X004679Y002354D01*
X004679Y002357D02*
X003301Y002357D01*
X003301Y002359D02*
X004679Y002359D01*
X004679Y002361D02*
X003301Y002361D01*
X003301Y002364D02*
X004679Y002364D01*
X004679Y002366D02*
X003301Y002366D01*
X003301Y002369D02*
X004679Y002369D01*
X004679Y002371D02*
X003301Y002371D01*
X003301Y002374D02*
X004679Y002374D01*
X004679Y002376D02*
X003301Y002376D01*
X003301Y002379D02*
X004679Y002379D01*
X004679Y002381D02*
X003301Y002381D01*
X003301Y002383D02*
X004679Y002383D01*
X004679Y002386D02*
X003301Y002386D01*
X003301Y002388D02*
X004679Y002388D01*
X004679Y002391D02*
X003301Y002391D01*
X003301Y002393D02*
X004679Y002393D01*
X004679Y002396D02*
X003301Y002396D01*
X003301Y002398D02*
X004679Y002398D01*
X004679Y002400D02*
X003301Y002400D01*
X003301Y002403D02*
X004679Y002403D01*
X004679Y002405D02*
X003301Y002405D01*
X003301Y002408D02*
X004679Y002408D01*
X004679Y002410D02*
X003301Y002410D01*
X003301Y002413D02*
X004679Y002413D01*
X004679Y002415D02*
X003301Y002415D01*
X003301Y002418D02*
X004679Y002418D01*
X004679Y002420D02*
X003301Y002420D01*
X003301Y002422D02*
X004679Y002422D01*
X004679Y002425D02*
X003301Y002425D01*
X003301Y002427D02*
X004679Y002427D01*
X004679Y002430D02*
X003301Y002430D01*
X003301Y002432D02*
X004679Y002432D01*
X004679Y002435D02*
X003301Y002435D01*
X003301Y002437D02*
X004679Y002437D01*
X004679Y002439D02*
X003301Y002439D01*
X003301Y002442D02*
X004679Y002442D01*
X004679Y002444D02*
X003301Y002444D01*
X003301Y002447D02*
X004679Y002447D01*
X004679Y002449D02*
X003301Y002449D01*
X003301Y002452D02*
X004679Y002452D01*
X004679Y002454D02*
X003301Y002454D01*
X003301Y002457D02*
X004679Y002457D01*
X004679Y002459D02*
X003301Y002459D01*
X003301Y002461D02*
X004679Y002461D01*
X004679Y002464D02*
X003301Y002464D01*
X003301Y002466D02*
X004679Y002466D01*
X004679Y002469D02*
X003301Y002469D01*
X003301Y002471D02*
X004679Y002471D01*
X004679Y002474D02*
X003301Y002474D01*
X003301Y002476D02*
X004679Y002476D01*
X004679Y002478D02*
X003301Y002478D01*
X003301Y002481D02*
X004679Y002481D01*
X004679Y002483D02*
X003301Y002483D01*
X003301Y002486D02*
X004679Y002486D01*
X004679Y002488D02*
X003301Y002488D01*
X003301Y002491D02*
X004679Y002491D01*
X004679Y002493D02*
X003301Y002493D01*
X003301Y002496D02*
X004679Y002496D01*
X001073Y003970D02*
X001075Y004061D01*
X001081Y004151D01*
X001091Y004242D01*
X001105Y004331D01*
X001123Y004420D01*
X001144Y004509D01*
X001170Y004596D01*
X001199Y004682D01*
X001233Y004766D01*
X001269Y004849D01*
X001310Y004931D01*
X001354Y005010D01*
X001401Y005088D01*
X001452Y005163D01*
X001506Y005236D01*
X001563Y005306D01*
X001623Y005374D01*
X001686Y005440D01*
X001752Y005502D01*
X001821Y005561D01*
X001892Y005618D01*
X001966Y005671D01*
X002042Y005721D01*
X002120Y005768D01*
X002200Y005811D01*
X002281Y005850D01*
X002365Y005886D01*
X002450Y005918D01*
X002536Y005947D01*
X002623Y005971D01*
X002712Y005992D01*
X002801Y006009D01*
X002891Y006022D01*
X002981Y006031D01*
X003072Y006036D01*
X003163Y006037D01*
X003253Y006034D01*
X003344Y006027D01*
X003434Y006016D01*
X003524Y006001D01*
X003613Y005982D01*
X003701Y005960D01*
X003787Y005933D01*
X003873Y005903D01*
X003957Y005869D01*
X004040Y005831D01*
X004121Y005790D01*
X004200Y005745D01*
X004277Y005696D01*
X004351Y005645D01*
X004424Y005590D01*
X004494Y005532D01*
X004561Y005471D01*
X004625Y005407D01*
X004687Y005341D01*
X004746Y005271D01*
X004801Y005200D01*
X004854Y005125D01*
X004903Y005049D01*
X004949Y004971D01*
X004991Y004890D01*
X005030Y004808D01*
X005065Y004724D01*
X005096Y004639D01*
X005123Y004552D01*
X005147Y004465D01*
X005167Y004376D01*
X005183Y004287D01*
X005195Y004197D01*
X005203Y004106D01*
X005207Y004015D01*
X005207Y003925D01*
X005203Y003834D01*
X005195Y003743D01*
X005183Y003653D01*
X005167Y003564D01*
X005147Y003475D01*
X005123Y003388D01*
X005096Y003301D01*
X005065Y003216D01*
X005030Y003132D01*
X004991Y003050D01*
X004949Y002969D01*
X004903Y002891D01*
X004854Y002815D01*
X004801Y002740D01*
X004746Y002669D01*
X004687Y002599D01*
X004625Y002533D01*
X004561Y002469D01*
X004494Y002408D01*
X004424Y002350D01*
X004351Y002295D01*
X004277Y002244D01*
X004200Y002195D01*
X004121Y002150D01*
X004040Y002109D01*
X003957Y002071D01*
X003873Y002037D01*
X003787Y002007D01*
X003701Y001980D01*
X003613Y001958D01*
X003524Y001939D01*
X003434Y001924D01*
X003344Y001913D01*
X003253Y001906D01*
X003163Y001903D01*
X003072Y001904D01*
X002981Y001909D01*
X002891Y001918D01*
X002801Y001931D01*
X002712Y001948D01*
X002623Y001969D01*
X002536Y001993D01*
X002450Y002022D01*
X002365Y002054D01*
X002281Y002090D01*
X002200Y002129D01*
X002120Y002172D01*
X002042Y002219D01*
X001966Y002269D01*
X001892Y002322D01*
X001821Y002379D01*
X001752Y002438D01*
X001686Y002500D01*
X001623Y002566D01*
X001563Y002634D01*
X001506Y002704D01*
X001452Y002777D01*
X001401Y002852D01*
X001354Y002930D01*
X001310Y003009D01*
X001269Y003091D01*
X001233Y003174D01*
X001199Y003258D01*
X001170Y003344D01*
X001144Y003431D01*
X001123Y003520D01*
X001105Y003609D01*
X001091Y003698D01*
X001081Y003789D01*
X001075Y003879D01*
X001073Y003970D01*
X002845Y006037D02*
X002847Y006004D01*
X002852Y005971D01*
X002862Y005940D01*
X002874Y005909D01*
X002890Y005880D01*
X002909Y005853D01*
X002931Y005828D01*
X002956Y005806D01*
X002983Y005787D01*
X003012Y005771D01*
X003043Y005759D01*
X003074Y005749D01*
X003107Y005744D01*
X003140Y005742D01*
X003173Y005744D01*
X003206Y005749D01*
X003237Y005759D01*
X003268Y005771D01*
X003297Y005787D01*
X003324Y005806D01*
X003349Y005828D01*
X003371Y005853D01*
X003390Y005880D01*
X003406Y005909D01*
X003418Y005940D01*
X003428Y005971D01*
X003433Y006004D01*
X003435Y006037D01*
D11*
X002648Y003970D02*
X002650Y004014D01*
X002656Y004058D01*
X002666Y004101D01*
X002679Y004143D01*
X002697Y004183D01*
X002718Y004222D01*
X002742Y004259D01*
X002769Y004294D01*
X002800Y004326D01*
X002833Y004355D01*
X002869Y004381D01*
X002907Y004403D01*
X002947Y004422D01*
X002988Y004438D01*
X003031Y004450D01*
X003074Y004458D01*
X003118Y004462D01*
X003162Y004462D01*
X003206Y004458D01*
X003249Y004450D01*
X003292Y004438D01*
X003333Y004422D01*
X003373Y004403D01*
X003411Y004381D01*
X003447Y004355D01*
X003480Y004326D01*
X003511Y004294D01*
X003538Y004259D01*
X003562Y004222D01*
X003583Y004183D01*
X003601Y004143D01*
X003614Y004101D01*
X003624Y004058D01*
X003630Y004014D01*
X003632Y003970D01*
X003630Y003926D01*
X003624Y003882D01*
X003614Y003839D01*
X003601Y003797D01*
X003583Y003757D01*
X003562Y003718D01*
X003538Y003681D01*
X003511Y003646D01*
X003480Y003614D01*
X003447Y003585D01*
X003411Y003559D01*
X003373Y003537D01*
X003333Y003518D01*
X003292Y003502D01*
X003249Y003490D01*
X003206Y003482D01*
X003162Y003478D01*
X003118Y003478D01*
X003074Y003482D01*
X003031Y003490D01*
X002988Y003502D01*
X002947Y003518D01*
X002907Y003537D01*
X002869Y003559D01*
X002833Y003585D01*
X002800Y003614D01*
X002769Y003646D01*
X002742Y003681D01*
X002718Y003718D01*
X002697Y003757D01*
X002679Y003797D01*
X002666Y003839D01*
X002656Y003882D01*
X002650Y003926D01*
X002648Y003970D01*
D12*
X003140Y003970D03*
D13*
X004163Y002946D03*
X004596Y003576D03*
X004636Y004285D03*
X003494Y002592D03*
D14*
X002053Y002592D03*
X002061Y003104D03*
X002061Y003423D03*
X001844Y004033D03*
X001399Y003360D03*
X002537Y002746D03*
X003703Y002986D03*
X004088Y003525D03*
X004230Y004072D03*
X004033Y004588D03*
X004077Y004946D03*
X004273Y004946D03*
X004470Y004946D03*
X004667Y004946D03*
X003880Y004946D03*
X003683Y004946D03*
X003486Y004946D03*
X003289Y004946D03*
X003092Y004946D03*
X002896Y004946D03*
X002699Y004946D03*
X002502Y004946D03*
X002226Y005458D03*
X002226Y005655D03*
X001750Y005187D03*
X001577Y004974D03*
X002596Y004423D03*
X003966Y002340D03*
M02*
