%
M48
M72
T01C0.0079
T02C0.0984
%
T01
X2053Y2592
X2061Y3104
X2061Y3423
X1844Y4033
X1399Y3360
X2537Y2746
X3703Y2986
X4088Y3525
X4230Y4072
X4033Y4588
X4077Y4946
X4273Y4946
X4470Y4946
X4667Y4946
X3880Y4946
X3683Y4946
X3486Y4946
X3289Y4946
X3092Y4946
X2896Y4946
X2699Y4946
X2502Y4946
X2226Y5458
X2226Y5655
X1750Y5187
X1577Y4974
X2596Y4423
X3966Y2340
T02
X3140Y3970
M30
