G75*
G70*
%OFA0B0*%
%FSLAX24Y24*%
%IPPOS*%
%LPD*%
%AMOC8*
5,1,8,0,0,1.08239X$1,22.5*
%
%ADD10C,0.0004*%
%ADD11C,0.0591*%
%ADD12C,0.0049*%
%ADD13C,0.0177*%
D10*
X003064Y009370D02*
X003066Y009449D01*
X003072Y009527D01*
X003082Y009605D01*
X003096Y009683D01*
X003114Y009760D01*
X003135Y009836D01*
X003161Y009910D01*
X003190Y009983D01*
X003223Y010055D01*
X003259Y010125D01*
X003299Y010193D01*
X003343Y010258D01*
X003389Y010322D01*
X003439Y010383D01*
X003492Y010441D01*
X003548Y010497D01*
X003606Y010550D01*
X003667Y010600D01*
X003731Y010646D01*
X003796Y010690D01*
X003864Y010730D01*
X003934Y010766D01*
X004006Y010799D01*
X004079Y010828D01*
X004153Y010854D01*
X004229Y010875D01*
X004306Y010893D01*
X004384Y010907D01*
X004462Y010917D01*
X004540Y010923D01*
X004619Y010925D01*
X004698Y010923D01*
X004776Y010917D01*
X004854Y010907D01*
X004932Y010893D01*
X005009Y010875D01*
X005085Y010854D01*
X005159Y010828D01*
X005232Y010799D01*
X005304Y010766D01*
X005374Y010730D01*
X005442Y010690D01*
X005507Y010646D01*
X005571Y010600D01*
X005632Y010550D01*
X005690Y010497D01*
X005746Y010441D01*
X005799Y010383D01*
X005849Y010322D01*
X005895Y010258D01*
X005939Y010193D01*
X005979Y010125D01*
X006015Y010055D01*
X006048Y009983D01*
X006077Y009910D01*
X006103Y009836D01*
X006124Y009760D01*
X006142Y009683D01*
X006156Y009605D01*
X006166Y009527D01*
X006172Y009449D01*
X006174Y009370D01*
X006172Y009291D01*
X006166Y009213D01*
X006156Y009135D01*
X006142Y009057D01*
X006124Y008980D01*
X006103Y008904D01*
X006077Y008830D01*
X006048Y008757D01*
X006015Y008685D01*
X005979Y008615D01*
X005939Y008547D01*
X005895Y008482D01*
X005849Y008418D01*
X005799Y008357D01*
X005746Y008299D01*
X005690Y008243D01*
X005632Y008190D01*
X005571Y008140D01*
X005507Y008094D01*
X005442Y008050D01*
X005374Y008010D01*
X005304Y007974D01*
X005232Y007941D01*
X005159Y007912D01*
X005085Y007886D01*
X005009Y007865D01*
X004932Y007847D01*
X004854Y007833D01*
X004776Y007823D01*
X004698Y007817D01*
X004619Y007815D01*
X004540Y007817D01*
X004462Y007823D01*
X004384Y007833D01*
X004306Y007847D01*
X004229Y007865D01*
X004153Y007886D01*
X004079Y007912D01*
X004006Y007941D01*
X003934Y007974D01*
X003864Y008010D01*
X003796Y008050D01*
X003731Y008094D01*
X003667Y008140D01*
X003606Y008190D01*
X003548Y008243D01*
X003492Y008299D01*
X003439Y008357D01*
X003389Y008418D01*
X003343Y008482D01*
X003299Y008547D01*
X003259Y008615D01*
X003223Y008685D01*
X003190Y008757D01*
X003161Y008830D01*
X003135Y008904D01*
X003114Y008980D01*
X003096Y009057D01*
X003082Y009135D01*
X003072Y009213D01*
X003066Y009291D01*
X003064Y009370D01*
X005721Y010492D02*
X005697Y010469D01*
X005677Y010443D01*
X005660Y010416D01*
X005646Y010386D01*
X005636Y010355D01*
X005630Y010323D01*
X005627Y010290D01*
X005628Y010258D01*
X005634Y010225D01*
X005642Y010194D01*
X005655Y010164D01*
X005671Y010135D01*
X005690Y010109D01*
X005713Y010085D01*
X005738Y010064D01*
X005765Y010046D01*
X005794Y010031D01*
X005825Y010020D01*
X005857Y010013D01*
X005889Y010009D01*
X005922Y010010D01*
X005955Y010014D01*
X005986Y010022D01*
X006017Y010034D01*
X006046Y010049D01*
D11*
X005731Y009340D03*
X005170Y010314D03*
X004195Y010393D03*
X003536Y009645D03*
X003566Y008966D03*
X004205Y008326D03*
D12*
X004359Y007990D02*
X004414Y008013D01*
X004518Y008117D01*
X004574Y008253D01*
X004574Y008400D01*
X004518Y008535D01*
X004414Y008639D01*
X004279Y008695D01*
X004132Y008695D01*
X004091Y008678D01*
X004087Y008682D01*
X004087Y009066D01*
X004030Y009124D01*
X003999Y009154D01*
X003999Y009194D01*
X003969Y009223D01*
X003969Y009240D01*
X004442Y009713D01*
X004442Y009893D01*
X004384Y009950D01*
X004384Y009950D01*
X004298Y010036D01*
X004303Y010038D01*
X004681Y009660D01*
X004610Y009660D01*
X004515Y009565D01*
X004515Y009430D01*
X004579Y009366D01*
X004579Y009211D01*
X005032Y008758D01*
X005090Y008700D01*
X005719Y008700D01*
X005726Y008695D01*
X005758Y008700D01*
X005791Y008700D01*
X005798Y008707D01*
X005806Y008708D01*
X005826Y008735D01*
X005836Y008745D01*
X005866Y008745D01*
X005784Y008575D01*
X005498Y008267D01*
X005134Y008057D01*
X004724Y007963D01*
X004359Y007990D01*
X004408Y008011D02*
X004933Y008011D01*
X005137Y008058D02*
X004459Y008058D01*
X004507Y008106D02*
X005220Y008106D01*
X005302Y008154D02*
X004533Y008154D01*
X004553Y008202D02*
X005385Y008202D01*
X005468Y008249D02*
X004573Y008249D01*
X004574Y008297D02*
X005526Y008297D01*
X005570Y008345D02*
X004574Y008345D01*
X004574Y008392D02*
X005615Y008392D01*
X005659Y008440D02*
X004558Y008440D01*
X004538Y008488D02*
X005703Y008488D01*
X005747Y008536D02*
X004518Y008536D01*
X004470Y008583D02*
X005788Y008583D01*
X005784Y008575D02*
X005784Y008575D01*
X005811Y008631D02*
X004423Y008631D01*
X004319Y008679D02*
X005834Y008679D01*
X005820Y008726D02*
X005857Y008726D01*
X005751Y008799D02*
X005829Y008907D01*
X005751Y008799D02*
X005131Y008799D01*
X004678Y009252D01*
X004678Y009498D01*
X004515Y009490D02*
X004219Y009490D01*
X004266Y009538D02*
X004515Y009538D01*
X004536Y009585D02*
X004314Y009585D01*
X004362Y009633D02*
X004583Y009633D01*
X004661Y009681D02*
X004409Y009681D01*
X004442Y009728D02*
X004613Y009728D01*
X004565Y009776D02*
X004442Y009776D01*
X004442Y009824D02*
X004517Y009824D01*
X004470Y009871D02*
X004442Y009871D01*
X004422Y009919D02*
X004415Y009919D01*
X004374Y009967D02*
X004367Y009967D01*
X004327Y010015D02*
X004320Y010015D01*
X004195Y010000D02*
X004343Y009852D01*
X004343Y009753D01*
X003871Y009281D01*
X003871Y009242D01*
X003871Y009183D01*
X003900Y009153D01*
X003928Y009086D02*
X003989Y009025D01*
X003989Y008641D01*
X004195Y008435D01*
X004068Y008307D01*
X004304Y008159D01*
X004136Y008208D01*
X004205Y008326D01*
X004087Y008444D01*
X003694Y008444D01*
X003674Y008415D01*
X003664Y008415D01*
X003674Y008415D01*
X004091Y008679D02*
X004092Y008679D01*
X004087Y008726D02*
X005064Y008726D01*
X005016Y008774D02*
X004087Y008774D01*
X004087Y008822D02*
X004968Y008822D01*
X004921Y008870D02*
X004087Y008870D01*
X004087Y008917D02*
X004873Y008917D01*
X004825Y008965D02*
X004087Y008965D01*
X004087Y009013D02*
X004777Y009013D01*
X004730Y009060D02*
X004087Y009060D01*
X004045Y009108D02*
X004682Y009108D01*
X004634Y009156D02*
X003999Y009156D01*
X003900Y009153D02*
X003902Y009134D01*
X003907Y009117D01*
X003916Y009100D01*
X003928Y009086D01*
X003989Y009204D02*
X004587Y009204D01*
X004579Y009251D02*
X003980Y009251D01*
X004028Y009299D02*
X004579Y009299D01*
X004579Y009347D02*
X004075Y009347D01*
X004123Y009394D02*
X004551Y009394D01*
X004515Y009442D02*
X004171Y009442D01*
X003999Y009557D02*
X003634Y009192D01*
X003634Y009035D01*
X003566Y008966D01*
X004058Y009232D02*
X004390Y009232D01*
X004953Y008669D01*
X005113Y008669D01*
X005377Y008307D01*
X005554Y009163D02*
X005150Y009163D01*
X005140Y009163D02*
X005052Y009252D01*
X005052Y009429D01*
X004195Y010285D01*
X004195Y010393D01*
X004195Y010000D01*
X003999Y009921D02*
X003999Y009862D01*
X003999Y009557D01*
X003999Y009921D02*
X003694Y010236D01*
X003556Y010039D02*
X003566Y009704D01*
X003536Y009675D01*
X003497Y009675D01*
X003477Y009655D01*
X004472Y010148D02*
X004508Y010184D01*
X004565Y010320D01*
X004565Y010467D01*
X004508Y010602D01*
X004405Y010706D01*
X004310Y010745D01*
X004724Y010776D01*
X005061Y010699D01*
X005054Y010698D01*
X004981Y010668D01*
X004916Y010624D01*
X004860Y010569D01*
X004817Y010503D01*
X004787Y010431D01*
X004771Y010354D01*
X004771Y010339D01*
X005145Y010339D01*
X005145Y010290D01*
X004771Y010290D01*
X004771Y010275D01*
X004787Y010198D01*
X004817Y010126D01*
X004860Y010060D01*
X004916Y010005D01*
X004981Y009961D01*
X005054Y009931D01*
X005131Y009916D01*
X005145Y009916D01*
X005145Y010290D01*
X005194Y010290D01*
X005194Y009916D01*
X005209Y009916D01*
X005286Y009931D01*
X005359Y009961D01*
X005424Y010005D01*
X005480Y010060D01*
X005511Y010108D01*
X005627Y009951D01*
X005627Y009951D01*
X005818Y009860D01*
X005818Y009860D01*
X005928Y009865D01*
X005966Y009785D01*
X005995Y009598D01*
X005940Y009653D01*
X005804Y009709D01*
X005657Y009709D01*
X005522Y009653D01*
X005418Y009549D01*
X005362Y009414D01*
X005362Y009267D01*
X005364Y009261D01*
X005281Y009261D01*
X005217Y009325D01*
X005150Y009325D01*
X005150Y009469D01*
X005093Y009527D01*
X004472Y010148D01*
X004482Y010158D02*
X004803Y010158D01*
X004785Y010205D02*
X004517Y010205D01*
X004537Y010253D02*
X004776Y010253D01*
X004771Y010349D02*
X004565Y010349D01*
X004565Y010396D02*
X004780Y010396D01*
X004792Y010444D02*
X004565Y010444D01*
X004554Y010492D02*
X004812Y010492D01*
X004841Y010539D02*
X004534Y010539D01*
X004515Y010587D02*
X004879Y010587D01*
X004865Y010610D02*
X005170Y010305D01*
X005170Y010314D01*
X005170Y010502D01*
X005145Y010492D02*
X005194Y010492D01*
X005194Y010539D02*
X005145Y010539D01*
X005145Y010587D02*
X005194Y010587D01*
X005194Y010635D02*
X005145Y010635D01*
X005145Y010676D02*
X005145Y010339D01*
X005194Y010339D01*
X005194Y010648D01*
X005145Y010676D01*
X005017Y010683D02*
X004428Y010683D01*
X004476Y010635D02*
X004932Y010635D01*
X004865Y010610D02*
X004806Y010610D01*
X004925Y010730D02*
X004346Y010730D01*
X004557Y010301D02*
X005145Y010301D01*
X005170Y010314D02*
X004914Y010059D01*
X004914Y009960D01*
X004865Y009911D01*
X004796Y009824D02*
X005948Y009824D01*
X005968Y009776D02*
X004844Y009776D01*
X004891Y009728D02*
X005975Y009728D01*
X005982Y009681D02*
X005873Y009681D01*
X005960Y009633D02*
X005989Y009633D01*
X005793Y009871D02*
X004748Y009871D01*
X004700Y009919D02*
X005114Y009919D01*
X005145Y009919D02*
X005194Y009919D01*
X005226Y009919D02*
X005693Y009919D01*
X005627Y009951D02*
X005627Y009951D01*
X005615Y009967D02*
X005367Y009967D01*
X005434Y010015D02*
X005580Y010015D01*
X005545Y010062D02*
X005481Y010062D01*
X005308Y010177D02*
X005170Y010314D01*
X005194Y010301D02*
X005477Y010301D01*
X005478Y010290D02*
X005194Y010290D01*
X005194Y010339D01*
X005475Y010339D01*
X005472Y010331D01*
X005478Y010290D01*
X005472Y010331D02*
X005472Y010331D01*
X005386Y010295D02*
X005308Y010177D01*
X005194Y010158D02*
X005145Y010158D01*
X005145Y010205D02*
X005194Y010205D01*
X005194Y010253D02*
X005145Y010253D01*
X005145Y010349D02*
X005194Y010349D01*
X005194Y010396D02*
X005145Y010396D01*
X005145Y010444D02*
X005194Y010444D01*
X005194Y010110D02*
X005145Y010110D01*
X005145Y010062D02*
X005194Y010062D01*
X005194Y010015D02*
X005145Y010015D01*
X005145Y009967D02*
X005194Y009967D01*
X004973Y009967D02*
X004653Y009967D01*
X004605Y010015D02*
X004906Y010015D01*
X004859Y010062D02*
X004557Y010062D01*
X004510Y010110D02*
X004827Y010110D01*
X004939Y009681D02*
X005589Y009681D01*
X005502Y009633D02*
X004987Y009633D01*
X005034Y009585D02*
X005454Y009585D01*
X005413Y009538D02*
X005082Y009538D01*
X005130Y009490D02*
X005393Y009490D01*
X005374Y009442D02*
X005150Y009442D01*
X005150Y009394D02*
X005362Y009394D01*
X005362Y009347D02*
X005150Y009347D01*
X005244Y009299D02*
X005362Y009299D01*
X005554Y009163D02*
X005731Y009340D01*
D13*
X005829Y008907D03*
X005377Y008307D03*
X005150Y009163D03*
X004678Y009498D03*
X004865Y009911D03*
X005386Y010295D03*
X004806Y010610D03*
X003694Y010236D03*
X003556Y010039D03*
X004058Y009232D03*
X003674Y008415D03*
X004068Y008307D03*
M02*
