G75*
G70*
%OFA0B0*%
%FSLAX24Y24*%
%IPPOS*%
%LPD*%
%AMOC8*
5,1,8,0,0,1.08239X$1,22.5*
%
%ADD10C,0.0000*%
%ADD11R,0.1417X0.1535*%
%ADD12R,0.0650X0.0165*%
%ADD13R,0.0165X0.0650*%
%ADD14R,0.0335X0.0413*%
%ADD15R,0.0413X0.0335*%
%ADD16R,0.0239X0.1169*%
%ADD17R,0.0433X0.0315*%
%ADD18R,0.0531X0.0787*%
%ADD19R,0.0609X0.0196*%
%ADD20R,0.0374X0.0374*%
%ADD21R,0.0809X0.0559*%
%ADD22R,0.0809X0.1559*%
%ADD23R,0.1043X0.0650*%
%ADD24R,0.0551X0.0217*%
%ADD25R,0.0650X0.1043*%
%ADD26R,0.0369X0.0409*%
%ADD27R,0.0177X0.0374*%
%ADD28R,0.0374X0.0177*%
%ADD29R,0.0339X0.0219*%
%ADD30R,0.0649X0.0999*%
%ADD31R,0.0659X0.0359*%
%ADD32R,0.0335X0.0610*%
%ADD33R,0.0374X0.0413*%
%ADD34C,0.0020*%
%ADD35C,0.0689*%
%ADD36R,0.0335X0.0650*%
%ADD37R,0.0453X0.1240*%
%ADD38C,0.0453*%
%ADD39R,0.0197X0.0453*%
%ADD40C,0.0295*%
D10*
X000500Y001519D02*
X000500Y005850D01*
X002705Y005850D01*
X002705Y008920D01*
X000500Y008920D01*
X000500Y013724D01*
X016642Y013724D01*
X016642Y001519D01*
X000500Y001519D01*
X001819Y012995D02*
X001821Y013022D01*
X001827Y013049D01*
X001836Y013075D01*
X001849Y013099D01*
X001865Y013122D01*
X001884Y013141D01*
X001906Y013158D01*
X001930Y013172D01*
X001955Y013182D01*
X001982Y013189D01*
X002009Y013192D01*
X002037Y013191D01*
X002064Y013186D01*
X002090Y013178D01*
X002114Y013166D01*
X002137Y013150D01*
X002158Y013132D01*
X002175Y013111D01*
X002190Y013087D01*
X002201Y013062D01*
X002209Y013036D01*
X002213Y013009D01*
X002213Y012981D01*
X002209Y012954D01*
X002201Y012928D01*
X002190Y012903D01*
X002175Y012879D01*
X002158Y012858D01*
X002137Y012840D01*
X002115Y012824D01*
X002090Y012812D01*
X002064Y012804D01*
X002037Y012799D01*
X002009Y012798D01*
X001982Y012801D01*
X001955Y012808D01*
X001930Y012818D01*
X001906Y012832D01*
X001884Y012849D01*
X001865Y012868D01*
X001849Y012891D01*
X001836Y012915D01*
X001827Y012941D01*
X001821Y012968D01*
X001819Y012995D01*
X003000Y012995D02*
X003002Y013022D01*
X003008Y013049D01*
X003017Y013075D01*
X003030Y013099D01*
X003046Y013122D01*
X003065Y013141D01*
X003087Y013158D01*
X003111Y013172D01*
X003136Y013182D01*
X003163Y013189D01*
X003190Y013192D01*
X003218Y013191D01*
X003245Y013186D01*
X003271Y013178D01*
X003295Y013166D01*
X003318Y013150D01*
X003339Y013132D01*
X003356Y013111D01*
X003371Y013087D01*
X003382Y013062D01*
X003390Y013036D01*
X003394Y013009D01*
X003394Y012981D01*
X003390Y012954D01*
X003382Y012928D01*
X003371Y012903D01*
X003356Y012879D01*
X003339Y012858D01*
X003318Y012840D01*
X003296Y012824D01*
X003271Y012812D01*
X003245Y012804D01*
X003218Y012799D01*
X003190Y012798D01*
X003163Y012801D01*
X003136Y012808D01*
X003111Y012818D01*
X003087Y012832D01*
X003065Y012849D01*
X003046Y012868D01*
X003030Y012891D01*
X003017Y012915D01*
X003008Y012941D01*
X003002Y012968D01*
X003000Y012995D01*
D11*
X011720Y005948D03*
D12*
X010441Y005889D03*
X010441Y006046D03*
X010441Y006204D03*
X010441Y006361D03*
X010441Y006519D03*
X010441Y006676D03*
X010441Y006834D03*
X010441Y005732D03*
X010441Y005574D03*
X010441Y005417D03*
X010441Y005259D03*
X010441Y005102D03*
X013000Y005102D03*
X013000Y005259D03*
X013000Y005417D03*
X013000Y005574D03*
X013000Y005732D03*
X013000Y005889D03*
X013000Y006046D03*
X013000Y006204D03*
X013000Y006361D03*
X013000Y006519D03*
X013000Y006676D03*
X013000Y006834D03*
D13*
X012587Y007247D03*
X012429Y007247D03*
X012272Y007247D03*
X012114Y007247D03*
X011957Y007247D03*
X011799Y007247D03*
X011642Y007247D03*
X011484Y007247D03*
X011327Y007247D03*
X011169Y007247D03*
X011012Y007247D03*
X010854Y007247D03*
X010854Y004688D03*
X011012Y004688D03*
X011169Y004688D03*
X011327Y004688D03*
X011484Y004688D03*
X011642Y004688D03*
X011799Y004688D03*
X011957Y004688D03*
X012114Y004688D03*
X012272Y004688D03*
X012429Y004688D03*
X012587Y004688D03*
D14*
X010717Y003920D03*
X010205Y003920D03*
X009772Y002936D03*
X009260Y002936D03*
X009260Y002385D03*
X009772Y002385D03*
X009575Y007424D03*
X010087Y007424D03*
X012843Y008054D03*
X013354Y008054D03*
X013492Y007503D03*
X014004Y007503D03*
X009772Y010692D03*
X009260Y010692D03*
X008512Y011558D03*
X008000Y011558D03*
X005835Y011873D03*
X005323Y011873D03*
D15*
X004791Y011027D03*
X004791Y010515D03*
X004791Y009806D03*
X004791Y009294D03*
X004555Y006972D03*
X004555Y006460D03*
X004634Y005436D03*
X004634Y004924D03*
X004122Y004924D03*
X004122Y005436D03*
X001957Y002720D03*
X001406Y002720D03*
X001406Y002208D03*
X001957Y002208D03*
X010500Y002444D03*
X010500Y001932D03*
X013413Y001893D03*
X013413Y002405D03*
X013413Y002798D03*
X013413Y003310D03*
X013872Y004285D03*
X014368Y004285D03*
X014368Y004796D03*
X013872Y004796D03*
X012429Y008586D03*
X012429Y009098D03*
X011878Y009098D03*
X011878Y008586D03*
X011327Y008783D03*
X011327Y009294D03*
X010736Y009294D03*
X010736Y008783D03*
X011209Y011657D03*
X011209Y012169D03*
X007232Y012444D03*
X007232Y012956D03*
X006642Y012798D03*
X006642Y012287D03*
D16*
X012030Y011678D03*
X012530Y011678D03*
X013030Y011678D03*
X013530Y011678D03*
X014030Y011678D03*
X014030Y010198D03*
X013530Y010198D03*
X013030Y010198D03*
X012530Y010198D03*
X012030Y010198D03*
D17*
X012292Y002907D03*
X012292Y002316D03*
X011268Y002316D03*
X011268Y002907D03*
D18*
X015088Y006464D03*
X016347Y006464D03*
D19*
X008199Y006430D03*
X008199Y006174D03*
X008199Y005919D03*
X008199Y005663D03*
X008199Y005407D03*
X008199Y005151D03*
X008199Y004895D03*
X008199Y006686D03*
X008199Y006942D03*
X008199Y007198D03*
X008199Y007454D03*
X008199Y007710D03*
X008199Y007966D03*
X008199Y008222D03*
X005320Y008222D03*
X005320Y007966D03*
X005320Y007710D03*
X005320Y007454D03*
X005320Y007198D03*
X005320Y006942D03*
X005320Y006686D03*
X005320Y006430D03*
X005320Y006174D03*
X005320Y005919D03*
X005320Y005663D03*
X005320Y005407D03*
X005320Y005151D03*
X005320Y004895D03*
D20*
X001957Y004176D03*
X001406Y004176D03*
X001406Y003586D03*
X001957Y003586D03*
D21*
X005658Y009231D03*
X005658Y010141D03*
X005658Y011051D03*
D22*
X008098Y010141D03*
D23*
X002921Y009373D03*
X001268Y009373D03*
X001268Y005397D03*
X002921Y005397D03*
D24*
X003049Y006873D03*
X003049Y007129D03*
X003049Y007385D03*
X003049Y007641D03*
X003049Y007897D03*
D25*
X003787Y008251D03*
X003787Y006519D03*
D26*
X009106Y010187D03*
X009866Y010187D03*
X009486Y009387D03*
D27*
X008256Y012129D03*
X008256Y012917D03*
D28*
X008650Y012818D03*
X008650Y012621D03*
X008650Y012424D03*
X008650Y012228D03*
X007862Y012228D03*
X007862Y012424D03*
X007862Y012621D03*
X007862Y012818D03*
D29*
X006070Y012818D03*
X006070Y012428D03*
X006070Y013208D03*
X004930Y013208D03*
X004930Y012818D03*
X004930Y012428D03*
D30*
X005500Y012818D03*
D31*
X005419Y003647D03*
X006329Y003647D03*
X006329Y002147D03*
X005419Y002147D03*
X003219Y002147D03*
X003219Y003647D03*
X008529Y003647D03*
X008529Y002147D03*
D32*
X010677Y008251D03*
X011346Y008251D03*
D33*
X012872Y008556D03*
X013325Y008556D03*
X012872Y009127D03*
D34*
X013148Y009123D02*
X013502Y009123D01*
X013502Y009141D02*
X013148Y009141D01*
X013148Y009160D02*
X013502Y009160D01*
X013502Y009178D02*
X013148Y009178D01*
X013148Y009197D02*
X013502Y009197D01*
X013502Y009215D02*
X013148Y009215D01*
X013148Y009234D02*
X013502Y009234D01*
X013502Y009252D02*
X013148Y009252D01*
X013148Y009271D02*
X013502Y009271D01*
X013502Y009289D02*
X013148Y009289D01*
X013148Y009308D02*
X013502Y009308D01*
X013502Y009324D02*
X013502Y008930D01*
X013276Y008930D01*
X013148Y009058D01*
X013148Y009324D01*
X013502Y009324D01*
X013502Y009104D02*
X013148Y009104D01*
X013148Y009086D02*
X013502Y009086D01*
X013502Y009067D02*
X013148Y009067D01*
X013157Y009049D02*
X013502Y009049D01*
X013502Y009030D02*
X013176Y009030D01*
X013194Y009012D02*
X013502Y009012D01*
X013502Y008993D02*
X013213Y008993D01*
X013231Y008975D02*
X013502Y008975D01*
X013502Y008956D02*
X013250Y008956D01*
X013268Y008938D02*
X013502Y008938D01*
D35*
X013555Y013251D03*
X012555Y013251D03*
X011555Y013251D03*
X010555Y013251D03*
X009555Y013251D03*
D36*
X003492Y012306D03*
X002311Y012306D03*
X001720Y012306D03*
D37*
X001169Y013094D03*
X004043Y013094D03*
D38*
X003197Y012995D03*
X002016Y012995D03*
D39*
X014134Y006463D03*
X014390Y006463D03*
X014646Y006463D03*
X014646Y005774D03*
X014390Y005774D03*
X014134Y005774D03*
D40*
X013571Y005495D03*
X013512Y004747D03*
X014640Y005309D03*
X014940Y005309D03*
X014940Y005609D03*
X013740Y006509D03*
X013740Y006809D03*
X014040Y007009D03*
X014340Y007009D03*
X014640Y007009D03*
X013531Y007149D03*
X012823Y007424D03*
X013118Y007720D03*
X012528Y008074D03*
X011858Y007936D03*
X011681Y008212D03*
X010874Y007720D03*
X010618Y007503D03*
X010067Y008271D03*
X009240Y008507D03*
X009457Y009019D03*
X010126Y009806D03*
X010756Y010023D03*
X011287Y010023D03*
X011681Y009452D03*
X012823Y009491D03*
X014220Y009472D03*
X014220Y010968D03*
X012567Y012621D03*
X011307Y012700D03*
X010559Y011893D03*
X011110Y011342D03*
X011760Y011460D03*
X010677Y010672D03*
X009476Y010023D03*
X008768Y010043D03*
X008256Y011243D03*
X007094Y012129D03*
X008197Y012503D03*
X007606Y013035D03*
X009673Y012070D03*
X009909Y012897D03*
X004673Y008980D03*
X003870Y009550D03*
X003492Y010043D03*
X001720Y010121D03*
X001366Y010456D03*
X001366Y011676D03*
X004299Y011952D03*
X004850Y008054D03*
X004850Y007759D03*
X004850Y007464D03*
X004181Y007169D03*
X003472Y007287D03*
X003571Y007582D03*
X004555Y005909D03*
X004850Y005909D03*
X004122Y005830D03*
X005913Y005672D03*
X006720Y004826D03*
X008630Y004255D03*
X009594Y003881D03*
X009890Y003665D03*
X010224Y003468D03*
X010638Y003054D03*
X010500Y002759D03*
X011031Y003665D03*
X011031Y004216D03*
X011346Y004216D03*
X012094Y004216D03*
X012114Y003606D03*
X014240Y003409D03*
X012055Y005456D03*
X011701Y005456D03*
X011346Y005456D03*
X011346Y005928D03*
X011701Y005928D03*
X012055Y005928D03*
X012055Y006401D03*
X011701Y006401D03*
X011346Y006401D03*
X009969Y005554D03*
X009909Y006106D03*
X009909Y006401D03*
X008689Y006381D03*
X009673Y004905D03*
X009988Y004688D03*
X009476Y003291D03*
X009102Y002031D03*
X004929Y001932D03*
X004122Y002424D03*
X002921Y003232D03*
X003709Y003645D03*
X003138Y004196D03*
X001051Y004708D03*
X000933Y001952D03*
X007114Y007976D03*
M02*
