%
M48
M72
T01C0.0118
T02C0.0394
%
T01
X933Y1952
X2921Y3232
X3709Y3645
X3138Y4196
X4122Y5830
X4555Y5909
X4850Y5909
X5913Y5672
X6720Y4826
X8630Y4255
X9594Y3881
X9890Y3665
X10224Y3468
X10638Y3054
X10500Y2759
X11031Y3665
X11031Y4216
X11346Y4216
X12094Y4216
X12114Y3606
X13512Y4747
X13571Y5495
X14640Y5309
X14940Y5309
X14940Y5609
X13740Y6509
X13740Y6809
X14040Y7009
X14340Y7009
X14640Y7009
X13531Y7149
X12823Y7424
X13118Y7720
X12528Y8074
X11858Y7936
X11681Y8212
X10874Y7720
X10618Y7503
X10067Y8271
X9240Y8507
X9457Y9019
X10126Y9806
X10756Y10023
X11287Y10023
X11681Y9452
X12823Y9491
X14220Y9472
X14220Y10968
X12567Y12621
X11307Y12700
X10559Y11893
X11110Y11342
X11760Y11460
X10677Y10672
X9476Y10023
X8768Y10043
X8256Y11243
X7094Y12129
X8197Y12503
X7606Y13035
X9673Y12070
X9909Y12897
X4673Y8980
X3870Y9550
X3492Y10043
X1720Y10121
X1366Y10456
X1366Y11676
X4299Y11952
X4850Y8054
X4850Y7759
X4850Y7464
X4181Y7169
X3472Y7287
X3571Y7582
X7114Y7976
X8689Y6381
X9909Y6401
X9909Y6106
X9969Y5554
X9673Y4905
X9988Y4688
X11346Y5456
X11701Y5456
X12055Y5456
X12055Y5928
X11701Y5928
X11346Y5928
X11346Y6401
X11701Y6401
X12055Y6401
X14240Y3409
X9476Y3291
X9102Y2031
X4929Y1932
X4122Y2424
X1051Y4708
T02
X2016Y12995
X3197Y12995
M30
