G75*
G70*
%OFA0B0*%
%FSLAX24Y24*%
%IPPOS*%
%LPD*%
%AMOC8*
5,1,8,0,0,1.08239X$1,22.5*
%
%ADD10C,0.0000*%
%ADD11R,0.1417X0.1535*%
%ADD12R,0.0591X0.0106*%
%ADD13R,0.0106X0.0591*%
%ADD14C,0.0300*%
%ADD15R,0.0276X0.0354*%
%ADD16R,0.0354X0.0276*%
%ADD17R,0.0180X0.1110*%
%ADD18R,0.0760X0.0760*%
%ADD19R,0.0472X0.0728*%
%ADD20R,0.0550X0.0137*%
%ADD21R,0.0315X0.0315*%
%ADD22R,0.0750X0.0500*%
%ADD23R,0.0750X0.1500*%
%ADD24R,0.0984X0.0591*%
%ADD25R,0.0492X0.0157*%
%ADD26R,0.0591X0.0984*%
%ADD27R,0.0310X0.0350*%
%ADD28R,0.0118X0.0315*%
%ADD29R,0.0315X0.0118*%
%ADD30R,0.0280X0.0160*%
%ADD31R,0.0590X0.0940*%
%ADD32R,0.0600X0.0300*%
%ADD33R,0.0276X0.0551*%
%ADD34R,0.0335X0.0374*%
%ADD35C,0.0630*%
%ADD36R,0.0276X0.0591*%
%ADD37R,0.0394X0.1181*%
%ADD38R,0.0138X0.0394*%
%ADD39C,0.0059*%
%ADD40C,0.0100*%
%ADD41C,0.0236*%
%ADD42C,0.0060*%
%ADD43C,0.0079*%
%ADD44C,0.0120*%
%ADD45C,0.0240*%
%ADD46C,0.0160*%
D10*
X000500Y001519D02*
X000500Y005850D01*
X002705Y005850D01*
X002705Y008920D01*
X000500Y008920D01*
X000500Y013724D01*
X016642Y013724D01*
X016642Y001519D01*
X000500Y001519D01*
X001819Y012995D02*
X001821Y013022D01*
X001827Y013049D01*
X001836Y013075D01*
X001849Y013099D01*
X001865Y013122D01*
X001884Y013141D01*
X001906Y013158D01*
X001930Y013172D01*
X001955Y013182D01*
X001982Y013189D01*
X002009Y013192D01*
X002037Y013191D01*
X002064Y013186D01*
X002090Y013178D01*
X002114Y013166D01*
X002137Y013150D01*
X002158Y013132D01*
X002175Y013111D01*
X002190Y013087D01*
X002201Y013062D01*
X002209Y013036D01*
X002213Y013009D01*
X002213Y012981D01*
X002209Y012954D01*
X002201Y012928D01*
X002190Y012903D01*
X002175Y012879D01*
X002158Y012858D01*
X002137Y012840D01*
X002115Y012824D01*
X002090Y012812D01*
X002064Y012804D01*
X002037Y012799D01*
X002009Y012798D01*
X001982Y012801D01*
X001955Y012808D01*
X001930Y012818D01*
X001906Y012832D01*
X001884Y012849D01*
X001865Y012868D01*
X001849Y012891D01*
X001836Y012915D01*
X001827Y012941D01*
X001821Y012968D01*
X001819Y012995D01*
X003000Y012995D02*
X003002Y013022D01*
X003008Y013049D01*
X003017Y013075D01*
X003030Y013099D01*
X003046Y013122D01*
X003065Y013141D01*
X003087Y013158D01*
X003111Y013172D01*
X003136Y013182D01*
X003163Y013189D01*
X003190Y013192D01*
X003218Y013191D01*
X003245Y013186D01*
X003271Y013178D01*
X003295Y013166D01*
X003318Y013150D01*
X003339Y013132D01*
X003356Y013111D01*
X003371Y013087D01*
X003382Y013062D01*
X003390Y013036D01*
X003394Y013009D01*
X003394Y012981D01*
X003390Y012954D01*
X003382Y012928D01*
X003371Y012903D01*
X003356Y012879D01*
X003339Y012858D01*
X003318Y012840D01*
X003296Y012824D01*
X003271Y012812D01*
X003245Y012804D01*
X003218Y012799D01*
X003190Y012798D01*
X003163Y012801D01*
X003136Y012808D01*
X003111Y012818D01*
X003087Y012832D01*
X003065Y012849D01*
X003046Y012868D01*
X003030Y012891D01*
X003017Y012915D01*
X003008Y012941D01*
X003002Y012968D01*
X003000Y012995D01*
D11*
X011720Y005948D03*
D12*
X010441Y005889D03*
X010441Y006046D03*
X010441Y006204D03*
X010441Y006361D03*
X010441Y006519D03*
X010441Y006676D03*
X010441Y006834D03*
X010441Y005732D03*
X010441Y005574D03*
X010441Y005417D03*
X010441Y005259D03*
X010441Y005102D03*
X013000Y005102D03*
X013000Y005259D03*
X013000Y005417D03*
X013000Y005574D03*
X013000Y005732D03*
X013000Y005889D03*
X013000Y006046D03*
X013000Y006204D03*
X013000Y006361D03*
X013000Y006519D03*
X013000Y006676D03*
X013000Y006834D03*
D13*
X012587Y007247D03*
X012429Y007247D03*
X012272Y007247D03*
X012114Y007247D03*
X011957Y007247D03*
X011799Y007247D03*
X011642Y007247D03*
X011484Y007247D03*
X011327Y007247D03*
X011169Y007247D03*
X011012Y007247D03*
X010854Y007247D03*
X010854Y004688D03*
X011012Y004688D03*
X011169Y004688D03*
X011327Y004688D03*
X011484Y004688D03*
X011642Y004688D03*
X011799Y004688D03*
X011957Y004688D03*
X012114Y004688D03*
X012272Y004688D03*
X012429Y004688D03*
X012587Y004688D03*
D14*
X012902Y004787D03*
X010539Y007149D03*
D15*
X010087Y007424D03*
X009575Y007424D03*
X012843Y008054D03*
X013354Y008054D03*
X013492Y007503D03*
X014004Y007503D03*
X009772Y010692D03*
X009260Y010692D03*
X008512Y011558D03*
X008000Y011558D03*
X005835Y011873D03*
X005323Y011873D03*
X010205Y003920D03*
X010717Y003920D03*
X009772Y002936D03*
X009260Y002936D03*
X009260Y002385D03*
X009772Y002385D03*
D16*
X010500Y002444D03*
X010500Y001932D03*
X013413Y001893D03*
X013413Y002405D03*
X013413Y002798D03*
X013413Y003310D03*
X013872Y004285D03*
X014368Y004285D03*
X014368Y004796D03*
X013872Y004796D03*
X012429Y008586D03*
X012429Y009098D03*
X011878Y009098D03*
X011878Y008586D03*
X011327Y008783D03*
X011327Y009294D03*
X010736Y009294D03*
X010736Y008783D03*
X011209Y011657D03*
X011209Y012169D03*
X007232Y012444D03*
X007232Y012956D03*
X006642Y012798D03*
X006642Y012287D03*
X004791Y011027D03*
X004791Y010515D03*
X004791Y009806D03*
X004791Y009294D03*
X004555Y006972D03*
X004555Y006460D03*
X004634Y005436D03*
X004634Y004924D03*
X004122Y004924D03*
X004122Y005436D03*
X001957Y002720D03*
X001406Y002720D03*
X001406Y002208D03*
X001957Y002208D03*
D17*
X012030Y010198D03*
X012530Y010198D03*
X013030Y010198D03*
X013530Y010198D03*
X014030Y010198D03*
X014030Y011678D03*
X013530Y011678D03*
X013030Y011678D03*
X012530Y011678D03*
X012030Y011678D03*
D18*
X012307Y003040D03*
X012307Y002183D03*
X011212Y002183D03*
X011212Y003050D03*
D19*
X015088Y006464D03*
X016347Y006464D03*
D20*
X008199Y006430D03*
X008199Y006174D03*
X008199Y005919D03*
X008199Y005663D03*
X008199Y005407D03*
X008199Y005151D03*
X008199Y004895D03*
X008199Y006686D03*
X008199Y006942D03*
X008199Y007198D03*
X008199Y007454D03*
X008199Y007710D03*
X008199Y007966D03*
X008199Y008222D03*
X005320Y008222D03*
X005320Y007966D03*
X005320Y007710D03*
X005320Y007454D03*
X005320Y007198D03*
X005320Y006942D03*
X005320Y006686D03*
X005320Y006430D03*
X005320Y006174D03*
X005320Y005919D03*
X005320Y005663D03*
X005320Y005407D03*
X005320Y005151D03*
X005320Y004895D03*
D21*
X001957Y004176D03*
X001406Y004176D03*
X001406Y003586D03*
X001957Y003586D03*
D22*
X005658Y009231D03*
X005658Y010141D03*
X005658Y011051D03*
D23*
X008098Y010141D03*
D24*
X002921Y009373D03*
X001268Y009373D03*
X001268Y005397D03*
X002921Y005397D03*
D25*
X003049Y006873D03*
X003049Y007129D03*
X003049Y007385D03*
X003049Y007641D03*
X003049Y007897D03*
D26*
X003787Y008251D03*
X003787Y006519D03*
D27*
X009106Y010187D03*
X009866Y010187D03*
X009486Y009387D03*
D28*
X008256Y012129D03*
X008256Y012917D03*
D29*
X008650Y012818D03*
X008650Y012621D03*
X008650Y012424D03*
X008650Y012228D03*
X007862Y012228D03*
X007862Y012424D03*
X007862Y012621D03*
X007862Y012818D03*
D30*
X006070Y012818D03*
X006070Y012428D03*
X006070Y013208D03*
X004930Y013208D03*
X004930Y012818D03*
X004930Y012428D03*
D31*
X005500Y012818D03*
D32*
X005419Y003647D03*
X006329Y003647D03*
X006329Y002147D03*
X005419Y002147D03*
X003219Y002147D03*
X003219Y003647D03*
X008529Y003647D03*
X008529Y002147D03*
D33*
X010677Y008251D03*
X011346Y008251D03*
D34*
X012872Y008556D03*
X013325Y008556D03*
X013325Y009127D03*
X012872Y009127D03*
D35*
X012555Y013251D03*
X011555Y013251D03*
X010555Y013251D03*
X009555Y013251D03*
X013555Y013251D03*
D36*
X003492Y012306D03*
X002311Y012306D03*
X001720Y012306D03*
D37*
X001169Y013094D03*
X004043Y013094D03*
D38*
X014134Y006463D03*
X014390Y006463D03*
X014646Y006463D03*
X014646Y005774D03*
X014390Y005774D03*
X014134Y005774D03*
D39*
X013807Y005574D02*
X013807Y004826D01*
X013886Y004787D01*
X013882Y004787D01*
X013872Y004796D01*
X013512Y004747D02*
X013512Y005259D01*
X013354Y005417D01*
X013000Y005417D01*
X013000Y005574D02*
X013492Y005574D01*
X013571Y005495D01*
X013807Y005574D02*
X013650Y005732D01*
X013000Y005732D01*
X013000Y005259D02*
X013335Y005259D01*
X013394Y005200D01*
X013394Y004924D01*
X013256Y004787D01*
X013256Y003448D01*
X013413Y003291D01*
X013413Y003310D01*
X013465Y003628D02*
X013465Y004450D01*
X013571Y004450D01*
X013592Y004458D01*
X013587Y004437D01*
X013587Y004314D01*
X013843Y004314D01*
X013843Y004255D01*
X013902Y004255D01*
X013902Y004314D01*
X014339Y004314D01*
X014339Y004255D01*
X014398Y004255D01*
X014398Y004314D01*
X014654Y004314D01*
X014654Y004437D01*
X014646Y004464D01*
X014632Y004489D01*
X014631Y004490D01*
X014725Y004584D01*
X014725Y005009D01*
X014620Y005114D01*
X014578Y005114D01*
X014578Y005320D01*
X014590Y005332D01*
X014590Y005454D01*
X014605Y005469D01*
X014641Y005469D01*
X014641Y005769D01*
X014651Y005769D01*
X014651Y005469D01*
X014729Y005469D01*
X014757Y005477D01*
X014781Y005491D01*
X014801Y005511D01*
X014816Y005536D01*
X014823Y005563D01*
X014823Y005769D01*
X014651Y005769D01*
X014651Y005779D01*
X014823Y005779D01*
X014823Y005920D01*
X015073Y005920D01*
X015073Y001698D01*
X013770Y001698D01*
X013770Y002105D01*
X013726Y002149D01*
X013770Y002193D01*
X013770Y002196D01*
X013835Y002196D01*
X013933Y002294D01*
X014056Y002417D01*
X014056Y003023D01*
X013937Y003141D01*
X013815Y003263D01*
X013770Y003263D01*
X013770Y003522D01*
X013665Y003628D01*
X013465Y003628D01*
X013465Y003648D02*
X015073Y003648D01*
X015073Y003591D02*
X013702Y003591D01*
X013759Y003533D02*
X015073Y003533D01*
X015073Y003476D02*
X013770Y003476D01*
X013770Y003418D02*
X015073Y003418D01*
X015073Y003361D02*
X013770Y003361D01*
X013770Y003303D02*
X015073Y003303D01*
X015073Y003246D02*
X013833Y003246D01*
X013890Y003188D02*
X015073Y003188D01*
X015073Y003130D02*
X013948Y003130D01*
X014005Y003073D02*
X015073Y003073D01*
X015073Y003015D02*
X014056Y003015D01*
X014056Y002958D02*
X015073Y002958D01*
X015073Y002900D02*
X014056Y002900D01*
X014056Y002843D02*
X015073Y002843D01*
X015073Y002785D02*
X014056Y002785D01*
X014056Y002728D02*
X015073Y002728D01*
X015073Y002670D02*
X014056Y002670D01*
X014056Y002612D02*
X015073Y002612D01*
X015073Y002555D02*
X014056Y002555D01*
X014056Y002497D02*
X015073Y002497D01*
X015073Y002440D02*
X014056Y002440D01*
X014021Y002382D02*
X015073Y002382D01*
X015073Y002325D02*
X013964Y002325D01*
X013906Y002267D02*
X015073Y002267D01*
X015073Y002210D02*
X013849Y002210D01*
X013730Y002152D02*
X015073Y002152D01*
X015073Y002094D02*
X013770Y002094D01*
X013770Y002037D02*
X015073Y002037D01*
X015073Y001979D02*
X013770Y001979D01*
X013770Y001922D02*
X015073Y001922D01*
X015073Y001864D02*
X013770Y001864D01*
X013770Y001807D02*
X015073Y001807D01*
X015073Y001749D02*
X013770Y001749D01*
X013413Y001893D02*
X012587Y001893D01*
X012311Y002169D01*
X012307Y002183D01*
X011681Y001755D02*
X011622Y001696D01*
X005165Y001696D01*
X004929Y001932D01*
X004659Y001807D02*
X000680Y001807D01*
X000680Y001864D02*
X004635Y001864D01*
X004631Y001873D02*
X004677Y001764D01*
X004742Y001698D01*
X000680Y001698D01*
X000680Y005051D01*
X000689Y005035D01*
X000709Y005015D01*
X000734Y005001D01*
X000761Y004993D01*
X001238Y004993D01*
X001238Y005367D01*
X001297Y005367D01*
X001297Y004993D01*
X001774Y004993D01*
X001802Y005001D01*
X001826Y005015D01*
X001846Y005035D01*
X001861Y005060D01*
X001868Y005087D01*
X001868Y005367D01*
X001297Y005367D01*
X001297Y005426D01*
X001868Y005426D01*
X001868Y005670D01*
X002321Y005670D01*
X002321Y005426D01*
X002892Y005426D01*
X002892Y005367D01*
X002951Y005367D01*
X002951Y004993D01*
X003428Y004993D01*
X003455Y005001D01*
X003480Y005015D01*
X003500Y005035D01*
X003514Y005060D01*
X003522Y005087D01*
X003522Y005367D01*
X002951Y005367D01*
X002951Y005426D01*
X003522Y005426D01*
X003522Y005706D01*
X003514Y005734D01*
X003500Y005759D01*
X003480Y005779D01*
X003455Y005793D01*
X003428Y005800D01*
X002951Y005800D01*
X002951Y005426D01*
X002892Y005426D01*
X002892Y005800D01*
X002884Y005800D01*
X002884Y006686D01*
X003039Y006686D01*
X003039Y006863D01*
X003059Y006863D01*
X003059Y006686D01*
X003310Y006686D01*
X003337Y006694D01*
X003362Y006708D01*
X003382Y006728D01*
X003384Y006731D01*
X003384Y006548D01*
X003758Y006548D01*
X003758Y006489D01*
X003817Y006489D01*
X003817Y005919D01*
X003837Y005919D01*
X003824Y005889D01*
X003824Y005771D01*
X003843Y005726D01*
X003765Y005648D01*
X003765Y005224D01*
X003859Y005130D01*
X003858Y005129D01*
X003844Y005104D01*
X003837Y005076D01*
X003837Y004954D01*
X004093Y004954D01*
X004093Y004895D01*
X004152Y004895D01*
X004152Y004954D01*
X004604Y004954D01*
X004604Y004895D01*
X004407Y004895D01*
X004152Y004895D01*
X004152Y004678D01*
X004313Y004678D01*
X004341Y004686D01*
X004366Y004700D01*
X004378Y004712D01*
X004390Y004700D01*
X004415Y004686D01*
X004442Y004678D01*
X004604Y004678D01*
X004604Y004895D01*
X004663Y004895D01*
X004663Y004678D01*
X004742Y004678D01*
X003919Y003856D01*
X003877Y003897D01*
X003768Y003943D01*
X003649Y003943D01*
X003634Y003936D01*
X003593Y003976D01*
X003339Y003976D01*
X003390Y004027D01*
X003435Y004137D01*
X003435Y004255D01*
X003390Y004365D01*
X003306Y004448D01*
X003197Y004494D01*
X003079Y004494D01*
X002969Y004448D01*
X002926Y004405D01*
X002294Y004405D01*
X002294Y004408D01*
X002189Y004513D01*
X001725Y004513D01*
X001681Y004470D01*
X001637Y004513D01*
X001174Y004513D01*
X001069Y004408D01*
X001069Y003945D01*
X001132Y003881D01*
X001069Y003818D01*
X001069Y003354D01*
X001174Y003249D01*
X001196Y003249D01*
X001196Y003037D01*
X001154Y003037D01*
X001049Y002932D01*
X001049Y002508D01*
X001093Y002464D01*
X001049Y002420D01*
X001049Y001996D01*
X001154Y001891D01*
X001657Y001891D01*
X001681Y001915D01*
X001705Y001891D01*
X002208Y001891D01*
X002313Y001996D01*
X002313Y001999D01*
X002654Y001999D01*
X002831Y002176D01*
X003189Y002176D01*
X003189Y002117D01*
X002811Y002117D01*
X002811Y001983D01*
X002818Y001955D01*
X002832Y001930D01*
X002852Y001910D01*
X002877Y001896D01*
X002905Y001889D01*
X003189Y001889D01*
X003189Y002117D01*
X003248Y002117D01*
X003248Y001889D01*
X003533Y001889D01*
X003561Y001896D01*
X003585Y001910D01*
X003606Y001930D01*
X003620Y001955D01*
X003627Y001983D01*
X003627Y002117D01*
X003248Y002117D01*
X003248Y002176D01*
X003189Y002176D01*
X003189Y002405D01*
X003060Y002405D01*
X005173Y004519D01*
X005724Y004519D01*
X005783Y004578D01*
X005906Y004700D01*
X005906Y005375D01*
X005973Y005375D01*
X007745Y005375D01*
X007745Y005318D02*
X005906Y005318D01*
X005906Y005260D02*
X007745Y005260D01*
X007745Y005202D02*
X005906Y005202D01*
X005906Y005145D02*
X007745Y005145D01*
X007745Y005087D02*
X005906Y005087D01*
X005906Y005030D02*
X007745Y005030D01*
X007745Y004972D02*
X005906Y004972D01*
X005906Y004915D02*
X007745Y004915D01*
X007745Y004857D02*
X005906Y004857D01*
X005906Y004800D02*
X007745Y004800D01*
X007745Y004752D02*
X007850Y004647D01*
X008549Y004647D01*
X008597Y004696D01*
X009461Y004696D01*
X009505Y004652D01*
X009614Y004607D01*
X009700Y004607D01*
X009736Y004520D01*
X009820Y004436D01*
X009929Y004391D01*
X009996Y004391D01*
X009996Y004277D01*
X009993Y004277D01*
X009980Y004264D01*
X009957Y004287D01*
X009780Y004464D01*
X008842Y004464D01*
X008799Y004507D01*
X008689Y004553D01*
X008571Y004553D01*
X008461Y004507D01*
X008378Y004424D01*
X008332Y004314D01*
X008332Y004196D01*
X008368Y004110D01*
X006496Y004110D01*
X006363Y003976D01*
X005955Y003976D01*
X005874Y003896D01*
X005793Y003976D01*
X005045Y003976D01*
X004939Y003871D01*
X004939Y003422D01*
X005045Y003317D01*
X005793Y003317D01*
X005874Y003398D01*
X005955Y003317D01*
X006703Y003317D01*
X006809Y003422D01*
X006809Y003692D01*
X008050Y003692D01*
X008050Y003422D01*
X008155Y003317D01*
X008903Y003317D01*
X009009Y003422D01*
X009009Y003672D01*
X009383Y003672D01*
X009426Y003629D01*
X009524Y003588D01*
X009417Y003588D01*
X009308Y003543D01*
X009224Y003459D01*
X009179Y003350D01*
X009179Y003231D01*
X009183Y003222D01*
X009108Y003222D01*
X009080Y003214D01*
X009056Y003200D01*
X009035Y003180D01*
X009021Y003155D01*
X009014Y003128D01*
X009014Y002966D01*
X009230Y002966D01*
X009230Y002907D01*
X009014Y002907D01*
X009014Y002745D01*
X009021Y002717D01*
X009022Y002716D01*
X008943Y002637D01*
X008943Y002287D01*
X008937Y002285D01*
X008937Y002311D01*
X008930Y002339D01*
X008916Y002363D01*
X008896Y002383D01*
X008871Y002398D01*
X008843Y002405D01*
X008559Y002405D01*
X008559Y002176D01*
X008500Y002176D01*
X008500Y002117D01*
X008121Y002117D01*
X008121Y001983D01*
X008128Y001955D01*
X008142Y001930D01*
X008163Y001910D01*
X008171Y001905D01*
X006687Y001905D01*
X006696Y001910D01*
X006716Y001930D01*
X006730Y001955D01*
X006737Y001983D01*
X006737Y002117D01*
X006359Y002117D01*
X006359Y002176D01*
X006737Y002176D01*
X006737Y002311D01*
X006730Y002339D01*
X006716Y002363D01*
X006696Y002383D01*
X006671Y002398D01*
X006643Y002405D01*
X006359Y002405D01*
X006359Y002176D01*
X006300Y002176D01*
X006300Y002117D01*
X005921Y002117D01*
X005921Y001983D01*
X005928Y001955D01*
X005942Y001930D01*
X005963Y001910D01*
X005971Y001905D01*
X005777Y001905D01*
X005785Y001910D01*
X005806Y001930D01*
X005820Y001955D01*
X005827Y001983D01*
X005827Y002117D01*
X005448Y002117D01*
X005448Y002176D01*
X005389Y002176D01*
X005389Y002405D01*
X005105Y002405D01*
X005077Y002398D01*
X005052Y002383D01*
X005032Y002363D01*
X005018Y002339D01*
X005011Y002311D01*
X005011Y002221D01*
X004988Y002230D01*
X004870Y002230D01*
X004761Y002185D01*
X004677Y002101D01*
X004631Y001991D01*
X004631Y001873D01*
X004631Y001922D02*
X003597Y001922D01*
X003626Y001979D02*
X004631Y001979D01*
X004650Y002037D02*
X003627Y002037D01*
X003627Y002094D02*
X004674Y002094D01*
X004728Y002152D02*
X003248Y002152D01*
X003236Y002149D02*
X003219Y002147D01*
X003197Y002129D01*
X003039Y001972D01*
X001189Y001972D01*
X001130Y002031D01*
X001130Y004354D01*
X001248Y004472D01*
X001248Y005377D01*
X001268Y005397D01*
X002921Y005397D01*
X002941Y005417D01*
X003965Y006440D01*
X003787Y006519D01*
X003787Y006558D01*
X003787Y008251D01*
X003768Y008271D01*
X003758Y008281D02*
X003758Y008222D01*
X003384Y008222D01*
X003384Y008141D01*
X003370Y008155D01*
X003289Y008155D01*
X003289Y008536D01*
X003384Y008631D01*
X003384Y008281D01*
X003758Y008281D01*
X003758Y008253D02*
X003289Y008253D01*
X003289Y008310D02*
X003384Y008310D01*
X003384Y008368D02*
X003289Y008368D01*
X003289Y008426D02*
X003384Y008426D01*
X003384Y008483D02*
X003289Y008483D01*
X003294Y008541D02*
X003384Y008541D01*
X003384Y008598D02*
X003351Y008598D01*
X003019Y008944D02*
X002884Y008944D01*
X002884Y008970D02*
X002884Y008809D01*
X003045Y008970D01*
X002951Y008970D01*
X002951Y009344D01*
X002951Y009403D01*
X003522Y009403D01*
X003522Y009683D01*
X003514Y009710D01*
X003500Y009735D01*
X003490Y009745D01*
X003551Y009745D01*
X003661Y009790D01*
X003677Y009806D01*
X003677Y009778D01*
X003618Y009719D01*
X003572Y009610D01*
X003572Y009491D01*
X003618Y009382D01*
X003701Y009298D01*
X003811Y009253D01*
X003929Y009253D01*
X004039Y009298D01*
X004119Y009378D01*
X004119Y009256D01*
X004023Y009160D01*
X003522Y009160D01*
X003522Y009344D01*
X002951Y009344D01*
X002892Y009344D01*
X002321Y009344D01*
X002321Y009100D01*
X001868Y009100D01*
X001868Y009344D01*
X001297Y009344D01*
X001297Y009403D01*
X001238Y009403D01*
X001238Y009777D01*
X000761Y009777D01*
X000734Y009769D01*
X000709Y009755D01*
X000689Y009735D01*
X000680Y009719D01*
X000680Y013544D01*
X000864Y013544D01*
X000864Y013123D01*
X001140Y013123D01*
X001140Y013064D01*
X001199Y013064D01*
X001199Y013123D01*
X001474Y013123D01*
X001474Y013544D01*
X003738Y013544D01*
X003738Y013123D01*
X004014Y013123D01*
X004014Y013064D01*
X004073Y013064D01*
X004073Y013123D01*
X004348Y013123D01*
X004348Y013544D01*
X005025Y013544D01*
X004956Y013476D01*
X004956Y013476D01*
X004948Y013468D01*
X004716Y013468D01*
X004610Y013362D01*
X004610Y013054D01*
X004702Y012962D01*
X004689Y012940D01*
X004682Y012912D01*
X004682Y012829D01*
X004920Y012829D01*
X004920Y012808D01*
X004682Y012808D01*
X004682Y012724D01*
X004689Y012696D01*
X004702Y012674D01*
X004610Y012582D01*
X004610Y012274D01*
X004716Y012169D01*
X005144Y012169D01*
X005216Y012240D01*
X005470Y012240D01*
X005470Y012789D01*
X005178Y012789D01*
X005178Y012808D01*
X004940Y012808D01*
X004940Y012829D01*
X005178Y012829D01*
X005178Y012848D01*
X005470Y012848D01*
X005470Y012789D01*
X005530Y012789D01*
X005530Y012240D01*
X005784Y012240D01*
X005794Y012230D01*
X005622Y012230D01*
X005528Y012136D01*
X005527Y012137D01*
X005502Y012151D01*
X005475Y012159D01*
X005352Y012159D01*
X005352Y011903D01*
X005293Y011903D01*
X005293Y011844D01*
X005077Y011844D01*
X005077Y011682D01*
X005084Y011654D01*
X005098Y011630D01*
X005119Y011609D01*
X005143Y011595D01*
X005171Y011588D01*
X005293Y011588D01*
X005293Y011844D01*
X005352Y011844D01*
X005352Y011588D01*
X005475Y011588D01*
X005502Y011595D01*
X005527Y011609D01*
X005528Y011611D01*
X005622Y011517D01*
X006047Y011517D01*
X006152Y011622D01*
X006152Y011664D01*
X006610Y011664D01*
X006689Y011743D01*
X006789Y011843D01*
X006807Y011826D01*
X006929Y011704D01*
X007559Y011704D01*
X007683Y011580D01*
X007683Y011307D01*
X007788Y011202D01*
X007958Y011202D01*
X007958Y011184D01*
X008004Y011075D01*
X008087Y010991D01*
X008128Y010974D01*
X008128Y010170D01*
X008499Y010170D01*
X008474Y010111D01*
X008128Y010111D01*
X008128Y010170D01*
X008069Y010170D01*
X008068Y010170D02*
X008068Y010111D01*
X008069Y010111D02*
X008128Y010111D01*
X008128Y009283D01*
X008487Y009283D01*
X008515Y009290D01*
X008540Y009304D01*
X008560Y009324D01*
X008574Y009349D01*
X008581Y009377D01*
X008581Y009808D01*
X008599Y009790D01*
X008709Y009745D01*
X008827Y009745D01*
X008936Y009790D01*
X008978Y009832D01*
X009246Y009832D01*
X009267Y009811D01*
X009267Y009741D01*
X009257Y009741D01*
X009152Y009636D01*
X009152Y009137D01*
X009174Y009115D01*
X009159Y009078D01*
X009159Y008960D01*
X009204Y008850D01*
X009246Y008809D01*
X009242Y008805D01*
X009181Y008805D01*
X009072Y008759D01*
X008988Y008676D01*
X008943Y008566D01*
X008943Y008448D01*
X008988Y008338D01*
X009072Y008255D01*
X009130Y008231D01*
X009130Y006236D01*
X008987Y006379D01*
X008987Y006440D01*
X008941Y006550D01*
X008858Y006633D01*
X008748Y006679D01*
X008654Y006679D01*
X008654Y008365D01*
X008549Y008470D01*
X007850Y008470D01*
X007745Y008365D01*
X007745Y006543D01*
X007816Y006472D01*
X007816Y006435D01*
X008194Y006435D01*
X008194Y006426D01*
X007816Y006426D01*
X007816Y006389D01*
X007745Y006317D01*
X007745Y005882D01*
X006125Y005882D01*
X006082Y005925D01*
X005973Y005970D01*
X005906Y005970D01*
X005906Y006369D01*
X005775Y006500D01*
X005775Y006573D01*
X005704Y006644D01*
X005704Y006682D01*
X005325Y006682D01*
X005325Y006691D01*
X005704Y006691D01*
X005704Y006728D01*
X005775Y006799D01*
X005775Y007341D01*
X005704Y007412D01*
X005704Y007449D01*
X005325Y007449D01*
X005325Y007459D01*
X005704Y007459D01*
X005704Y007496D01*
X005775Y007567D01*
X005775Y008365D01*
X005670Y008470D01*
X004971Y008470D01*
X004866Y008365D01*
X004866Y008352D01*
X004791Y008352D01*
X004682Y008307D01*
X004598Y008223D01*
X004598Y008222D01*
X004598Y008689D01*
X004614Y008682D01*
X004732Y008682D01*
X004842Y008727D01*
X004926Y008811D01*
X004971Y008920D01*
X004971Y008977D01*
X005043Y008977D01*
X005103Y009038D01*
X005103Y008907D01*
X005209Y008801D01*
X006107Y008801D01*
X006212Y008907D01*
X006212Y009555D01*
X006107Y009660D01*
X005209Y009660D01*
X005103Y009555D01*
X005103Y009551D01*
X005054Y009601D01*
X005055Y009602D01*
X005069Y009627D01*
X005077Y009654D01*
X005077Y009777D01*
X004821Y009777D01*
X004821Y009836D01*
X004762Y009836D01*
X004762Y010052D01*
X004600Y010052D01*
X004598Y010052D01*
X004598Y010269D01*
X004600Y010269D01*
X004762Y010269D01*
X004762Y010485D01*
X004821Y010485D01*
X004821Y010269D01*
X004983Y010269D01*
X005010Y010276D01*
X005035Y010291D01*
X005055Y010311D01*
X005069Y010335D01*
X005077Y010363D01*
X005077Y010485D01*
X004821Y010485D01*
X004821Y010544D01*
X005077Y010544D01*
X005077Y010667D01*
X005069Y010695D01*
X005055Y010719D01*
X005054Y010720D01*
X005103Y010770D01*
X005103Y010727D01*
X005209Y010621D01*
X006107Y010621D01*
X006212Y010727D01*
X006212Y011375D01*
X006107Y011480D01*
X005209Y011480D01*
X005103Y011375D01*
X005103Y011284D01*
X005043Y011344D01*
X004540Y011344D01*
X004435Y011239D01*
X004435Y011177D01*
X004432Y011175D01*
X004379Y011068D01*
X004376Y011029D01*
X004155Y010808D01*
X004119Y010720D01*
X004119Y009723D01*
X004095Y009747D01*
X004095Y010385D01*
X003972Y010507D01*
X003622Y010857D01*
X003622Y011832D01*
X003704Y011832D01*
X003809Y011937D01*
X003809Y012401D01*
X003832Y012395D01*
X004014Y012395D01*
X004014Y013064D01*
X003738Y013064D01*
X003738Y012747D01*
X003704Y012781D01*
X003515Y012781D01*
X003516Y012782D01*
X003573Y012920D01*
X003573Y013070D01*
X003516Y013208D01*
X003410Y013314D01*
X003272Y013372D01*
X003122Y013372D01*
X002984Y013314D01*
X002878Y013208D01*
X002820Y013070D01*
X002820Y012920D01*
X002878Y012782D01*
X002984Y012676D01*
X003122Y012619D01*
X003175Y012619D01*
X003175Y011937D01*
X003204Y011907D01*
X003204Y010684D01*
X003548Y010340D01*
X003433Y010340D01*
X003324Y010295D01*
X003280Y010252D01*
X003205Y010252D01*
X002520Y010936D01*
X002520Y011832D01*
X002523Y011832D01*
X002628Y011937D01*
X002628Y012676D01*
X002523Y012781D01*
X002334Y012781D01*
X002335Y012782D01*
X002392Y012920D01*
X002392Y013070D01*
X002335Y013208D01*
X002229Y013314D01*
X002091Y013372D01*
X001941Y013372D01*
X001803Y013314D01*
X001697Y013208D01*
X001639Y013070D01*
X001639Y012920D01*
X001697Y012782D01*
X001698Y012781D01*
X001508Y012781D01*
X001474Y012747D01*
X001474Y013064D01*
X001199Y013064D01*
X001199Y012395D01*
X001380Y012395D01*
X001403Y012401D01*
X001403Y011937D01*
X001508Y011832D01*
X001511Y011832D01*
X001511Y010333D01*
X001468Y010290D01*
X001423Y010180D01*
X001423Y010062D01*
X001468Y009953D01*
X001552Y009869D01*
X001661Y009824D01*
X001780Y009824D01*
X001889Y009869D01*
X001973Y009953D01*
X002018Y010062D01*
X002018Y010180D01*
X001973Y010290D01*
X001930Y010333D01*
X001930Y011832D01*
X001933Y011832D01*
X002016Y011915D01*
X002099Y011832D01*
X002102Y011832D01*
X002102Y010763D01*
X002224Y010641D01*
X003032Y009833D01*
X003280Y009833D01*
X003324Y009790D01*
X003356Y009777D01*
X002951Y009777D01*
X002951Y009403D01*
X002892Y009403D01*
X002892Y009777D01*
X002415Y009777D01*
X002387Y009769D01*
X002363Y009755D01*
X002342Y009735D01*
X002328Y009710D01*
X002321Y009683D01*
X002321Y009403D01*
X002892Y009403D01*
X002892Y009344D01*
X002892Y008970D01*
X002884Y008970D01*
X002892Y009001D02*
X002951Y009001D01*
X002951Y009059D02*
X002892Y009059D01*
X002892Y009116D02*
X002951Y009116D01*
X002951Y009174D02*
X002892Y009174D01*
X002892Y009231D02*
X002951Y009231D01*
X002951Y009289D02*
X002892Y009289D01*
X002892Y009346D02*
X001297Y009346D01*
X001268Y009373D02*
X002921Y009373D01*
X002941Y009354D01*
X002951Y009346D02*
X003653Y009346D01*
X003609Y009404D02*
X003522Y009404D01*
X003522Y009462D02*
X003585Y009462D01*
X003572Y009519D02*
X003522Y009519D01*
X003522Y009577D02*
X003572Y009577D01*
X003583Y009634D02*
X003522Y009634D01*
X003519Y009692D02*
X003606Y009692D01*
X003648Y009749D02*
X003562Y009749D01*
X003307Y009807D02*
X000680Y009807D01*
X000680Y009864D02*
X001563Y009864D01*
X001499Y009922D02*
X000680Y009922D01*
X000680Y009980D02*
X001457Y009980D01*
X001433Y010037D02*
X000680Y010037D01*
X000680Y010095D02*
X001423Y010095D01*
X001423Y010152D02*
X000680Y010152D01*
X000680Y010210D02*
X001435Y010210D01*
X001459Y010267D02*
X000680Y010267D01*
X000680Y010325D02*
X001503Y010325D01*
X001511Y010382D02*
X000680Y010382D01*
X000680Y010440D02*
X001511Y010440D01*
X001511Y010498D02*
X000680Y010498D01*
X000680Y010555D02*
X001511Y010555D01*
X001511Y010613D02*
X000680Y010613D01*
X000680Y010670D02*
X001511Y010670D01*
X001511Y010728D02*
X000680Y010728D01*
X000680Y010785D02*
X001511Y010785D01*
X001511Y010843D02*
X000680Y010843D01*
X000680Y010900D02*
X001511Y010900D01*
X001511Y010958D02*
X000680Y010958D01*
X000680Y011016D02*
X001511Y011016D01*
X001511Y011073D02*
X000680Y011073D01*
X000680Y011131D02*
X001511Y011131D01*
X001511Y011188D02*
X000680Y011188D01*
X000680Y011246D02*
X001511Y011246D01*
X001511Y011303D02*
X000680Y011303D01*
X000680Y011361D02*
X001511Y011361D01*
X001511Y011418D02*
X000680Y011418D01*
X000680Y011476D02*
X001511Y011476D01*
X001511Y011534D02*
X000680Y011534D01*
X000680Y011591D02*
X001511Y011591D01*
X001511Y011649D02*
X000680Y011649D01*
X000680Y011706D02*
X001511Y011706D01*
X001511Y011764D02*
X000680Y011764D01*
X000680Y011821D02*
X001511Y011821D01*
X001461Y011879D02*
X000680Y011879D01*
X000680Y011936D02*
X001403Y011936D01*
X001403Y011994D02*
X000680Y011994D01*
X000680Y012052D02*
X001403Y012052D01*
X001403Y012109D02*
X000680Y012109D01*
X000680Y012167D02*
X001403Y012167D01*
X001403Y012224D02*
X000680Y012224D01*
X000680Y012282D02*
X001403Y012282D01*
X001403Y012339D02*
X000680Y012339D01*
X000680Y012397D02*
X000951Y012397D01*
X000958Y012395D02*
X000931Y012402D01*
X000906Y012417D01*
X000886Y012437D01*
X000872Y012461D01*
X000864Y012489D01*
X000864Y013064D01*
X001140Y013064D01*
X001140Y012395D01*
X000958Y012395D01*
X000876Y012454D02*
X000680Y012454D01*
X000680Y012512D02*
X000864Y012512D01*
X000864Y012570D02*
X000680Y012570D01*
X000680Y012627D02*
X000864Y012627D01*
X000864Y012685D02*
X000680Y012685D01*
X000680Y012742D02*
X000864Y012742D01*
X000864Y012800D02*
X000680Y012800D01*
X000680Y012857D02*
X000864Y012857D01*
X000864Y012915D02*
X000680Y012915D01*
X000680Y012972D02*
X000864Y012972D01*
X000864Y013030D02*
X000680Y013030D01*
X000680Y013088D02*
X001140Y013088D01*
X001140Y013030D02*
X001199Y013030D01*
X001199Y013088D02*
X001647Y013088D01*
X001639Y013030D02*
X001474Y013030D01*
X001474Y012972D02*
X001639Y012972D01*
X001642Y012915D02*
X001474Y012915D01*
X001474Y012857D02*
X001666Y012857D01*
X001689Y012800D02*
X001474Y012800D01*
X001199Y012800D02*
X001140Y012800D01*
X001140Y012857D02*
X001199Y012857D01*
X001199Y012915D02*
X001140Y012915D01*
X001140Y012972D02*
X001199Y012972D01*
X001199Y012742D02*
X001140Y012742D01*
X001140Y012685D02*
X001199Y012685D01*
X001199Y012627D02*
X001140Y012627D01*
X001140Y012570D02*
X001199Y012570D01*
X001199Y012512D02*
X001140Y012512D01*
X001140Y012454D02*
X001199Y012454D01*
X001199Y012397D02*
X001140Y012397D01*
X001388Y012397D02*
X001403Y012397D01*
X001720Y012306D02*
X001720Y010121D01*
X001942Y009922D02*
X002943Y009922D01*
X002885Y009980D02*
X001984Y009980D01*
X002008Y010037D02*
X002828Y010037D01*
X002770Y010095D02*
X002018Y010095D01*
X002018Y010152D02*
X002713Y010152D01*
X002655Y010210D02*
X002006Y010210D01*
X001982Y010267D02*
X002598Y010267D01*
X002540Y010325D02*
X001938Y010325D01*
X001930Y010382D02*
X002483Y010382D01*
X002425Y010440D02*
X001930Y010440D01*
X001930Y010498D02*
X002367Y010498D01*
X002310Y010555D02*
X001930Y010555D01*
X001930Y010613D02*
X002252Y010613D01*
X002195Y010670D02*
X001930Y010670D01*
X001930Y010728D02*
X002137Y010728D01*
X002102Y010785D02*
X001930Y010785D01*
X001930Y010843D02*
X002102Y010843D01*
X002102Y010900D02*
X001930Y010900D01*
X001930Y010958D02*
X002102Y010958D01*
X002102Y011016D02*
X001930Y011016D01*
X001930Y011073D02*
X002102Y011073D01*
X002102Y011131D02*
X001930Y011131D01*
X001930Y011188D02*
X002102Y011188D01*
X002102Y011246D02*
X001930Y011246D01*
X001930Y011303D02*
X002102Y011303D01*
X002102Y011361D02*
X001930Y011361D01*
X001930Y011418D02*
X002102Y011418D01*
X002102Y011476D02*
X001930Y011476D01*
X001930Y011534D02*
X002102Y011534D01*
X002102Y011591D02*
X001930Y011591D01*
X001930Y011649D02*
X002102Y011649D01*
X002102Y011706D02*
X001930Y011706D01*
X001930Y011764D02*
X002102Y011764D01*
X002102Y011821D02*
X001930Y011821D01*
X001980Y011879D02*
X002051Y011879D01*
X002520Y011821D02*
X003204Y011821D01*
X003204Y011764D02*
X002520Y011764D01*
X002520Y011706D02*
X003204Y011706D01*
X003204Y011649D02*
X002520Y011649D01*
X002520Y011591D02*
X003204Y011591D01*
X003204Y011534D02*
X002520Y011534D01*
X002520Y011476D02*
X003204Y011476D01*
X003204Y011418D02*
X002520Y011418D01*
X002520Y011361D02*
X003204Y011361D01*
X003204Y011303D02*
X002520Y011303D01*
X002520Y011246D02*
X003204Y011246D01*
X003204Y011188D02*
X002520Y011188D01*
X002520Y011131D02*
X003204Y011131D01*
X003204Y011073D02*
X002520Y011073D01*
X002520Y011016D02*
X003204Y011016D01*
X003204Y010958D02*
X002520Y010958D01*
X002556Y010900D02*
X003204Y010900D01*
X003204Y010843D02*
X002613Y010843D01*
X002671Y010785D02*
X003204Y010785D01*
X003204Y010728D02*
X002729Y010728D01*
X002786Y010670D02*
X003218Y010670D01*
X003276Y010613D02*
X002844Y010613D01*
X002901Y010555D02*
X003334Y010555D01*
X003391Y010498D02*
X002959Y010498D01*
X003016Y010440D02*
X003449Y010440D01*
X003506Y010382D02*
X003074Y010382D01*
X003131Y010325D02*
X003396Y010325D01*
X003296Y010267D02*
X003189Y010267D01*
X003118Y010043D02*
X002311Y010850D01*
X002311Y012306D01*
X002272Y012346D01*
X002628Y012339D02*
X003175Y012339D01*
X003175Y012282D02*
X002628Y012282D01*
X002628Y012224D02*
X003175Y012224D01*
X003175Y012167D02*
X002628Y012167D01*
X002628Y012109D02*
X003175Y012109D01*
X003175Y012052D02*
X002628Y012052D01*
X002628Y011994D02*
X003175Y011994D01*
X003175Y011936D02*
X002628Y011936D01*
X002571Y011879D02*
X003204Y011879D01*
X003413Y012228D02*
X003413Y010771D01*
X003886Y010298D01*
X003886Y009566D01*
X003870Y009550D01*
X004087Y009346D02*
X004119Y009346D01*
X004119Y009289D02*
X004016Y009289D01*
X004094Y009231D02*
X003522Y009231D01*
X003522Y009174D02*
X004037Y009174D01*
X003724Y009289D02*
X003522Y009289D01*
X002951Y009404D02*
X002892Y009404D01*
X002892Y009462D02*
X002951Y009462D01*
X002951Y009519D02*
X002892Y009519D01*
X002892Y009577D02*
X002951Y009577D01*
X002951Y009634D02*
X002892Y009634D01*
X002892Y009692D02*
X002951Y009692D01*
X002951Y009749D02*
X002892Y009749D01*
X003001Y009864D02*
X001878Y009864D01*
X001826Y009755D02*
X001802Y009769D01*
X001774Y009777D01*
X001297Y009777D01*
X001297Y009403D01*
X001868Y009403D01*
X001868Y009683D01*
X001861Y009710D01*
X001846Y009735D01*
X001826Y009755D01*
X001832Y009749D02*
X002357Y009749D01*
X002323Y009692D02*
X001866Y009692D01*
X001868Y009634D02*
X002321Y009634D01*
X002321Y009577D02*
X001868Y009577D01*
X001868Y009519D02*
X002321Y009519D01*
X002321Y009462D02*
X001868Y009462D01*
X001868Y009404D02*
X002321Y009404D01*
X002321Y009289D02*
X001868Y009289D01*
X001868Y009231D02*
X002321Y009231D01*
X002321Y009174D02*
X001868Y009174D01*
X001868Y009116D02*
X002321Y009116D01*
X002884Y008886D02*
X002961Y008886D01*
X002904Y008828D02*
X002884Y008828D01*
X003289Y008195D02*
X003384Y008195D01*
X003512Y007641D02*
X003059Y007641D01*
X003049Y007641D01*
X003059Y007385D02*
X003049Y007385D01*
X003059Y007385D02*
X003374Y007385D01*
X003472Y007287D01*
X003770Y007274D02*
X003903Y007274D01*
X003883Y007228D02*
X003929Y007337D01*
X004013Y007421D01*
X004119Y007465D01*
X004119Y007657D01*
X004097Y007651D01*
X003864Y007651D01*
X003869Y007641D01*
X003869Y007523D01*
X003823Y007413D01*
X003766Y007356D01*
X003770Y007346D01*
X003770Y007227D01*
X003725Y007119D01*
X003758Y007119D01*
X003758Y006548D01*
X003817Y006548D01*
X004191Y006548D01*
X004191Y006871D01*
X004198Y006871D01*
X004198Y006760D01*
X004293Y006665D01*
X004291Y006664D01*
X004277Y006639D01*
X004270Y006612D01*
X004270Y006489D01*
X004526Y006489D01*
X004526Y006430D01*
X004585Y006430D01*
X004585Y006489D01*
X004841Y006489D01*
X004841Y006612D01*
X004833Y006639D01*
X004819Y006664D01*
X004818Y006665D01*
X004855Y006703D01*
X004937Y006703D01*
X004937Y006691D01*
X005316Y006691D01*
X005316Y006682D01*
X004937Y006682D01*
X004937Y006644D01*
X004866Y006573D01*
X004866Y006374D01*
X004841Y006374D01*
X004841Y006430D01*
X004585Y006430D01*
X004585Y006234D01*
X004557Y006206D01*
X004496Y006206D01*
X004387Y006161D01*
X004303Y006077D01*
X004301Y006072D01*
X004291Y006082D01*
X004191Y006124D01*
X004191Y006489D01*
X003817Y006489D01*
X003817Y006548D01*
X003817Y007119D01*
X003883Y007119D01*
X003883Y007228D01*
X003883Y007217D02*
X003766Y007217D01*
X003742Y007159D02*
X003883Y007159D01*
X003817Y007102D02*
X003758Y007102D01*
X003758Y007044D02*
X003817Y007044D01*
X003817Y006987D02*
X003758Y006987D01*
X003758Y006929D02*
X003817Y006929D01*
X003817Y006872D02*
X003758Y006872D01*
X003758Y006814D02*
X003817Y006814D01*
X003817Y006756D02*
X003758Y006756D01*
X003758Y006699D02*
X003817Y006699D01*
X003817Y006641D02*
X003758Y006641D01*
X003758Y006584D02*
X003817Y006584D01*
X003817Y006526D02*
X004270Y006526D01*
X004270Y006584D02*
X004191Y006584D01*
X004191Y006641D02*
X004278Y006641D01*
X004259Y006699D02*
X004191Y006699D01*
X004191Y006756D02*
X004201Y006756D01*
X004191Y006814D02*
X004198Y006814D01*
X003846Y006460D02*
X003787Y006519D01*
X003768Y006539D01*
X003433Y006873D01*
X003059Y006873D01*
X003049Y006873D01*
X003039Y006814D02*
X003059Y006814D01*
X003059Y006756D02*
X003039Y006756D01*
X003039Y006699D02*
X003059Y006699D01*
X002884Y006641D02*
X003384Y006641D01*
X003384Y006584D02*
X002884Y006584D01*
X002884Y006526D02*
X003758Y006526D01*
X003758Y006489D02*
X003384Y006489D01*
X003384Y006013D01*
X003391Y005985D01*
X003405Y005960D01*
X003426Y005940D01*
X003450Y005926D01*
X003478Y005919D01*
X003758Y005919D01*
X003758Y006489D01*
X003758Y006469D02*
X003817Y006469D01*
X003846Y006460D02*
X004555Y006460D01*
X004575Y006480D01*
X004772Y006676D01*
X005303Y006676D01*
X005320Y006686D01*
X005343Y006696D01*
X005559Y006696D01*
X005697Y006834D01*
X005717Y006814D01*
X006091Y006440D01*
X008197Y006440D01*
X008199Y006430D01*
X007816Y006411D02*
X005864Y006411D01*
X005906Y006354D02*
X007781Y006354D01*
X007745Y006296D02*
X005906Y006296D01*
X005906Y006238D02*
X007745Y006238D01*
X007745Y006181D02*
X005906Y006181D01*
X005906Y006123D02*
X007745Y006123D01*
X007745Y006066D02*
X005906Y006066D01*
X005906Y006008D02*
X007745Y006008D01*
X007745Y005951D02*
X006019Y005951D01*
X006114Y005893D02*
X007745Y005893D01*
X007745Y005463D02*
X007745Y004752D01*
X007755Y004742D02*
X005906Y004742D01*
X005890Y004684D02*
X007812Y004684D01*
X008199Y004895D02*
X008217Y004905D01*
X009673Y004905D01*
X009566Y004627D02*
X005833Y004627D01*
X005775Y004569D02*
X009715Y004569D01*
X009744Y004512D02*
X008788Y004512D01*
X008586Y004684D02*
X009473Y004684D01*
X009789Y004454D02*
X009801Y004454D01*
X009847Y004397D02*
X009914Y004397D01*
X009905Y004339D02*
X009996Y004339D01*
X009996Y004282D02*
X009962Y004282D01*
X009870Y004078D02*
X009890Y004058D01*
X009890Y003881D01*
X009890Y003665D01*
X009555Y003507D02*
X009398Y003507D01*
X009260Y003369D01*
X009260Y002956D01*
X009260Y002936D01*
X009260Y002877D01*
X008531Y002149D01*
X008529Y002147D01*
X008512Y002149D01*
X006346Y002149D01*
X006329Y002147D01*
X006327Y002149D01*
X005441Y002149D01*
X005419Y002147D01*
X005402Y002149D01*
X003236Y002149D01*
X003248Y002176D02*
X003627Y002176D01*
X003627Y002311D01*
X003620Y002339D01*
X003606Y002363D01*
X003585Y002383D01*
X003561Y002398D01*
X003533Y002405D01*
X003248Y002405D01*
X003248Y002176D01*
X003248Y002210D02*
X003189Y002210D01*
X003189Y002267D02*
X003248Y002267D01*
X003248Y002325D02*
X003189Y002325D01*
X003189Y002382D02*
X003248Y002382D01*
X003152Y002497D02*
X008943Y002497D01*
X008943Y002440D02*
X003094Y002440D01*
X003210Y002555D02*
X008943Y002555D01*
X008943Y002612D02*
X003267Y002612D01*
X003325Y002670D02*
X008976Y002670D01*
X009018Y002728D02*
X003382Y002728D01*
X003440Y002785D02*
X009014Y002785D01*
X009014Y002843D02*
X003497Y002843D01*
X003555Y002900D02*
X009014Y002900D01*
X009014Y003015D02*
X003670Y003015D01*
X003612Y002958D02*
X009230Y002958D01*
X009230Y002907D02*
X009230Y002742D01*
X009289Y002742D01*
X009289Y002907D01*
X009230Y002907D01*
X009230Y002900D02*
X009289Y002900D01*
X009289Y002843D02*
X009230Y002843D01*
X009230Y002785D02*
X009289Y002785D01*
X009014Y003073D02*
X003728Y003073D01*
X003785Y003130D02*
X009015Y003130D01*
X009044Y003188D02*
X003843Y003188D01*
X003900Y003246D02*
X009179Y003246D01*
X009179Y003303D02*
X003958Y003303D01*
X004015Y003361D02*
X005001Y003361D01*
X004944Y003418D02*
X004073Y003418D01*
X004130Y003476D02*
X004939Y003476D01*
X004939Y003533D02*
X004188Y003533D01*
X004246Y003591D02*
X004939Y003591D01*
X004939Y003648D02*
X004303Y003648D01*
X004361Y003706D02*
X004939Y003706D01*
X004939Y003764D02*
X004418Y003764D01*
X004476Y003821D02*
X004939Y003821D01*
X004947Y003879D02*
X004533Y003879D01*
X004591Y003936D02*
X005004Y003936D01*
X004821Y004166D02*
X008344Y004166D01*
X008332Y004224D02*
X004879Y004224D01*
X004936Y004282D02*
X008332Y004282D01*
X008343Y004339D02*
X004994Y004339D01*
X005051Y004397D02*
X008366Y004397D01*
X008408Y004454D02*
X005109Y004454D01*
X005166Y004512D02*
X008472Y004512D01*
X008630Y004255D02*
X008886Y004255D01*
X009693Y004255D01*
X009870Y004078D01*
X009594Y003881D02*
X008886Y003881D01*
X008866Y003901D01*
X006583Y003901D01*
X006346Y003665D01*
X006329Y003647D01*
X006809Y003648D02*
X008050Y003648D01*
X008050Y003591D02*
X006809Y003591D01*
X006809Y003533D02*
X008050Y003533D01*
X008050Y003476D02*
X006809Y003476D01*
X006804Y003418D02*
X008054Y003418D01*
X008111Y003361D02*
X006747Y003361D01*
X006380Y003994D02*
X004648Y003994D01*
X004706Y004051D02*
X006438Y004051D01*
X006495Y004109D02*
X004764Y004109D01*
X004460Y004397D02*
X003358Y004397D01*
X003401Y004339D02*
X004403Y004339D01*
X004345Y004282D02*
X003425Y004282D01*
X003435Y004224D02*
X004287Y004224D01*
X004230Y004166D02*
X003435Y004166D01*
X003424Y004109D02*
X004172Y004109D01*
X004115Y004051D02*
X003400Y004051D01*
X003356Y003994D02*
X004057Y003994D01*
X004000Y003936D02*
X003783Y003936D01*
X003896Y003879D02*
X003942Y003879D01*
X003634Y003936D02*
X003633Y003936D01*
X003709Y003645D02*
X003236Y003645D01*
X003219Y003647D01*
X002921Y003232D02*
X002173Y002483D01*
X001780Y002483D01*
X001504Y002208D01*
X001406Y002208D01*
X001049Y002210D02*
X000680Y002210D01*
X000680Y002267D02*
X001049Y002267D01*
X001049Y002325D02*
X000680Y002325D01*
X000680Y002382D02*
X001049Y002382D01*
X001069Y002440D02*
X000680Y002440D01*
X000680Y002497D02*
X001059Y002497D01*
X001049Y002555D02*
X000680Y002555D01*
X000680Y002612D02*
X001049Y002612D01*
X001049Y002670D02*
X000680Y002670D01*
X000680Y002728D02*
X001049Y002728D01*
X001049Y002785D02*
X000680Y002785D01*
X000680Y002843D02*
X001049Y002843D01*
X001049Y002900D02*
X000680Y002900D01*
X000680Y002958D02*
X001075Y002958D01*
X001132Y003015D02*
X000680Y003015D01*
X000680Y003073D02*
X001196Y003073D01*
X001196Y003130D02*
X000680Y003130D01*
X000680Y003188D02*
X001196Y003188D01*
X001196Y003246D02*
X000680Y003246D01*
X000680Y003303D02*
X001119Y003303D01*
X001069Y003361D02*
X000680Y003361D01*
X000680Y003418D02*
X001069Y003418D01*
X001069Y003476D02*
X000680Y003476D01*
X000680Y003533D02*
X001069Y003533D01*
X001069Y003591D02*
X000680Y003591D01*
X000680Y003648D02*
X001069Y003648D01*
X001069Y003706D02*
X000680Y003706D01*
X000680Y003764D02*
X001069Y003764D01*
X001072Y003821D02*
X000680Y003821D01*
X000680Y003879D02*
X001130Y003879D01*
X001077Y003936D02*
X000680Y003936D01*
X000680Y003994D02*
X001069Y003994D01*
X001069Y004051D02*
X000680Y004051D01*
X000680Y004109D02*
X001069Y004109D01*
X001069Y004166D02*
X000680Y004166D01*
X000680Y004224D02*
X001069Y004224D01*
X001069Y004282D02*
X000680Y004282D01*
X000680Y004339D02*
X001069Y004339D01*
X001069Y004397D02*
X000680Y004397D01*
X000680Y004454D02*
X001115Y004454D01*
X001172Y004512D02*
X000680Y004512D01*
X000680Y004569D02*
X004633Y004569D01*
X004575Y004512D02*
X002190Y004512D01*
X002248Y004454D02*
X002983Y004454D01*
X003138Y004196D02*
X001976Y004196D01*
X001957Y004176D01*
X001406Y004176D01*
X001639Y004512D02*
X001723Y004512D01*
X002342Y005035D02*
X002363Y005015D01*
X002387Y005001D01*
X002415Y004993D01*
X002892Y004993D01*
X002892Y005367D01*
X002321Y005367D01*
X002321Y005087D01*
X002328Y005060D01*
X002342Y005035D01*
X002348Y005030D02*
X001841Y005030D01*
X001868Y005087D02*
X002321Y005087D01*
X002321Y005145D02*
X001868Y005145D01*
X001868Y005202D02*
X002321Y005202D01*
X002321Y005260D02*
X001868Y005260D01*
X001868Y005318D02*
X002321Y005318D01*
X002321Y005433D02*
X001868Y005433D01*
X001868Y005490D02*
X002321Y005490D01*
X002321Y005548D02*
X001868Y005548D01*
X001868Y005605D02*
X002321Y005605D01*
X002321Y005663D02*
X001868Y005663D01*
X001297Y005375D02*
X002892Y005375D01*
X002921Y005397D02*
X002941Y005377D01*
X003374Y004944D01*
X004102Y004944D01*
X004122Y004924D01*
X004634Y004924D01*
X004654Y004944D01*
X004654Y005003D01*
X005185Y005535D01*
X005205Y005515D01*
X005303Y005417D01*
X005320Y005407D01*
X005316Y005411D02*
X005316Y005658D01*
X005325Y005658D01*
X005325Y005583D01*
X005325Y005411D01*
X005316Y005411D01*
X005316Y005433D02*
X005325Y005433D01*
X005316Y005490D02*
X005325Y005490D01*
X005316Y005548D02*
X005325Y005548D01*
X005316Y005605D02*
X005325Y005605D01*
X005303Y005653D02*
X005185Y005535D01*
X005303Y005653D02*
X005320Y005663D01*
X004850Y005909D02*
X004634Y005692D01*
X004634Y005436D01*
X004663Y005119D02*
X004663Y004954D01*
X004604Y004954D01*
X004604Y005119D01*
X004663Y005119D01*
X004663Y005087D02*
X004604Y005087D01*
X004604Y005030D02*
X004663Y005030D01*
X004663Y004972D02*
X004604Y004972D01*
X004604Y004915D02*
X004152Y004915D01*
X004152Y004857D02*
X004093Y004857D01*
X004093Y004895D02*
X004093Y004678D01*
X003931Y004678D01*
X003903Y004686D01*
X003878Y004700D01*
X003858Y004720D01*
X003844Y004745D01*
X003837Y004772D01*
X003837Y004895D01*
X004093Y004895D01*
X004093Y004915D02*
X000680Y004915D01*
X000680Y004972D02*
X003837Y004972D01*
X003837Y005030D02*
X003495Y005030D01*
X003522Y005087D02*
X003840Y005087D01*
X003845Y005145D02*
X003522Y005145D01*
X003522Y005202D02*
X003787Y005202D01*
X003765Y005260D02*
X003522Y005260D01*
X003522Y005318D02*
X003765Y005318D01*
X003765Y005375D02*
X002951Y005375D01*
X002951Y005318D02*
X002892Y005318D01*
X002892Y005260D02*
X002951Y005260D01*
X002951Y005202D02*
X002892Y005202D01*
X002892Y005145D02*
X002951Y005145D01*
X002951Y005087D02*
X002892Y005087D01*
X002892Y005030D02*
X002951Y005030D01*
X002951Y005433D02*
X002892Y005433D01*
X002892Y005490D02*
X002951Y005490D01*
X002951Y005548D02*
X002892Y005548D01*
X002892Y005605D02*
X002951Y005605D01*
X002951Y005663D02*
X002892Y005663D01*
X002892Y005720D02*
X002951Y005720D01*
X002951Y005778D02*
X002892Y005778D01*
X002884Y005836D02*
X003824Y005836D01*
X003826Y005893D02*
X002884Y005893D01*
X002884Y005951D02*
X003415Y005951D01*
X003385Y006008D02*
X002884Y006008D01*
X002884Y006066D02*
X003384Y006066D01*
X003384Y006123D02*
X002884Y006123D01*
X002884Y006181D02*
X003384Y006181D01*
X003384Y006238D02*
X002884Y006238D01*
X002884Y006296D02*
X003384Y006296D01*
X003384Y006354D02*
X002884Y006354D01*
X002884Y006411D02*
X003384Y006411D01*
X003384Y006469D02*
X002884Y006469D01*
X003346Y006699D02*
X003384Y006699D01*
X003758Y006411D02*
X003817Y006411D01*
X003817Y006354D02*
X003758Y006354D01*
X003758Y006296D02*
X003817Y006296D01*
X003817Y006238D02*
X003758Y006238D01*
X003758Y006181D02*
X003817Y006181D01*
X003817Y006123D02*
X003758Y006123D01*
X003758Y006066D02*
X003817Y006066D01*
X003817Y006008D02*
X003758Y006008D01*
X003758Y005951D02*
X003817Y005951D01*
X003824Y005778D02*
X003481Y005778D01*
X003518Y005720D02*
X003837Y005720D01*
X003780Y005663D02*
X003522Y005663D01*
X003522Y005605D02*
X003765Y005605D01*
X003765Y005548D02*
X003522Y005548D01*
X003522Y005490D02*
X003765Y005490D01*
X003765Y005433D02*
X003522Y005433D01*
X003837Y004857D02*
X000680Y004857D01*
X000680Y004800D02*
X003837Y004800D01*
X003846Y004742D02*
X000680Y004742D01*
X000680Y004684D02*
X003908Y004684D01*
X004093Y004684D02*
X004152Y004684D01*
X004152Y004742D02*
X004093Y004742D01*
X004093Y004800D02*
X004152Y004800D01*
X004336Y004684D02*
X004420Y004684D01*
X004604Y004684D02*
X004663Y004684D01*
X004663Y004742D02*
X004604Y004742D01*
X004604Y004800D02*
X004663Y004800D01*
X004663Y004857D02*
X004604Y004857D01*
X004690Y004627D02*
X000680Y004627D01*
X000680Y005030D02*
X000694Y005030D01*
X001238Y005030D02*
X001297Y005030D01*
X001297Y005087D02*
X001238Y005087D01*
X001238Y005145D02*
X001297Y005145D01*
X001297Y005202D02*
X001238Y005202D01*
X001238Y005260D02*
X001297Y005260D01*
X001297Y005318D02*
X001238Y005318D01*
X003292Y004454D02*
X004518Y004454D01*
X005087Y004728D02*
X005638Y004728D01*
X005697Y004787D01*
X005697Y006283D01*
X005559Y006420D01*
X005323Y006420D01*
X005320Y006430D01*
X005320Y006174D02*
X005303Y006165D01*
X004811Y006165D01*
X004555Y005909D01*
X004435Y006181D02*
X004191Y006181D01*
X004191Y006238D02*
X004308Y006238D01*
X004311Y006235D02*
X004336Y006221D01*
X004364Y006214D01*
X004526Y006214D01*
X004526Y006430D01*
X004270Y006430D01*
X004270Y006308D01*
X004277Y006280D01*
X004291Y006256D01*
X004311Y006235D01*
X004273Y006296D02*
X004191Y006296D01*
X004191Y006354D02*
X004270Y006354D01*
X004270Y006411D02*
X004191Y006411D01*
X004191Y006469D02*
X004526Y006469D01*
X004526Y006411D02*
X004585Y006411D01*
X004585Y006354D02*
X004526Y006354D01*
X004526Y006296D02*
X004585Y006296D01*
X004585Y006238D02*
X004526Y006238D01*
X004349Y006123D02*
X004191Y006123D01*
X004585Y006469D02*
X004866Y006469D01*
X004866Y006526D02*
X004841Y006526D01*
X004841Y006584D02*
X004877Y006584D01*
X004832Y006641D02*
X004934Y006641D01*
X004937Y006699D02*
X004851Y006699D01*
X004841Y006411D02*
X004866Y006411D01*
X005707Y006641D02*
X007745Y006641D01*
X007745Y006584D02*
X005764Y006584D01*
X005775Y006526D02*
X007762Y006526D01*
X007816Y006469D02*
X005807Y006469D01*
X005704Y006699D02*
X007745Y006699D01*
X007745Y006756D02*
X005732Y006756D01*
X005775Y006814D02*
X007745Y006814D01*
X007745Y006872D02*
X005775Y006872D01*
X005775Y006929D02*
X007745Y006929D01*
X007745Y006987D02*
X005775Y006987D01*
X005775Y007044D02*
X007745Y007044D01*
X007745Y007102D02*
X005775Y007102D01*
X005775Y007159D02*
X007745Y007159D01*
X007745Y007217D02*
X005775Y007217D01*
X005775Y007274D02*
X007745Y007274D01*
X007745Y007332D02*
X005775Y007332D01*
X005726Y007390D02*
X007745Y007390D01*
X007745Y007447D02*
X005704Y007447D01*
X005713Y007505D02*
X007745Y007505D01*
X007745Y007562D02*
X005770Y007562D01*
X005775Y007620D02*
X007745Y007620D01*
X007745Y007677D02*
X005775Y007677D01*
X005775Y007735D02*
X007745Y007735D01*
X007745Y007792D02*
X005775Y007792D01*
X005775Y007850D02*
X007745Y007850D01*
X007745Y007908D02*
X005775Y007908D01*
X005775Y007965D02*
X007745Y007965D01*
X007745Y008023D02*
X005775Y008023D01*
X005775Y008080D02*
X007745Y008080D01*
X007745Y008138D02*
X005775Y008138D01*
X005775Y008195D02*
X007745Y008195D01*
X007745Y008253D02*
X005775Y008253D01*
X005775Y008310D02*
X007745Y008310D01*
X007748Y008368D02*
X005772Y008368D01*
X005714Y008426D02*
X007806Y008426D01*
X008593Y008426D02*
X008952Y008426D01*
X008943Y008483D02*
X004598Y008483D01*
X004598Y008426D02*
X004927Y008426D01*
X004869Y008368D02*
X004598Y008368D01*
X004598Y008310D02*
X004691Y008310D01*
X004628Y008253D02*
X004598Y008253D01*
X004850Y008054D02*
X004929Y008054D01*
X005087Y008212D01*
X005303Y008212D01*
X005320Y008222D01*
X005320Y007966D02*
X005303Y007956D01*
X005087Y007956D01*
X004890Y007759D01*
X004850Y007759D01*
X005087Y007700D02*
X005303Y007700D01*
X005320Y007710D01*
X005087Y007700D02*
X004850Y007464D01*
X005320Y007454D02*
X005579Y007464D01*
X006130Y008015D01*
X006130Y010121D01*
X006130Y010141D01*
X006130Y010161D01*
X006130Y011342D01*
X005874Y011598D01*
X005598Y011598D01*
X005343Y011854D01*
X005323Y011873D01*
X005323Y012798D01*
X005500Y012818D01*
X004949Y012818D01*
X004930Y012818D01*
X004909Y012838D01*
X004299Y012838D01*
X004299Y012818D01*
X004299Y011952D01*
X004660Y012224D02*
X003809Y012224D01*
X003809Y012167D02*
X005559Y012167D01*
X005617Y012224D02*
X005200Y012224D01*
X005171Y012159D02*
X005143Y012151D01*
X005119Y012137D01*
X005098Y012117D01*
X005084Y012092D01*
X005077Y012065D01*
X005077Y011903D01*
X005293Y011903D01*
X005293Y012159D01*
X005171Y012159D01*
X005094Y012109D02*
X003809Y012109D01*
X003809Y012052D02*
X005077Y012052D01*
X005077Y011994D02*
X003809Y011994D01*
X003809Y011936D02*
X005077Y011936D01*
X005077Y011821D02*
X003622Y011821D01*
X003622Y011764D02*
X005077Y011764D01*
X005077Y011706D02*
X003622Y011706D01*
X003622Y011649D02*
X005087Y011649D01*
X005159Y011591D02*
X003622Y011591D01*
X003622Y011534D02*
X005605Y011534D01*
X005548Y011591D02*
X005487Y011591D01*
X005352Y011591D02*
X005293Y011591D01*
X005293Y011649D02*
X005352Y011649D01*
X005352Y011706D02*
X005293Y011706D01*
X005293Y011764D02*
X005352Y011764D01*
X005352Y011821D02*
X005293Y011821D01*
X005293Y011879D02*
X003752Y011879D01*
X003413Y012228D02*
X003492Y012306D01*
X003520Y012334D01*
X003551Y012334D01*
X003480Y012263D01*
X003809Y012282D02*
X004610Y012282D01*
X004610Y012339D02*
X003809Y012339D01*
X003809Y012397D02*
X003825Y012397D01*
X004014Y012397D02*
X004073Y012397D01*
X004073Y012395D02*
X004254Y012395D01*
X004282Y012402D01*
X004307Y012417D01*
X004327Y012437D01*
X004341Y012461D01*
X004348Y012489D01*
X004348Y013064D01*
X004073Y013064D01*
X004073Y012395D01*
X004073Y012454D02*
X004014Y012454D01*
X004014Y012512D02*
X004073Y012512D01*
X004073Y012570D02*
X004014Y012570D01*
X004014Y012627D02*
X004073Y012627D01*
X004073Y012685D02*
X004014Y012685D01*
X004014Y012742D02*
X004073Y012742D01*
X004073Y012800D02*
X004014Y012800D01*
X004014Y012857D02*
X004073Y012857D01*
X004073Y012915D02*
X004014Y012915D01*
X004014Y012972D02*
X004073Y012972D01*
X004073Y013030D02*
X004014Y013030D01*
X004014Y013088D02*
X003566Y013088D01*
X003573Y013030D02*
X003738Y013030D01*
X003738Y012972D02*
X003573Y012972D01*
X003571Y012915D02*
X003738Y012915D01*
X003738Y012857D02*
X003547Y012857D01*
X003523Y012800D02*
X003738Y012800D01*
X004024Y013094D02*
X004043Y013094D01*
X004299Y012838D01*
X004348Y012857D02*
X004682Y012857D01*
X004682Y012800D02*
X004348Y012800D01*
X004348Y012742D02*
X004682Y012742D01*
X004696Y012685D02*
X004348Y012685D01*
X004348Y012627D02*
X004655Y012627D01*
X004610Y012570D02*
X004348Y012570D01*
X004348Y012512D02*
X004610Y012512D01*
X004610Y012454D02*
X004337Y012454D01*
X004262Y012397D02*
X004610Y012397D01*
X004682Y012915D02*
X004348Y012915D01*
X004348Y012972D02*
X004692Y012972D01*
X004634Y013030D02*
X004348Y013030D01*
X004348Y013145D02*
X004610Y013145D01*
X004610Y013088D02*
X004073Y013088D01*
X004348Y013203D02*
X004610Y013203D01*
X004610Y013260D02*
X004348Y013260D01*
X004348Y013318D02*
X004610Y013318D01*
X004623Y013375D02*
X004348Y013375D01*
X004348Y013433D02*
X004681Y013433D01*
X004971Y013490D02*
X004348Y013490D01*
X003738Y013490D02*
X001474Y013490D01*
X001474Y013433D02*
X003738Y013433D01*
X003738Y013375D02*
X001474Y013375D01*
X001474Y013318D02*
X001811Y013318D01*
X001748Y013260D02*
X001474Y013260D01*
X001474Y013203D02*
X001694Y013203D01*
X001670Y013145D02*
X001474Y013145D01*
X000864Y013145D02*
X000680Y013145D01*
X000680Y013203D02*
X000864Y013203D01*
X000864Y013260D02*
X000680Y013260D01*
X000680Y013318D02*
X000864Y013318D01*
X000864Y013375D02*
X000680Y013375D01*
X000680Y013433D02*
X000864Y013433D01*
X000864Y013490D02*
X000680Y013490D01*
X002221Y013318D02*
X002992Y013318D01*
X002929Y013260D02*
X002283Y013260D01*
X002337Y013203D02*
X002875Y013203D01*
X002852Y013145D02*
X002361Y013145D01*
X002385Y013088D02*
X002828Y013088D01*
X002820Y013030D02*
X002392Y013030D01*
X002392Y012972D02*
X002820Y012972D01*
X002823Y012915D02*
X002390Y012915D01*
X002366Y012857D02*
X002847Y012857D01*
X002870Y012800D02*
X002342Y012800D01*
X002562Y012742D02*
X002918Y012742D01*
X002975Y012685D02*
X002620Y012685D01*
X002628Y012627D02*
X003102Y012627D01*
X003175Y012570D02*
X002628Y012570D01*
X002628Y012512D02*
X003175Y012512D01*
X003175Y012454D02*
X002628Y012454D01*
X002628Y012397D02*
X003175Y012397D01*
X003542Y013145D02*
X003738Y013145D01*
X003738Y013203D02*
X003518Y013203D01*
X003464Y013260D02*
X003738Y013260D01*
X003738Y013318D02*
X003402Y013318D01*
X004930Y013208D02*
X004949Y013212D01*
X004988Y013212D01*
X005165Y013389D01*
X007291Y013389D01*
X007626Y013054D01*
X007606Y013035D01*
X007626Y013054D02*
X007862Y012818D01*
X007862Y012621D02*
X007882Y012602D01*
X008039Y012602D01*
X008138Y012503D01*
X008197Y012503D01*
X007862Y012424D02*
X007606Y012424D01*
X007606Y012405D01*
X007606Y011952D01*
X007626Y011932D01*
X007606Y011913D01*
X007016Y011913D01*
X006661Y012267D01*
X006642Y012287D01*
X006602Y012247D01*
X006602Y012267D01*
X006642Y012267D01*
X006642Y012306D02*
X006602Y012267D01*
X006366Y012267D01*
X006327Y012306D01*
X006327Y012779D01*
X006287Y012818D01*
X006110Y012818D01*
X006071Y012818D01*
X006070Y012818D01*
X006071Y013192D02*
X006070Y013208D01*
X006071Y013192D02*
X006996Y013192D01*
X007232Y012956D01*
X007252Y012936D01*
X007567Y012621D01*
X007862Y012621D01*
X007606Y012424D02*
X007252Y012424D01*
X007232Y012444D01*
X006957Y012424D02*
X006957Y012267D01*
X007094Y012129D01*
X006957Y012424D02*
X006642Y012739D01*
X006642Y012798D01*
X006602Y012247D02*
X006602Y011952D01*
X006524Y011873D01*
X005874Y011873D01*
X005835Y011873D01*
X006152Y011649D02*
X007614Y011649D01*
X007672Y011591D02*
X006121Y011591D01*
X006064Y011534D02*
X007683Y011534D01*
X007683Y011476D02*
X006112Y011476D01*
X006169Y011418D02*
X007683Y011418D01*
X007683Y011361D02*
X006212Y011361D01*
X006212Y011303D02*
X007686Y011303D01*
X007744Y011246D02*
X006212Y011246D01*
X006212Y011188D02*
X007958Y011188D01*
X007980Y011131D02*
X006212Y011131D01*
X006212Y011073D02*
X008005Y011073D01*
X008063Y011016D02*
X006212Y011016D01*
X006212Y010958D02*
X007637Y010958D01*
X007636Y010957D02*
X007622Y010933D01*
X007615Y010905D01*
X007615Y010170D01*
X008068Y010170D01*
X008069Y010170D02*
X008069Y010999D01*
X007709Y010999D01*
X007681Y010992D01*
X007657Y010978D01*
X007636Y010957D01*
X007615Y010900D02*
X006212Y010900D01*
X006212Y010843D02*
X007615Y010843D01*
X007615Y010785D02*
X006212Y010785D01*
X006212Y010728D02*
X007615Y010728D01*
X007615Y010670D02*
X006156Y010670D01*
X006075Y010492D02*
X006047Y010499D01*
X005687Y010499D01*
X005687Y010170D01*
X005628Y010170D01*
X005628Y010111D01*
X005687Y010111D01*
X005687Y009783D01*
X006047Y009783D01*
X006075Y009790D01*
X006099Y009804D01*
X006120Y009824D01*
X006134Y009849D01*
X006141Y009877D01*
X006141Y010111D01*
X005687Y010111D01*
X005687Y010170D01*
X006141Y010170D01*
X006141Y010405D01*
X006134Y010433D01*
X006120Y010457D01*
X006099Y010478D01*
X006075Y010492D01*
X006053Y010498D02*
X007615Y010498D01*
X007615Y010555D02*
X005077Y010555D01*
X005077Y010613D02*
X007615Y010613D01*
X007615Y010440D02*
X006130Y010440D01*
X006141Y010382D02*
X007615Y010382D01*
X007615Y010325D02*
X006141Y010325D01*
X006141Y010267D02*
X007615Y010267D01*
X007615Y010210D02*
X006141Y010210D01*
X006130Y010141D02*
X005677Y010141D01*
X005658Y010141D01*
X005657Y010141D01*
X005658Y010141D01*
X005657Y010141D01*
X004811Y010141D01*
X004791Y010141D01*
X004791Y009806D01*
X004821Y009807D02*
X005214Y009807D01*
X005216Y009804D02*
X005241Y009790D01*
X005269Y009783D01*
X005628Y009783D01*
X005628Y010111D01*
X005175Y010111D01*
X005175Y009877D01*
X005182Y009849D01*
X005196Y009824D01*
X005216Y009804D01*
X005178Y009864D02*
X005077Y009864D01*
X005077Y009836D02*
X005077Y009958D01*
X005069Y009986D01*
X005055Y010011D01*
X005035Y010031D01*
X005010Y010045D01*
X004983Y010052D01*
X004821Y010052D01*
X004821Y009836D01*
X005077Y009836D01*
X005077Y009922D02*
X005175Y009922D01*
X005175Y009980D02*
X005071Y009980D01*
X005024Y010037D02*
X005175Y010037D01*
X005175Y010095D02*
X004598Y010095D01*
X004598Y010152D02*
X005628Y010152D01*
X005628Y010170D02*
X005175Y010170D01*
X005175Y010405D01*
X005182Y010433D01*
X005196Y010457D01*
X005216Y010478D01*
X005241Y010492D01*
X005269Y010499D01*
X005628Y010499D01*
X005628Y010170D01*
X005628Y010210D02*
X005687Y010210D01*
X005687Y010267D02*
X005628Y010267D01*
X005628Y010325D02*
X005687Y010325D01*
X005687Y010382D02*
X005628Y010382D01*
X005628Y010440D02*
X005687Y010440D01*
X005687Y010498D02*
X005628Y010498D01*
X005262Y010498D02*
X004821Y010498D01*
X004791Y010515D02*
X004791Y010141D01*
X004762Y010037D02*
X004821Y010037D01*
X004821Y009980D02*
X004762Y009980D01*
X004762Y009922D02*
X004821Y009922D01*
X004821Y009864D02*
X004762Y009864D01*
X005077Y009749D02*
X007615Y009749D01*
X007615Y009692D02*
X005077Y009692D01*
X005071Y009634D02*
X005182Y009634D01*
X005125Y009577D02*
X005078Y009577D01*
X004969Y009294D02*
X004791Y009294D01*
X004969Y009294D02*
X004969Y009275D01*
X004673Y008980D01*
X004885Y008771D02*
X009099Y008771D01*
X009025Y008713D02*
X004808Y008713D01*
X004933Y008828D02*
X005182Y008828D01*
X005124Y008886D02*
X004957Y008886D01*
X004971Y008944D02*
X005103Y008944D01*
X005103Y009001D02*
X005067Y009001D01*
X004969Y009294D02*
X005598Y009294D01*
X005657Y009235D01*
X005658Y009231D01*
X006212Y009231D02*
X009152Y009231D01*
X009152Y009174D02*
X006212Y009174D01*
X006212Y009116D02*
X009173Y009116D01*
X009159Y009059D02*
X006212Y009059D01*
X006212Y009001D02*
X009159Y009001D01*
X009166Y008944D02*
X006212Y008944D01*
X006192Y008886D02*
X009190Y008886D01*
X009226Y008828D02*
X006134Y008828D01*
X006212Y009289D02*
X007686Y009289D01*
X007681Y009290D02*
X007709Y009283D01*
X008069Y009283D01*
X008069Y010111D01*
X008068Y010111D02*
X007615Y010111D01*
X007615Y009377D01*
X007622Y009349D01*
X007636Y009324D01*
X007657Y009304D01*
X007681Y009290D01*
X007624Y009346D02*
X006212Y009346D01*
X006212Y009404D02*
X007615Y009404D01*
X007615Y009462D02*
X006212Y009462D01*
X006212Y009519D02*
X007615Y009519D01*
X007615Y009577D02*
X006191Y009577D01*
X006134Y009634D02*
X007615Y009634D01*
X007615Y009807D02*
X006102Y009807D01*
X006138Y009864D02*
X007615Y009864D01*
X007615Y009922D02*
X006141Y009922D01*
X006141Y009980D02*
X007615Y009980D01*
X007615Y010037D02*
X006141Y010037D01*
X006141Y010095D02*
X007615Y010095D01*
X008069Y010095D02*
X008128Y010095D01*
X008098Y010141D02*
X008098Y010141D01*
X008098Y010141D01*
X008079Y010141D01*
X006130Y010141D01*
X005687Y010152D02*
X008068Y010152D01*
X008098Y010141D02*
X008098Y010141D01*
X008492Y010535D01*
X008492Y011539D01*
X008512Y011558D01*
X008906Y011952D01*
X008906Y012523D01*
X008807Y012621D01*
X008650Y012621D01*
X008923Y012621D02*
X008987Y012685D01*
X008987Y012952D01*
X008881Y013057D01*
X008494Y013057D01*
X008494Y013148D01*
X008389Y013254D01*
X008122Y013254D01*
X008017Y013148D01*
X008017Y013057D01*
X007919Y013057D01*
X007904Y013072D01*
X007904Y013094D01*
X007859Y013203D01*
X008072Y013203D01*
X008017Y013145D02*
X007883Y013145D01*
X007904Y013088D02*
X008017Y013088D01*
X007859Y013203D02*
X007775Y013287D01*
X007666Y013332D01*
X007644Y013332D01*
X007432Y013544D01*
X009149Y013544D01*
X009136Y013531D01*
X009061Y013350D01*
X009061Y013153D01*
X009136Y012971D01*
X009275Y012832D01*
X009457Y012757D01*
X009645Y012757D01*
X009657Y012728D01*
X009741Y012645D01*
X009850Y012599D01*
X009969Y012599D01*
X010078Y012645D01*
X010162Y012728D01*
X010207Y012838D01*
X010207Y012900D01*
X010275Y012832D01*
X010350Y012801D01*
X010350Y012105D01*
X010307Y012062D01*
X010261Y011952D01*
X010261Y011834D01*
X010307Y011724D01*
X010390Y011641D01*
X010500Y011595D01*
X010618Y011595D01*
X010685Y011623D01*
X010685Y010970D01*
X010618Y010970D01*
X010509Y010925D01*
X010425Y010841D01*
X010380Y010732D01*
X010380Y010670D01*
X010173Y010464D01*
X010096Y010541D01*
X010089Y010541D01*
X010089Y010944D01*
X009984Y011049D01*
X009559Y011049D01*
X009516Y011005D01*
X009472Y011049D01*
X009048Y011049D01*
X008943Y010944D01*
X008943Y010541D01*
X008877Y010541D01*
X008772Y010436D01*
X008772Y010389D01*
X008720Y010389D01*
X008681Y010350D01*
X008645Y010314D01*
X008599Y010295D01*
X008581Y010277D01*
X008581Y010905D01*
X008574Y010933D01*
X008560Y010957D01*
X008540Y010978D01*
X008515Y010992D01*
X008487Y010999D01*
X008433Y010999D01*
X008508Y011075D01*
X008554Y011184D01*
X008554Y011273D01*
X008664Y011273D01*
X008691Y011280D01*
X008716Y011294D01*
X008736Y011315D01*
X008750Y011339D01*
X008758Y011367D01*
X008758Y011529D01*
X008541Y011529D01*
X008541Y011588D01*
X008482Y011588D01*
X008482Y011844D01*
X008441Y011844D01*
X008494Y011897D01*
X008494Y011989D01*
X008881Y011989D01*
X008987Y012094D01*
X008987Y012558D01*
X008923Y012621D01*
X008929Y012627D02*
X009783Y012627D01*
X009701Y012685D02*
X008987Y012685D01*
X008987Y012742D02*
X009651Y012742D01*
X009909Y012897D02*
X009555Y013251D01*
X009192Y012915D02*
X008987Y012915D01*
X008987Y012857D02*
X009250Y012857D01*
X009353Y012800D02*
X008987Y012800D01*
X008966Y012972D02*
X009135Y012972D01*
X009112Y013030D02*
X008908Y013030D01*
X009088Y013088D02*
X008494Y013088D01*
X008494Y013145D02*
X009064Y013145D01*
X009061Y013203D02*
X008440Y013203D01*
X009061Y013260D02*
X007802Y013260D01*
X007701Y013318D02*
X009061Y013318D01*
X009071Y013375D02*
X007601Y013375D01*
X007543Y013433D02*
X009095Y013433D01*
X009119Y013490D02*
X007486Y013490D01*
X008975Y012570D02*
X010350Y012570D01*
X010350Y012627D02*
X010036Y012627D01*
X010118Y012685D02*
X010350Y012685D01*
X010350Y012742D02*
X010168Y012742D01*
X010191Y012800D02*
X010350Y012800D01*
X010250Y012857D02*
X010207Y012857D01*
X010555Y013251D02*
X010559Y013251D01*
X010559Y011893D01*
X010325Y011706D02*
X008758Y011706D01*
X008758Y011750D02*
X008750Y011777D01*
X008736Y011802D01*
X008716Y011822D01*
X008691Y011836D01*
X008664Y011844D01*
X008541Y011844D01*
X008541Y011588D01*
X008758Y011588D01*
X008758Y011750D01*
X008754Y011764D02*
X010290Y011764D01*
X010267Y011821D02*
X008717Y011821D01*
X008541Y011821D02*
X008482Y011821D01*
X008482Y011764D02*
X008541Y011764D01*
X008541Y011706D02*
X008482Y011706D01*
X008482Y011649D02*
X008541Y011649D01*
X008541Y011591D02*
X008482Y011591D01*
X008541Y011534D02*
X010685Y011534D01*
X010685Y011591D02*
X008758Y011591D01*
X008758Y011649D02*
X010382Y011649D01*
X010685Y011476D02*
X008758Y011476D01*
X008758Y011418D02*
X010685Y011418D01*
X010685Y011361D02*
X008756Y011361D01*
X008725Y011303D02*
X010685Y011303D01*
X010685Y011246D02*
X008554Y011246D01*
X008554Y011188D02*
X010685Y011188D01*
X010685Y011131D02*
X008531Y011131D01*
X008507Y011073D02*
X010685Y011073D01*
X010685Y011016D02*
X010017Y011016D01*
X010075Y010958D02*
X010589Y010958D01*
X010484Y010900D02*
X010089Y010900D01*
X010089Y010843D02*
X010427Y010843D01*
X010402Y010785D02*
X010089Y010785D01*
X010089Y010728D02*
X010380Y010728D01*
X010379Y010670D02*
X010089Y010670D01*
X010089Y010613D02*
X010322Y010613D01*
X010264Y010555D02*
X010089Y010555D01*
X010139Y010498D02*
X010207Y010498D01*
X010343Y010338D02*
X010677Y010672D01*
X010894Y010535D02*
X010894Y012602D01*
X011543Y013251D01*
X011555Y013251D01*
X011307Y012700D02*
X011307Y012188D01*
X011209Y012169D01*
X011740Y012169D01*
X011898Y012326D01*
X012154Y012326D01*
X012528Y011952D01*
X012528Y011696D01*
X012530Y011678D01*
X012030Y011678D02*
X012016Y011676D01*
X011799Y011460D01*
X011760Y011460D01*
X011553Y011246D02*
X011393Y011246D01*
X011408Y011283D02*
X011408Y011401D01*
X011403Y011412D01*
X011428Y011418D01*
X011452Y011432D01*
X011462Y011442D01*
X011462Y011401D01*
X011508Y011291D01*
X011591Y011208D01*
X011701Y011162D01*
X011760Y011162D01*
X011760Y011049D01*
X011865Y010944D01*
X012194Y010944D01*
X012280Y011029D01*
X012365Y010944D01*
X012694Y010944D01*
X012780Y011029D01*
X012865Y010944D01*
X013194Y010944D01*
X013280Y011029D01*
X013365Y010944D01*
X013694Y010944D01*
X013780Y011029D01*
X013865Y010944D01*
X013923Y010944D01*
X013923Y010909D01*
X013942Y010861D01*
X013925Y010861D01*
X013898Y010854D01*
X013873Y010840D01*
X013853Y010820D01*
X013839Y010795D01*
X013831Y010767D01*
X013831Y010214D01*
X014011Y010214D01*
X014011Y010183D01*
X013831Y010183D01*
X013831Y009629D01*
X013839Y009601D01*
X013853Y009577D01*
X013873Y009557D01*
X013898Y009542D01*
X013925Y009535D01*
X013923Y009531D01*
X013923Y009412D01*
X013968Y009303D01*
X014052Y009219D01*
X014161Y009174D01*
X014280Y009174D01*
X014389Y009219D01*
X014473Y009303D01*
X014518Y009412D01*
X014518Y009531D01*
X014473Y009640D01*
X014430Y009684D01*
X014430Y010756D01*
X014473Y010799D01*
X014518Y010909D01*
X014518Y011027D01*
X014473Y011136D01*
X014389Y011220D01*
X014299Y011257D01*
X014299Y012308D01*
X014194Y012413D01*
X013865Y012413D01*
X013780Y012327D01*
X013694Y012413D01*
X013365Y012413D01*
X013280Y012327D01*
X013194Y012413D01*
X012865Y012413D01*
X012780Y012327D01*
X012737Y012370D01*
X012819Y012453D01*
X012865Y012562D01*
X012865Y012680D01*
X012819Y012790D01*
X012794Y012815D01*
X012835Y012832D01*
X012974Y012971D01*
X013050Y013153D01*
X013050Y013350D01*
X012974Y013531D01*
X012962Y013544D01*
X013249Y013544D01*
X013232Y013527D01*
X013193Y013473D01*
X013163Y013414D01*
X013142Y013350D01*
X013132Y013285D01*
X013132Y013281D01*
X013526Y013281D01*
X013526Y013222D01*
X013585Y013222D01*
X013585Y013281D01*
X013978Y013281D01*
X013978Y013285D01*
X013968Y013350D01*
X013947Y013414D01*
X013917Y013473D01*
X013878Y013527D01*
X013861Y013544D01*
X015073Y013544D01*
X015073Y007008D01*
X014777Y007008D01*
X014672Y006902D01*
X014672Y006840D01*
X014503Y006840D01*
X014431Y006769D01*
X014395Y006769D01*
X014395Y006468D01*
X014385Y006468D01*
X014385Y006769D01*
X014349Y006769D01*
X014277Y006840D01*
X013991Y006840D01*
X013886Y006735D01*
X013886Y006423D01*
X013885Y006423D01*
X013404Y006423D01*
X013404Y006429D01*
X013401Y006440D01*
X013404Y006452D01*
X013404Y006478D01*
X013475Y006549D01*
X013475Y006851D01*
X013591Y006851D01*
X013700Y006897D01*
X013784Y006980D01*
X013829Y007090D01*
X013829Y007208D01*
X013821Y007227D01*
X013824Y007225D01*
X013852Y007218D01*
X013974Y007218D01*
X013974Y007474D01*
X014033Y007474D01*
X014033Y007218D01*
X014156Y007218D01*
X014184Y007225D01*
X014208Y007239D01*
X014228Y007260D01*
X014243Y007284D01*
X014250Y007312D01*
X014250Y007474D01*
X014033Y007474D01*
X014033Y007533D01*
X013974Y007533D01*
X013974Y007789D01*
X013852Y007789D01*
X013824Y007781D01*
X013800Y007767D01*
X013798Y007766D01*
X013704Y007860D01*
X013672Y007860D01*
X013672Y008818D01*
X013592Y008897D01*
X013593Y008898D01*
X013600Y008926D01*
X013600Y009098D01*
X013354Y009098D01*
X013354Y008923D01*
X013295Y008923D01*
X013295Y009098D01*
X013354Y009098D01*
X013354Y009157D01*
X013295Y009157D01*
X013295Y009422D01*
X013185Y009422D01*
X013120Y009487D01*
X013120Y009535D01*
X013134Y009535D01*
X013161Y009542D01*
X013186Y009557D01*
X013206Y009577D01*
X013220Y009601D01*
X013228Y009629D01*
X013228Y010183D01*
X013045Y010183D01*
X013045Y010214D01*
X013014Y010214D01*
X013014Y010861D01*
X012925Y010861D01*
X012898Y010854D01*
X012873Y010840D01*
X012853Y010820D01*
X012839Y010795D01*
X012831Y010767D01*
X012831Y010214D01*
X013014Y010214D01*
X013014Y010183D01*
X012831Y010183D01*
X012831Y009789D01*
X012764Y009789D01*
X012728Y009774D01*
X012728Y010183D01*
X012545Y010183D01*
X012545Y010214D01*
X012514Y010214D01*
X012514Y010861D01*
X012425Y010861D01*
X012398Y010854D01*
X012373Y010840D01*
X012353Y010820D01*
X012339Y010795D01*
X012331Y010767D01*
X012331Y010214D01*
X012514Y010214D01*
X012514Y010183D01*
X012331Y010183D01*
X012331Y009629D01*
X012339Y009601D01*
X012353Y009577D01*
X012373Y009557D01*
X012398Y009542D01*
X012425Y009535D01*
X012514Y009535D01*
X012514Y010183D01*
X012545Y010183D01*
X012545Y009598D01*
X012525Y009551D01*
X012525Y009432D01*
X012532Y009415D01*
X012178Y009415D01*
X012098Y009336D01*
X012097Y009336D01*
X012069Y009344D01*
X011958Y009344D01*
X011979Y009393D01*
X011979Y009454D01*
X011988Y009464D01*
X012194Y009464D01*
X012299Y009569D01*
X012299Y010828D01*
X012194Y010933D01*
X011865Y010933D01*
X011760Y010828D01*
X011760Y009827D01*
X011683Y009750D01*
X011622Y009750D01*
X011513Y009704D01*
X011429Y009621D01*
X011396Y009541D01*
X011356Y009541D01*
X011356Y009324D01*
X011297Y009324D01*
X011297Y009541D01*
X011260Y009541D01*
X011260Y011082D01*
X011279Y011089D01*
X011363Y011173D01*
X011408Y011283D01*
X011408Y011303D02*
X011503Y011303D01*
X011479Y011361D02*
X011408Y011361D01*
X011428Y011418D02*
X011462Y011418D01*
X011327Y011420D02*
X011327Y010023D01*
X011307Y010023D01*
X011287Y010023D01*
X011260Y010037D02*
X011760Y010037D01*
X011760Y009980D02*
X011260Y009980D01*
X011260Y009922D02*
X011760Y009922D01*
X011760Y009864D02*
X011260Y009864D01*
X011260Y009807D02*
X011740Y009807D01*
X011621Y009749D02*
X011260Y009749D01*
X011260Y009692D02*
X011500Y009692D01*
X011442Y009634D02*
X011260Y009634D01*
X011260Y009577D02*
X011411Y009577D01*
X011356Y009519D02*
X011297Y009519D01*
X011297Y009462D02*
X011356Y009462D01*
X011356Y009404D02*
X011297Y009404D01*
X011297Y009346D02*
X011356Y009346D01*
X011327Y009294D02*
X011346Y009275D01*
X011524Y009098D01*
X011878Y009098D01*
X011819Y009117D01*
X012508Y009806D01*
X012508Y010180D01*
X012530Y010198D01*
X012547Y010200D01*
X012764Y010200D01*
X012764Y010220D01*
X013394Y010850D01*
X013827Y010850D01*
X013846Y010850D01*
X013846Y012149D01*
X013571Y012424D01*
X013571Y013251D01*
X013555Y013251D01*
X013526Y013260D02*
X013050Y013260D01*
X013050Y013203D02*
X013134Y013203D01*
X013132Y013218D02*
X013142Y013152D01*
X013163Y013089D01*
X013193Y013029D01*
X013232Y012975D01*
X013279Y012928D01*
X013333Y012889D01*
X013393Y012859D01*
X013456Y012838D01*
X013522Y012828D01*
X013526Y012828D01*
X013526Y013222D01*
X013132Y013222D01*
X013132Y013218D01*
X013145Y013145D02*
X013046Y013145D01*
X013023Y013088D02*
X013164Y013088D01*
X013193Y013030D02*
X012999Y013030D01*
X012975Y012972D02*
X013235Y012972D01*
X013298Y012915D02*
X012918Y012915D01*
X012861Y012857D02*
X013398Y012857D01*
X013526Y012857D02*
X013585Y012857D01*
X013585Y012828D02*
X013588Y012828D01*
X013654Y012838D01*
X013718Y012859D01*
X013777Y012889D01*
X013831Y012928D01*
X013878Y012975D01*
X013917Y013029D01*
X013947Y013089D01*
X013968Y013152D01*
X013978Y013218D01*
X013978Y013222D01*
X013585Y013222D01*
X013585Y012828D01*
X013585Y012915D02*
X013526Y012915D01*
X013526Y012972D02*
X013585Y012972D01*
X013585Y013030D02*
X013526Y013030D01*
X013526Y013088D02*
X013585Y013088D01*
X013585Y013145D02*
X013526Y013145D01*
X013526Y013203D02*
X013585Y013203D01*
X013585Y013260D02*
X015073Y013260D01*
X015073Y013203D02*
X013976Y013203D01*
X013966Y013145D02*
X015073Y013145D01*
X015073Y013088D02*
X013947Y013088D01*
X013917Y013030D02*
X015073Y013030D01*
X015073Y012972D02*
X013875Y012972D01*
X013812Y012915D02*
X015073Y012915D01*
X015073Y012857D02*
X013712Y012857D01*
X013710Y012397D02*
X013849Y012397D01*
X013792Y012339D02*
X013767Y012339D01*
X014210Y012397D02*
X015073Y012397D01*
X015073Y012454D02*
X012820Y012454D01*
X012844Y012512D02*
X015073Y012512D01*
X015073Y012570D02*
X012865Y012570D01*
X012865Y012627D02*
X015073Y012627D01*
X015073Y012685D02*
X012863Y012685D01*
X012839Y012742D02*
X015073Y012742D01*
X015073Y012800D02*
X012809Y012800D01*
X012567Y012621D02*
X012567Y013251D01*
X012555Y013251D01*
X013015Y013433D02*
X013173Y013433D01*
X013150Y013375D02*
X013039Y013375D01*
X013050Y013318D02*
X013137Y013318D01*
X013206Y013490D02*
X012991Y013490D01*
X013904Y013490D02*
X015073Y013490D01*
X015073Y013433D02*
X013938Y013433D01*
X013960Y013375D02*
X015073Y013375D01*
X015073Y013318D02*
X013973Y013318D01*
X013349Y012397D02*
X013210Y012397D01*
X013267Y012339D02*
X013292Y012339D01*
X012849Y012397D02*
X012763Y012397D01*
X012767Y012339D02*
X012792Y012339D01*
X011760Y011959D02*
X011760Y011757D01*
X011701Y011757D01*
X011591Y011712D01*
X011508Y011628D01*
X011494Y011596D01*
X011494Y011627D01*
X011238Y011627D01*
X011238Y011686D01*
X011494Y011686D01*
X011494Y011809D01*
X011487Y011836D01*
X011472Y011861D01*
X011471Y011862D01*
X011565Y011956D01*
X011565Y011959D01*
X011760Y011959D01*
X011760Y011936D02*
X011545Y011936D01*
X011488Y011879D02*
X011760Y011879D01*
X011760Y011821D02*
X011491Y011821D01*
X011494Y011764D02*
X011760Y011764D01*
X011585Y011706D02*
X011494Y011706D01*
X011528Y011649D02*
X011238Y011649D01*
X011209Y011657D02*
X011209Y011539D01*
X011327Y011420D01*
X011110Y011342D02*
X011051Y011283D01*
X011051Y009157D01*
X010953Y009058D01*
X010559Y009058D01*
X009850Y008350D01*
X009850Y007247D01*
X009693Y007090D01*
X009693Y006027D01*
X009831Y005889D01*
X010441Y005889D01*
X010441Y006046D02*
X009969Y006046D01*
X009909Y006106D01*
X010106Y006204D02*
X010441Y006204D01*
X010106Y006204D02*
X009909Y006401D01*
X010441Y006676D02*
X010776Y006676D01*
X010835Y006617D01*
X010835Y004708D01*
X010854Y004688D01*
X010717Y004550D01*
X010717Y003920D01*
X010697Y003901D01*
X010697Y003645D01*
X010303Y003251D01*
X009811Y003251D01*
X009555Y003507D01*
X009517Y003591D02*
X009009Y003591D01*
X009009Y003648D02*
X009406Y003648D01*
X009298Y003533D02*
X009009Y003533D01*
X009009Y003476D02*
X009241Y003476D01*
X009207Y003418D02*
X009004Y003418D01*
X008947Y003361D02*
X009183Y003361D01*
X009476Y003291D02*
X009752Y003015D01*
X009752Y002956D01*
X009772Y002936D01*
X009772Y002385D01*
X009260Y002385D02*
X009102Y002031D01*
X008943Y002325D02*
X008934Y002325D01*
X008943Y002382D02*
X008897Y002382D01*
X008559Y002382D02*
X008500Y002382D01*
X008500Y002405D02*
X008215Y002405D01*
X008187Y002398D01*
X008163Y002383D01*
X008142Y002363D01*
X008128Y002339D01*
X008121Y002311D01*
X008121Y002176D01*
X008500Y002176D01*
X008500Y002405D01*
X008500Y002325D02*
X008559Y002325D01*
X008559Y002267D02*
X008500Y002267D01*
X008500Y002210D02*
X008559Y002210D01*
X008500Y002152D02*
X006359Y002152D01*
X006359Y002210D02*
X006300Y002210D01*
X006300Y002176D02*
X006300Y002405D01*
X006015Y002405D01*
X005987Y002398D01*
X005963Y002383D01*
X005942Y002363D01*
X005928Y002339D01*
X005921Y002311D01*
X005921Y002176D01*
X006300Y002176D01*
X006300Y002152D02*
X005448Y002152D01*
X005448Y002176D02*
X005827Y002176D01*
X005827Y002311D01*
X005820Y002339D01*
X005806Y002363D01*
X005785Y002383D01*
X005761Y002398D01*
X005733Y002405D01*
X005448Y002405D01*
X005448Y002176D01*
X005448Y002210D02*
X005389Y002210D01*
X005389Y002267D02*
X005448Y002267D01*
X005448Y002325D02*
X005389Y002325D01*
X005389Y002382D02*
X005448Y002382D01*
X005787Y002382D02*
X005961Y002382D01*
X005925Y002325D02*
X005824Y002325D01*
X005827Y002267D02*
X005921Y002267D01*
X005921Y002210D02*
X005827Y002210D01*
X005827Y002094D02*
X005921Y002094D01*
X005921Y002037D02*
X005827Y002037D01*
X005826Y001979D02*
X005922Y001979D01*
X005951Y001922D02*
X005797Y001922D01*
X006300Y002267D02*
X006359Y002267D01*
X006359Y002325D02*
X006300Y002325D01*
X006300Y002382D02*
X006359Y002382D01*
X006697Y002382D02*
X008161Y002382D01*
X008125Y002325D02*
X006734Y002325D01*
X006737Y002267D02*
X008121Y002267D01*
X008121Y002210D02*
X006737Y002210D01*
X006737Y002094D02*
X008121Y002094D01*
X008121Y002037D02*
X006737Y002037D01*
X006737Y001979D02*
X008122Y001979D01*
X008151Y001922D02*
X006707Y001922D01*
X005911Y003361D02*
X005837Y003361D01*
X005833Y003936D02*
X005915Y003936D01*
X005087Y004728D02*
X002567Y002208D01*
X001957Y002208D01*
X002239Y001922D02*
X002841Y001922D01*
X002812Y001979D02*
X002297Y001979D01*
X002692Y002037D02*
X002811Y002037D01*
X002811Y002094D02*
X002749Y002094D01*
X002807Y002152D02*
X003189Y002152D01*
X003189Y002094D02*
X003248Y002094D01*
X003248Y002037D02*
X003189Y002037D01*
X003189Y001979D02*
X003248Y001979D01*
X003248Y001922D02*
X003189Y001922D01*
X003624Y002325D02*
X005014Y002325D01*
X005011Y002267D02*
X003627Y002267D01*
X003627Y002210D02*
X004821Y002210D01*
X005051Y002382D02*
X003587Y002382D01*
X004691Y001749D02*
X000680Y001749D01*
X000680Y001922D02*
X001123Y001922D01*
X001065Y001979D02*
X000680Y001979D01*
X000680Y002037D02*
X001049Y002037D01*
X001049Y002094D02*
X000680Y002094D01*
X000680Y002152D02*
X001049Y002152D01*
X001406Y002720D02*
X001406Y003586D01*
X001957Y003586D02*
X001957Y002720D01*
X005913Y005672D02*
X008197Y005672D01*
X008199Y005663D01*
X008217Y005909D02*
X008199Y005919D01*
X008217Y005909D02*
X008965Y005909D01*
X009988Y004885D01*
X009988Y004688D01*
X010185Y004885D02*
X010205Y004865D01*
X010441Y005102D01*
X010504Y004869D02*
X010693Y004869D01*
X010693Y004688D01*
X010693Y004379D01*
X010700Y004351D01*
X010715Y004326D01*
X010735Y004306D01*
X010744Y004301D01*
X010734Y004275D01*
X010734Y004157D01*
X010746Y004127D01*
X010746Y003950D01*
X010687Y003950D01*
X010687Y004206D01*
X010564Y004206D01*
X010537Y004199D01*
X010512Y004184D01*
X010511Y004183D01*
X010417Y004277D01*
X010414Y004277D01*
X010414Y004779D01*
X010504Y004869D01*
X010492Y004857D02*
X010693Y004857D01*
X010693Y004800D02*
X010435Y004800D01*
X010414Y004742D02*
X010693Y004742D01*
X010693Y004688D02*
X010779Y004688D01*
X010693Y004688D01*
X010693Y004684D02*
X010414Y004684D01*
X010414Y004627D02*
X010693Y004627D01*
X010693Y004569D02*
X010414Y004569D01*
X010414Y004512D02*
X010693Y004512D01*
X010693Y004454D02*
X010414Y004454D01*
X010414Y004397D02*
X010693Y004397D01*
X010707Y004339D02*
X010414Y004339D01*
X010414Y004282D02*
X010737Y004282D01*
X010734Y004224D02*
X010470Y004224D01*
X010687Y004166D02*
X010734Y004166D01*
X010746Y004109D02*
X010687Y004109D01*
X010687Y004051D02*
X010746Y004051D01*
X010746Y003994D02*
X010687Y003994D01*
X010687Y003891D02*
X010746Y003891D01*
X010746Y003753D01*
X010734Y003724D01*
X010734Y003605D01*
X010740Y003591D01*
X010653Y003504D01*
X010653Y003352D01*
X010579Y003352D01*
X010482Y003312D01*
X010522Y003409D01*
X010522Y003527D01*
X010480Y003627D01*
X010511Y003658D01*
X010512Y003657D01*
X010537Y003642D01*
X010564Y003635D01*
X010687Y003635D01*
X010687Y003891D01*
X010687Y003879D02*
X010746Y003879D01*
X010746Y003821D02*
X010687Y003821D01*
X010687Y003764D02*
X010746Y003764D01*
X010734Y003706D02*
X010687Y003706D01*
X010687Y003648D02*
X010734Y003648D01*
X010740Y003591D02*
X010496Y003591D01*
X010502Y003648D02*
X010527Y003648D01*
X010519Y003533D02*
X010682Y003533D01*
X010653Y003476D02*
X010522Y003476D01*
X010522Y003418D02*
X010653Y003418D01*
X010653Y003361D02*
X010502Y003361D01*
X010224Y003468D02*
X010224Y003901D01*
X010205Y003920D01*
X010205Y004865D01*
X010185Y004885D02*
X008689Y006381D01*
X008907Y006584D02*
X009130Y006584D01*
X009130Y006641D02*
X008839Y006641D01*
X008951Y006526D02*
X009130Y006526D01*
X009130Y006469D02*
X008975Y006469D01*
X008987Y006411D02*
X009130Y006411D01*
X009130Y006354D02*
X009012Y006354D01*
X009070Y006296D02*
X009130Y006296D01*
X009127Y006238D02*
X009130Y006238D01*
X009339Y006027D02*
X009594Y005771D01*
X009614Y005771D01*
X010047Y005771D01*
X010087Y005732D01*
X010441Y005732D01*
X010441Y005574D02*
X009988Y005574D01*
X009969Y005554D01*
X009339Y006027D02*
X009339Y006834D01*
X009339Y008310D01*
X010461Y009432D01*
X010461Y010102D01*
X010894Y010535D01*
X010842Y010187D02*
X010842Y009541D01*
X010766Y009541D01*
X010766Y009324D01*
X010707Y009324D01*
X010707Y009541D01*
X010670Y009541D01*
X010670Y010015D01*
X010842Y010187D01*
X010842Y010152D02*
X010807Y010152D01*
X010842Y010095D02*
X010749Y010095D01*
X010756Y010023D02*
X010756Y009314D01*
X010736Y009294D01*
X010618Y009294D01*
X009575Y008251D01*
X009575Y007424D01*
X009548Y007454D02*
X009548Y008224D01*
X009641Y008317D01*
X009641Y008263D01*
X009641Y007710D01*
X009604Y007710D01*
X009604Y007454D01*
X009548Y007454D01*
X009548Y007505D02*
X009604Y007505D01*
X009604Y007562D02*
X009548Y007562D01*
X009548Y007620D02*
X009604Y007620D01*
X009604Y007677D02*
X009548Y007677D01*
X009548Y007735D02*
X009641Y007735D01*
X009641Y007792D02*
X009548Y007792D01*
X009548Y007850D02*
X009641Y007850D01*
X009641Y007908D02*
X009548Y007908D01*
X009548Y007965D02*
X009641Y007965D01*
X009641Y008023D02*
X009548Y008023D01*
X009548Y008080D02*
X009641Y008080D01*
X009641Y008138D02*
X009548Y008138D01*
X009548Y008195D02*
X009641Y008195D01*
X009641Y008253D02*
X009577Y008253D01*
X009634Y008310D02*
X009641Y008310D01*
X010067Y008271D02*
X010067Y007444D01*
X010087Y007424D01*
X010087Y007188D01*
X010441Y006834D01*
X010854Y007247D02*
X010618Y007483D01*
X010618Y007503D01*
X010874Y007720D02*
X011012Y007582D01*
X011012Y007247D01*
X011169Y007247D02*
X011169Y007759D01*
X010697Y008232D01*
X010677Y008251D01*
X010736Y008310D01*
X010736Y008783D01*
X011327Y008783D02*
X011327Y008271D01*
X011346Y008251D01*
X011327Y008232D01*
X011327Y007247D01*
X011799Y007247D02*
X011799Y007582D01*
X011602Y007779D01*
X011602Y007936D01*
X011602Y008133D01*
X011681Y008212D01*
X011878Y008212D02*
X012272Y007818D01*
X012272Y007247D01*
X012429Y007247D02*
X012429Y007582D01*
X012528Y007680D01*
X012528Y008074D01*
X012825Y008084D02*
X012825Y008133D01*
X012813Y008163D01*
X012813Y008261D01*
X012843Y008261D01*
X012843Y008527D01*
X012862Y008546D01*
X012872Y008556D01*
X012862Y008566D01*
X012843Y008586D01*
X012429Y008586D01*
X012459Y008598D02*
X012596Y008598D01*
X012596Y008586D02*
X012843Y008586D01*
X012843Y008527D01*
X012843Y008054D01*
X012823Y008192D01*
X012813Y008195D02*
X012872Y008195D01*
X012872Y008138D02*
X012823Y008138D01*
X012825Y008084D02*
X012872Y008084D01*
X012872Y008340D01*
X012902Y008340D01*
X012902Y008527D01*
X012843Y008527D01*
X012715Y008527D01*
X012715Y008556D01*
X012459Y008556D01*
X012459Y008615D01*
X012596Y008615D01*
X012596Y008586D01*
X012715Y008541D02*
X012843Y008541D01*
X012843Y008566D02*
X012872Y008556D01*
X012843Y008566D02*
X013315Y009039D01*
X013315Y009117D01*
X013325Y009127D01*
X013295Y009137D01*
X013295Y009924D01*
X013039Y010180D01*
X013030Y010198D01*
X013020Y010200D01*
X012764Y010200D01*
X012728Y010214D02*
X012728Y010767D01*
X012720Y010795D01*
X012706Y010820D01*
X012686Y010840D01*
X012661Y010854D01*
X012634Y010861D01*
X012545Y010861D01*
X012545Y010214D01*
X012728Y010214D01*
X012728Y010267D02*
X012831Y010267D01*
X012831Y010325D02*
X012728Y010325D01*
X012728Y010382D02*
X012831Y010382D01*
X012831Y010440D02*
X012728Y010440D01*
X012728Y010498D02*
X012831Y010498D01*
X012831Y010555D02*
X012728Y010555D01*
X012728Y010613D02*
X012831Y010613D01*
X012831Y010670D02*
X012728Y010670D01*
X012728Y010728D02*
X012831Y010728D01*
X012836Y010785D02*
X012723Y010785D01*
X012681Y010843D02*
X012878Y010843D01*
X012851Y010958D02*
X012708Y010958D01*
X012766Y011016D02*
X012793Y011016D01*
X013014Y010843D02*
X013045Y010843D01*
X013045Y010861D02*
X013045Y010214D01*
X013228Y010214D01*
X013228Y010767D01*
X013220Y010795D01*
X013206Y010820D01*
X013186Y010840D01*
X013161Y010854D01*
X013134Y010861D01*
X013045Y010861D01*
X013045Y010785D02*
X013014Y010785D01*
X013014Y010728D02*
X013045Y010728D01*
X013045Y010670D02*
X013014Y010670D01*
X013014Y010613D02*
X013045Y010613D01*
X013045Y010555D02*
X013014Y010555D01*
X013014Y010498D02*
X013045Y010498D01*
X013045Y010440D02*
X013014Y010440D01*
X013014Y010382D02*
X013045Y010382D01*
X013045Y010325D02*
X013014Y010325D01*
X013014Y010267D02*
X013045Y010267D01*
X013045Y010210D02*
X013260Y010210D01*
X013260Y010267D02*
X013228Y010267D01*
X013228Y010325D02*
X013260Y010325D01*
X013260Y010382D02*
X013228Y010382D01*
X013228Y010440D02*
X013260Y010440D01*
X013260Y010498D02*
X013228Y010498D01*
X013228Y010555D02*
X013260Y010555D01*
X013260Y010613D02*
X013228Y010613D01*
X013228Y010670D02*
X013260Y010670D01*
X013260Y010728D02*
X013228Y010728D01*
X013223Y010785D02*
X013260Y010785D01*
X013260Y010828D02*
X013260Y009569D01*
X013365Y009464D01*
X013694Y009464D01*
X013799Y009569D01*
X013799Y010828D01*
X013694Y010933D01*
X013365Y010933D01*
X013260Y010828D01*
X013275Y010843D02*
X013181Y010843D01*
X013208Y010958D02*
X013351Y010958D01*
X013333Y010900D02*
X012226Y010900D01*
X012208Y010958D02*
X012351Y010958D01*
X012293Y011016D02*
X012266Y011016D01*
X012284Y010843D02*
X012378Y010843D01*
X012336Y010785D02*
X012299Y010785D01*
X012299Y010728D02*
X012331Y010728D01*
X012331Y010670D02*
X012299Y010670D01*
X012299Y010613D02*
X012331Y010613D01*
X012331Y010555D02*
X012299Y010555D01*
X012299Y010498D02*
X012331Y010498D01*
X012331Y010440D02*
X012299Y010440D01*
X012299Y010382D02*
X012331Y010382D01*
X012331Y010325D02*
X012299Y010325D01*
X012299Y010267D02*
X012331Y010267D01*
X012299Y010210D02*
X012514Y010210D01*
X012545Y010210D02*
X013014Y010210D01*
X013014Y010183D02*
X013014Y009721D01*
X013045Y009690D01*
X013045Y010183D01*
X013014Y010183D01*
X013014Y010152D02*
X013045Y010152D01*
X013045Y010095D02*
X013014Y010095D01*
X013014Y010037D02*
X013045Y010037D01*
X013045Y009980D02*
X013014Y009980D01*
X013014Y009922D02*
X013045Y009922D01*
X013045Y009864D02*
X013014Y009864D01*
X013014Y009807D02*
X013045Y009807D01*
X013045Y009749D02*
X013014Y009749D01*
X013043Y009692D02*
X013045Y009692D01*
X013228Y009692D02*
X013260Y009692D01*
X013260Y009749D02*
X013228Y009749D01*
X013228Y009807D02*
X013260Y009807D01*
X013260Y009864D02*
X013228Y009864D01*
X013228Y009922D02*
X013260Y009922D01*
X013260Y009980D02*
X013228Y009980D01*
X013228Y010037D02*
X013260Y010037D01*
X013260Y010095D02*
X013228Y010095D01*
X013228Y010152D02*
X013260Y010152D01*
X012831Y010152D02*
X012728Y010152D01*
X012728Y010095D02*
X012831Y010095D01*
X012831Y010037D02*
X012728Y010037D01*
X012728Y009980D02*
X012831Y009980D01*
X012831Y009922D02*
X012728Y009922D01*
X012728Y009864D02*
X012831Y009864D01*
X012831Y009807D02*
X012728Y009807D01*
X012545Y009807D02*
X012514Y009807D01*
X012514Y009864D02*
X012545Y009864D01*
X012545Y009922D02*
X012514Y009922D01*
X012514Y009980D02*
X012545Y009980D01*
X012545Y010037D02*
X012514Y010037D01*
X012514Y010095D02*
X012545Y010095D01*
X012545Y010152D02*
X012514Y010152D01*
X012514Y010267D02*
X012545Y010267D01*
X012545Y010325D02*
X012514Y010325D01*
X012514Y010382D02*
X012545Y010382D01*
X012545Y010440D02*
X012514Y010440D01*
X012514Y010498D02*
X012545Y010498D01*
X012545Y010555D02*
X012514Y010555D01*
X012514Y010613D02*
X012545Y010613D01*
X012545Y010670D02*
X012514Y010670D01*
X012514Y010728D02*
X012545Y010728D01*
X012545Y010785D02*
X012514Y010785D01*
X012514Y010843D02*
X012545Y010843D01*
X011851Y010958D02*
X011260Y010958D01*
X011260Y011016D02*
X011793Y011016D01*
X011760Y011073D02*
X011260Y011073D01*
X011320Y011131D02*
X011760Y011131D01*
X011638Y011188D02*
X011369Y011188D01*
X011260Y010900D02*
X011833Y010900D01*
X011775Y010843D02*
X011260Y010843D01*
X011260Y010785D02*
X011760Y010785D01*
X011760Y010728D02*
X011260Y010728D01*
X011260Y010670D02*
X011760Y010670D01*
X011760Y010613D02*
X011260Y010613D01*
X011260Y010555D02*
X011760Y010555D01*
X011760Y010498D02*
X011260Y010498D01*
X011260Y010440D02*
X011760Y010440D01*
X011760Y010382D02*
X011260Y010382D01*
X011260Y010325D02*
X011760Y010325D01*
X011760Y010267D02*
X011260Y010267D01*
X011260Y010210D02*
X011760Y010210D01*
X011760Y010152D02*
X011260Y010152D01*
X011260Y010095D02*
X011760Y010095D01*
X012016Y010180D02*
X012030Y010198D01*
X012016Y010180D02*
X012016Y009787D01*
X011681Y009452D01*
X011960Y009346D02*
X012109Y009346D01*
X012167Y009404D02*
X011979Y009404D01*
X011986Y009462D02*
X012525Y009462D01*
X012525Y009519D02*
X012249Y009519D01*
X012299Y009577D02*
X012353Y009577D01*
X012331Y009634D02*
X012299Y009634D01*
X012299Y009692D02*
X012331Y009692D01*
X012331Y009749D02*
X012299Y009749D01*
X012299Y009807D02*
X012331Y009807D01*
X012331Y009864D02*
X012299Y009864D01*
X012299Y009922D02*
X012331Y009922D01*
X012331Y009980D02*
X012299Y009980D01*
X012299Y010037D02*
X012331Y010037D01*
X012331Y010095D02*
X012299Y010095D01*
X012299Y010152D02*
X012331Y010152D01*
X012514Y009749D02*
X012545Y009749D01*
X012545Y009692D02*
X012514Y009692D01*
X012514Y009634D02*
X012545Y009634D01*
X012536Y009577D02*
X012514Y009577D01*
X012823Y009491D02*
X012843Y009472D01*
X012843Y009137D01*
X012872Y009127D01*
X012862Y009117D01*
X012843Y009098D01*
X012429Y009098D01*
X011848Y009116D02*
X011605Y009116D01*
X011605Y009115D02*
X011608Y009127D01*
X011848Y009127D01*
X011848Y009068D01*
X011610Y009068D01*
X011589Y009089D01*
X011591Y009090D01*
X011605Y009115D01*
X011327Y009294D02*
X011327Y010023D01*
X010842Y010037D02*
X010692Y010037D01*
X010670Y009980D02*
X010842Y009980D01*
X010842Y009922D02*
X010670Y009922D01*
X010670Y009864D02*
X010842Y009864D01*
X010842Y009807D02*
X010670Y009807D01*
X010670Y009749D02*
X010842Y009749D01*
X010842Y009692D02*
X010670Y009692D01*
X010670Y009634D02*
X010842Y009634D01*
X010842Y009577D02*
X010670Y009577D01*
X010707Y009519D02*
X010766Y009519D01*
X010766Y009462D02*
X010707Y009462D01*
X010707Y009404D02*
X010766Y009404D01*
X010766Y009346D02*
X010707Y009346D01*
X010343Y009609D02*
X010343Y010338D01*
X009909Y010144D02*
X009866Y010187D01*
X009870Y010161D01*
X009870Y010062D01*
X009870Y010102D02*
X009909Y010141D01*
X009909Y010144D01*
X009870Y010102D02*
X009870Y009905D01*
X009969Y009806D01*
X010126Y009806D01*
X010343Y009609D02*
X009240Y008507D01*
X009016Y008310D02*
X008654Y008310D01*
X008654Y008253D02*
X009076Y008253D01*
X009130Y008195D02*
X008654Y008195D01*
X008654Y008138D02*
X009130Y008138D01*
X009130Y008080D02*
X008654Y008080D01*
X008654Y008023D02*
X009130Y008023D01*
X009130Y007965D02*
X008654Y007965D01*
X008654Y007908D02*
X009130Y007908D01*
X009130Y007850D02*
X008654Y007850D01*
X008654Y007792D02*
X009130Y007792D01*
X009130Y007735D02*
X008654Y007735D01*
X008654Y007677D02*
X009130Y007677D01*
X009130Y007620D02*
X008654Y007620D01*
X008654Y007562D02*
X009130Y007562D01*
X009130Y007505D02*
X008654Y007505D01*
X008654Y007447D02*
X009130Y007447D01*
X009130Y007390D02*
X008654Y007390D01*
X008654Y007332D02*
X009130Y007332D01*
X009130Y007274D02*
X008654Y007274D01*
X008654Y007217D02*
X009130Y007217D01*
X009130Y007159D02*
X008654Y007159D01*
X008654Y007102D02*
X009130Y007102D01*
X009130Y007044D02*
X008654Y007044D01*
X008654Y006987D02*
X009130Y006987D01*
X009130Y006929D02*
X008654Y006929D01*
X008654Y006872D02*
X009130Y006872D01*
X009130Y006814D02*
X008654Y006814D01*
X008654Y006756D02*
X009130Y006756D01*
X009130Y006699D02*
X008654Y006699D01*
X007745Y005463D02*
X006125Y005463D01*
X006082Y005420D01*
X005973Y005375D01*
X006095Y005433D02*
X007745Y005433D01*
X005697Y006834D02*
X005697Y007306D01*
X005559Y007444D01*
X005323Y007444D01*
X005320Y007454D01*
X004119Y007505D02*
X003861Y007505D01*
X003869Y007562D02*
X004119Y007562D01*
X004119Y007620D02*
X003869Y007620D01*
X003837Y007447D02*
X004076Y007447D01*
X003981Y007390D02*
X003799Y007390D01*
X003770Y007332D02*
X003927Y007332D01*
X003571Y007582D02*
X003512Y007641D01*
X004598Y008541D02*
X008943Y008541D01*
X008956Y008598D02*
X004598Y008598D01*
X004598Y008656D02*
X008980Y008656D01*
X008976Y008368D02*
X008650Y008368D01*
X009457Y009019D02*
X009457Y009373D01*
X009486Y009387D01*
X009476Y009393D01*
X009476Y010023D01*
X009267Y009807D02*
X008953Y009807D01*
X008838Y009749D02*
X009267Y009749D01*
X009208Y009692D02*
X008581Y009692D01*
X008581Y009749D02*
X008698Y009749D01*
X008582Y009807D02*
X008581Y009807D01*
X008581Y009634D02*
X009152Y009634D01*
X009152Y009577D02*
X008581Y009577D01*
X008581Y009519D02*
X009152Y009519D01*
X009152Y009462D02*
X008581Y009462D01*
X008581Y009404D02*
X009152Y009404D01*
X009152Y009346D02*
X008572Y009346D01*
X008510Y009289D02*
X009152Y009289D01*
X008128Y009289D02*
X008069Y009289D01*
X008069Y009346D02*
X008128Y009346D01*
X008128Y009404D02*
X008069Y009404D01*
X008069Y009462D02*
X008128Y009462D01*
X008128Y009519D02*
X008069Y009519D01*
X008069Y009577D02*
X008128Y009577D01*
X008128Y009634D02*
X008069Y009634D01*
X008069Y009692D02*
X008128Y009692D01*
X008128Y009749D02*
X008069Y009749D01*
X008069Y009807D02*
X008128Y009807D01*
X008128Y009864D02*
X008069Y009864D01*
X008069Y009922D02*
X008128Y009922D01*
X008128Y009980D02*
X008069Y009980D01*
X008069Y010037D02*
X008128Y010037D01*
X008128Y010152D02*
X008491Y010152D01*
X008581Y010325D02*
X008656Y010325D01*
X008681Y010350D02*
X008681Y010350D01*
X008714Y010382D02*
X008581Y010382D01*
X008581Y010440D02*
X008776Y010440D01*
X008833Y010498D02*
X008581Y010498D01*
X008581Y010555D02*
X008943Y010555D01*
X008943Y010613D02*
X008581Y010613D01*
X008581Y010670D02*
X008943Y010670D01*
X008943Y010728D02*
X008581Y010728D01*
X008581Y010785D02*
X008943Y010785D01*
X008943Y010843D02*
X008581Y010843D01*
X008581Y010900D02*
X008943Y010900D01*
X008957Y010958D02*
X008559Y010958D01*
X008449Y011016D02*
X009014Y011016D01*
X009260Y010692D02*
X009260Y010672D01*
X009201Y010613D01*
X009201Y010281D01*
X009106Y010187D01*
X009113Y010180D01*
X009122Y010180D01*
X008807Y010180D01*
X008768Y010141D01*
X008768Y010043D01*
X009106Y010187D02*
X009122Y010200D01*
X009850Y010200D02*
X009866Y010187D01*
X009850Y010200D02*
X009850Y010613D01*
X009772Y010692D01*
X009526Y011016D02*
X009505Y011016D01*
X010261Y011879D02*
X008476Y011879D01*
X008494Y011936D02*
X010261Y011936D01*
X010279Y011994D02*
X008886Y011994D01*
X008944Y012052D02*
X010303Y012052D01*
X010350Y012109D02*
X008987Y012109D01*
X008987Y012167D02*
X010350Y012167D01*
X010350Y012224D02*
X008987Y012224D01*
X008987Y012282D02*
X010350Y012282D01*
X010350Y012339D02*
X008987Y012339D01*
X008987Y012397D02*
X010350Y012397D01*
X010350Y012454D02*
X008987Y012454D01*
X008987Y012512D02*
X010350Y012512D01*
X008256Y011302D02*
X008000Y011558D01*
X007980Y011578D01*
X007626Y011932D01*
X006926Y011706D02*
X006652Y011706D01*
X006710Y011764D02*
X006869Y011764D01*
X006811Y011821D02*
X006767Y011821D01*
X005530Y012282D02*
X005470Y012282D01*
X005470Y012339D02*
X005530Y012339D01*
X005530Y012397D02*
X005470Y012397D01*
X005470Y012454D02*
X005530Y012454D01*
X005530Y012512D02*
X005470Y012512D01*
X005470Y012570D02*
X005530Y012570D01*
X005530Y012627D02*
X005470Y012627D01*
X005470Y012685D02*
X005530Y012685D01*
X005530Y012742D02*
X005470Y012742D01*
X005470Y012800D02*
X005178Y012800D01*
X005293Y012109D02*
X005352Y012109D01*
X005352Y012052D02*
X005293Y012052D01*
X005293Y011994D02*
X005352Y011994D01*
X005352Y011936D02*
X005293Y011936D01*
X005204Y011476D02*
X003622Y011476D01*
X003622Y011418D02*
X005147Y011418D01*
X005103Y011361D02*
X003622Y011361D01*
X003622Y011303D02*
X004499Y011303D01*
X004441Y011246D02*
X003622Y011246D01*
X003622Y011188D02*
X004435Y011188D01*
X004410Y011131D02*
X003622Y011131D01*
X003622Y011073D02*
X004381Y011073D01*
X004363Y011016D02*
X003622Y011016D01*
X003622Y010958D02*
X004305Y010958D01*
X004248Y010900D02*
X003622Y010900D01*
X003637Y010843D02*
X004190Y010843D01*
X004146Y010785D02*
X003695Y010785D01*
X003752Y010728D02*
X004122Y010728D01*
X004119Y010670D02*
X003810Y010670D01*
X003867Y010613D02*
X004119Y010613D01*
X004119Y010555D02*
X003925Y010555D01*
X003982Y010498D02*
X004119Y010498D01*
X004119Y010440D02*
X004040Y010440D01*
X004095Y010382D02*
X004119Y010382D01*
X004119Y010325D02*
X004095Y010325D01*
X004095Y010267D02*
X004119Y010267D01*
X004119Y010210D02*
X004095Y010210D01*
X004095Y010152D02*
X004119Y010152D01*
X004119Y010095D02*
X004095Y010095D01*
X004095Y010037D02*
X004119Y010037D01*
X004119Y009980D02*
X004095Y009980D01*
X004095Y009922D02*
X004119Y009922D01*
X004119Y009864D02*
X004095Y009864D01*
X004095Y009807D02*
X004119Y009807D01*
X004119Y009749D02*
X004095Y009749D01*
X003492Y010043D02*
X003118Y010043D01*
X004598Y010210D02*
X005175Y010210D01*
X005175Y010267D02*
X004598Y010267D01*
X004762Y010325D02*
X004821Y010325D01*
X004821Y010382D02*
X004762Y010382D01*
X004762Y010440D02*
X004821Y010440D01*
X005077Y010440D02*
X005186Y010440D01*
X005175Y010382D02*
X005077Y010382D01*
X005063Y010325D02*
X005175Y010325D01*
X005628Y010095D02*
X005687Y010095D01*
X005687Y010037D02*
X005628Y010037D01*
X005628Y009980D02*
X005687Y009980D01*
X005687Y009922D02*
X005628Y009922D01*
X005628Y009864D02*
X005687Y009864D01*
X005687Y009807D02*
X005628Y009807D01*
X005160Y010670D02*
X005076Y010670D01*
X005061Y010728D02*
X005103Y010728D01*
X005084Y011303D02*
X005103Y011303D01*
X008069Y010958D02*
X008128Y010958D01*
X008128Y010900D02*
X008069Y010900D01*
X008069Y010843D02*
X008128Y010843D01*
X008128Y010785D02*
X008069Y010785D01*
X008069Y010728D02*
X008128Y010728D01*
X008128Y010670D02*
X008069Y010670D01*
X008069Y010613D02*
X008128Y010613D01*
X008128Y010555D02*
X008069Y010555D01*
X008069Y010498D02*
X008128Y010498D01*
X008128Y010440D02*
X008069Y010440D01*
X008069Y010382D02*
X008128Y010382D01*
X008128Y010325D02*
X008069Y010325D01*
X008069Y010267D02*
X008128Y010267D01*
X008128Y010210D02*
X008069Y010210D01*
X008256Y011243D02*
X008256Y011302D01*
X011878Y008586D02*
X011878Y008212D01*
X011858Y007936D02*
X011858Y007700D01*
X011957Y007602D01*
X011957Y007247D01*
X012587Y007247D02*
X012764Y007424D01*
X012823Y007424D01*
X012820Y007722D02*
X012764Y007722D01*
X012737Y007711D01*
X012737Y007769D01*
X012813Y007769D01*
X012813Y007985D01*
X012825Y008015D01*
X012825Y008025D01*
X012872Y008025D01*
X012872Y007895D01*
X012866Y007888D01*
X012820Y007779D01*
X012820Y007722D01*
X012820Y007735D02*
X012737Y007735D01*
X012813Y007792D02*
X012826Y007792D01*
X012813Y007850D02*
X012850Y007850D01*
X012872Y007908D02*
X012813Y007908D01*
X012813Y007965D02*
X012872Y007965D01*
X012872Y008023D02*
X012825Y008023D01*
X012813Y008253D02*
X012872Y008253D01*
X012872Y008310D02*
X012843Y008310D01*
X012843Y008368D02*
X012902Y008368D01*
X012902Y008426D02*
X012843Y008426D01*
X012843Y008483D02*
X012902Y008483D01*
X013325Y008556D02*
X013335Y008546D01*
X013354Y008527D01*
X013354Y008054D01*
X013335Y008035D01*
X013335Y007936D01*
X013118Y007720D01*
X013492Y007503D02*
X013531Y007582D01*
X013531Y007385D01*
X013531Y007188D01*
X013531Y007149D01*
X013492Y007188D01*
X013138Y007188D01*
X013000Y007050D01*
X013000Y006834D01*
X013475Y006814D02*
X013965Y006814D01*
X013908Y006756D02*
X013475Y006756D01*
X013475Y006699D02*
X013886Y006699D01*
X013886Y006641D02*
X013475Y006641D01*
X013475Y006584D02*
X013886Y006584D01*
X013886Y006526D02*
X013452Y006526D01*
X013404Y006469D02*
X013886Y006469D01*
X013886Y006794D02*
X013453Y006361D01*
X013000Y006361D01*
X013640Y006872D02*
X014672Y006872D01*
X014698Y006929D02*
X013733Y006929D01*
X013786Y006987D02*
X014756Y006987D01*
X015073Y007044D02*
X013810Y007044D01*
X013829Y007102D02*
X015073Y007102D01*
X015073Y007159D02*
X013829Y007159D01*
X013825Y007217D02*
X015073Y007217D01*
X015073Y007274D02*
X014237Y007274D01*
X014250Y007332D02*
X015073Y007332D01*
X015073Y007390D02*
X014250Y007390D01*
X014250Y007447D02*
X015073Y007447D01*
X015073Y007505D02*
X014033Y007505D01*
X014033Y007533D02*
X014250Y007533D01*
X014250Y007695D01*
X014243Y007722D01*
X014228Y007747D01*
X014208Y007767D01*
X014184Y007781D01*
X014156Y007789D01*
X014033Y007789D01*
X014033Y007533D01*
X014033Y007562D02*
X013974Y007562D01*
X013974Y007620D02*
X014033Y007620D01*
X014033Y007677D02*
X013974Y007677D01*
X013974Y007735D02*
X014033Y007735D01*
X014235Y007735D02*
X015073Y007735D01*
X015073Y007792D02*
X013772Y007792D01*
X013714Y007850D02*
X015073Y007850D01*
X015073Y007908D02*
X013672Y007908D01*
X013672Y007965D02*
X015073Y007965D01*
X015073Y008023D02*
X013672Y008023D01*
X013672Y008080D02*
X015073Y008080D01*
X015073Y008138D02*
X013672Y008138D01*
X013672Y008195D02*
X015073Y008195D01*
X015073Y008253D02*
X013672Y008253D01*
X013672Y008310D02*
X015073Y008310D01*
X015073Y008368D02*
X013672Y008368D01*
X013672Y008426D02*
X015073Y008426D01*
X015073Y008483D02*
X013672Y008483D01*
X013672Y008541D02*
X015073Y008541D01*
X015073Y008598D02*
X013672Y008598D01*
X013672Y008656D02*
X015073Y008656D01*
X015073Y008713D02*
X013672Y008713D01*
X013672Y008771D02*
X015073Y008771D01*
X015073Y008828D02*
X013661Y008828D01*
X013603Y008886D02*
X015073Y008886D01*
X015073Y008944D02*
X013600Y008944D01*
X013600Y009001D02*
X015073Y009001D01*
X015073Y009059D02*
X013600Y009059D01*
X013600Y009157D02*
X013600Y009328D01*
X013593Y009356D01*
X013579Y009381D01*
X013559Y009401D01*
X013534Y009415D01*
X013506Y009422D01*
X013354Y009422D01*
X013354Y009157D01*
X013600Y009157D01*
X013600Y009174D02*
X015073Y009174D01*
X015073Y009231D02*
X014401Y009231D01*
X014459Y009289D02*
X015073Y009289D01*
X015073Y009346D02*
X014491Y009346D01*
X014515Y009404D02*
X015073Y009404D01*
X015073Y009462D02*
X014518Y009462D01*
X014518Y009519D02*
X015073Y009519D01*
X015073Y009577D02*
X014499Y009577D01*
X014475Y009634D02*
X015073Y009634D01*
X015073Y009692D02*
X014430Y009692D01*
X014430Y009749D02*
X015073Y009749D01*
X015073Y009807D02*
X014430Y009807D01*
X014430Y009864D02*
X015073Y009864D01*
X015073Y009922D02*
X014430Y009922D01*
X014430Y009980D02*
X015073Y009980D01*
X015073Y010037D02*
X014430Y010037D01*
X014430Y010095D02*
X015073Y010095D01*
X015073Y010152D02*
X014430Y010152D01*
X014430Y010210D02*
X015073Y010210D01*
X015073Y010267D02*
X014430Y010267D01*
X014430Y010325D02*
X015073Y010325D01*
X015073Y010382D02*
X014430Y010382D01*
X014430Y010440D02*
X015073Y010440D01*
X015073Y010498D02*
X014430Y010498D01*
X014430Y010555D02*
X015073Y010555D01*
X015073Y010613D02*
X014430Y010613D01*
X014430Y010670D02*
X015073Y010670D01*
X015073Y010728D02*
X014430Y010728D01*
X014459Y010785D02*
X015073Y010785D01*
X015073Y010843D02*
X014491Y010843D01*
X014515Y010900D02*
X015073Y010900D01*
X015073Y010958D02*
X014518Y010958D01*
X014518Y011016D02*
X015073Y011016D01*
X015073Y011073D02*
X014499Y011073D01*
X014475Y011131D02*
X015073Y011131D01*
X015073Y011188D02*
X014421Y011188D01*
X014327Y011246D02*
X015073Y011246D01*
X015073Y011303D02*
X014299Y011303D01*
X014299Y011361D02*
X015073Y011361D01*
X015073Y011418D02*
X014299Y011418D01*
X014299Y011476D02*
X015073Y011476D01*
X015073Y011534D02*
X014299Y011534D01*
X014299Y011591D02*
X015073Y011591D01*
X015073Y011649D02*
X014299Y011649D01*
X014299Y011706D02*
X015073Y011706D01*
X015073Y011764D02*
X014299Y011764D01*
X014299Y011821D02*
X015073Y011821D01*
X015073Y011879D02*
X014299Y011879D01*
X014299Y011936D02*
X015073Y011936D01*
X015073Y011994D02*
X014299Y011994D01*
X014299Y012052D02*
X015073Y012052D01*
X015073Y012109D02*
X014299Y012109D01*
X014299Y012167D02*
X015073Y012167D01*
X015073Y012224D02*
X014299Y012224D01*
X014299Y012282D02*
X015073Y012282D01*
X015073Y012339D02*
X014267Y012339D01*
X014220Y010968D02*
X014220Y009472D01*
X013950Y009346D02*
X013596Y009346D01*
X013600Y009289D02*
X013982Y009289D01*
X014040Y009231D02*
X013600Y009231D01*
X013553Y009404D02*
X013926Y009404D01*
X013923Y009462D02*
X013146Y009462D01*
X013120Y009519D02*
X013310Y009519D01*
X013260Y009577D02*
X013206Y009577D01*
X013228Y009634D02*
X013260Y009634D01*
X013295Y009404D02*
X013354Y009404D01*
X013354Y009346D02*
X013295Y009346D01*
X013295Y009289D02*
X013354Y009289D01*
X013354Y009231D02*
X013295Y009231D01*
X013295Y009174D02*
X013354Y009174D01*
X013354Y009116D02*
X015073Y009116D01*
X013923Y009519D02*
X013749Y009519D01*
X013799Y009577D02*
X013853Y009577D01*
X013831Y009634D02*
X013799Y009634D01*
X013799Y009692D02*
X013831Y009692D01*
X013831Y009749D02*
X013799Y009749D01*
X013799Y009807D02*
X013831Y009807D01*
X013831Y009864D02*
X013799Y009864D01*
X013799Y009922D02*
X013831Y009922D01*
X013831Y009980D02*
X013799Y009980D01*
X013799Y010037D02*
X013831Y010037D01*
X013831Y010095D02*
X013799Y010095D01*
X013799Y010152D02*
X013831Y010152D01*
X013799Y010210D02*
X014011Y010210D01*
X014024Y010200D02*
X014030Y010198D01*
X014024Y010200D02*
X013846Y010377D01*
X013846Y010850D01*
X013878Y010843D02*
X013784Y010843D01*
X013799Y010785D02*
X013836Y010785D01*
X013831Y010728D02*
X013799Y010728D01*
X013799Y010670D02*
X013831Y010670D01*
X013831Y010613D02*
X013799Y010613D01*
X013799Y010555D02*
X013831Y010555D01*
X013831Y010498D02*
X013799Y010498D01*
X013799Y010440D02*
X013831Y010440D01*
X013831Y010382D02*
X013799Y010382D01*
X013799Y010325D02*
X013831Y010325D01*
X013831Y010267D02*
X013799Y010267D01*
X013726Y010900D02*
X013926Y010900D01*
X013851Y010958D02*
X013708Y010958D01*
X013766Y011016D02*
X013793Y011016D01*
X013293Y011016D02*
X013266Y011016D01*
X013295Y009059D02*
X013354Y009059D01*
X013354Y009001D02*
X013295Y009001D01*
X013295Y008944D02*
X013354Y008944D01*
X014250Y007677D02*
X015073Y007677D01*
X015073Y007620D02*
X014250Y007620D01*
X014250Y007562D02*
X015073Y007562D01*
X014477Y006814D02*
X014303Y006814D01*
X014385Y006756D02*
X014395Y006756D01*
X014385Y006699D02*
X014395Y006699D01*
X014385Y006641D02*
X014395Y006641D01*
X014385Y006584D02*
X014395Y006584D01*
X014385Y006526D02*
X014395Y006526D01*
X014385Y006469D02*
X014395Y006469D01*
X013886Y006794D02*
X013886Y007464D01*
X014004Y007503D01*
X013974Y007447D02*
X014033Y007447D01*
X014033Y007390D02*
X013974Y007390D01*
X013974Y007332D02*
X014033Y007332D01*
X014033Y007274D02*
X013974Y007274D01*
X013531Y007188D02*
X013531Y007169D01*
X013531Y007149D01*
X013531Y007169D01*
X013531Y007188D01*
X013531Y007169D02*
X013531Y007149D01*
X013531Y007169D01*
X013531Y007149D02*
X013531Y007129D01*
X013531Y007149D01*
X014651Y005778D02*
X015073Y005778D01*
X015073Y005720D02*
X014823Y005720D01*
X014823Y005663D02*
X015073Y005663D01*
X015073Y005605D02*
X014823Y005605D01*
X014819Y005548D02*
X015073Y005548D01*
X015073Y005490D02*
X014780Y005490D01*
X014651Y005490D02*
X014641Y005490D01*
X014641Y005548D02*
X014651Y005548D01*
X014641Y005605D02*
X014651Y005605D01*
X014641Y005663D02*
X014651Y005663D01*
X014641Y005720D02*
X014651Y005720D01*
X014823Y005836D02*
X015073Y005836D01*
X015073Y005893D02*
X014823Y005893D01*
X014590Y005433D02*
X015073Y005433D01*
X015073Y005375D02*
X014590Y005375D01*
X014578Y005318D02*
X015073Y005318D01*
X015073Y005260D02*
X014578Y005260D01*
X014578Y005202D02*
X015073Y005202D01*
X015073Y005145D02*
X014578Y005145D01*
X014646Y005087D02*
X015073Y005087D01*
X015073Y005030D02*
X014704Y005030D01*
X014725Y004972D02*
X015073Y004972D01*
X015073Y004915D02*
X014725Y004915D01*
X014725Y004857D02*
X015073Y004857D01*
X015073Y004800D02*
X014725Y004800D01*
X014725Y004742D02*
X015073Y004742D01*
X015073Y004684D02*
X014725Y004684D01*
X014725Y004627D02*
X015073Y004627D01*
X015073Y004569D02*
X014710Y004569D01*
X014652Y004512D02*
X015073Y004512D01*
X015073Y004454D02*
X014649Y004454D01*
X014654Y004397D02*
X015073Y004397D01*
X015073Y004339D02*
X014654Y004339D01*
X014654Y004255D02*
X014398Y004255D01*
X014398Y004039D01*
X014560Y004039D01*
X014587Y004046D01*
X014612Y004060D01*
X014632Y004080D01*
X014646Y004105D01*
X014654Y004133D01*
X014654Y004255D01*
X014654Y004224D02*
X015073Y004224D01*
X015073Y004166D02*
X014654Y004166D01*
X014647Y004109D02*
X015073Y004109D01*
X015073Y004051D02*
X014596Y004051D01*
X014398Y004051D02*
X014339Y004051D01*
X014339Y004039D02*
X014339Y004255D01*
X014083Y004255D01*
X013902Y004255D01*
X013902Y004039D01*
X014063Y004039D01*
X014091Y004046D01*
X014116Y004060D01*
X014120Y004065D01*
X014124Y004060D01*
X014149Y004046D01*
X014177Y004039D01*
X014339Y004039D01*
X014339Y004109D02*
X014398Y004109D01*
X014398Y004166D02*
X014339Y004166D01*
X014339Y004224D02*
X014398Y004224D01*
X014398Y004282D02*
X015073Y004282D01*
X015073Y003994D02*
X013465Y003994D01*
X013465Y004051D02*
X013644Y004051D01*
X013653Y004046D02*
X013681Y004039D01*
X013843Y004039D01*
X013843Y004255D01*
X013587Y004255D01*
X013587Y004133D01*
X013594Y004105D01*
X013608Y004080D01*
X013628Y004060D01*
X013653Y004046D01*
X013593Y004109D02*
X013465Y004109D01*
X013465Y004166D02*
X013587Y004166D01*
X013587Y004224D02*
X013465Y004224D01*
X013465Y004282D02*
X013843Y004282D01*
X013843Y004224D02*
X013902Y004224D01*
X013902Y004166D02*
X013843Y004166D01*
X013843Y004109D02*
X013902Y004109D01*
X013902Y004051D02*
X013843Y004051D01*
X014100Y004051D02*
X014140Y004051D01*
X014339Y004282D02*
X013902Y004282D01*
X013587Y004339D02*
X013465Y004339D01*
X013465Y004397D02*
X013587Y004397D01*
X013582Y004454D02*
X013591Y004454D01*
X013465Y003936D02*
X015073Y003936D01*
X015073Y003879D02*
X013465Y003879D01*
X013465Y003821D02*
X015073Y003821D01*
X015073Y003764D02*
X013465Y003764D01*
X013465Y003706D02*
X015073Y003706D01*
X013846Y002936D02*
X013728Y003054D01*
X013020Y003054D01*
X012902Y003172D01*
X012902Y003527D01*
X012823Y003606D01*
X012114Y003606D01*
X012193Y003802D02*
X012587Y004196D01*
X012587Y004216D01*
X012587Y004688D01*
X012429Y004688D02*
X012429Y004255D01*
X012429Y004235D01*
X012154Y003960D01*
X011209Y003960D01*
X011051Y003802D01*
X011051Y003645D01*
X011031Y003665D01*
X011031Y004216D02*
X011169Y004354D01*
X011169Y004688D01*
X011484Y004688D02*
X011484Y004354D01*
X011346Y004216D01*
X011760Y003802D02*
X012193Y003802D01*
X011760Y003802D02*
X011681Y003724D01*
X011681Y003310D01*
X011681Y001755D01*
X011209Y002169D02*
X011212Y002183D01*
X011209Y002169D02*
X010972Y001932D01*
X010500Y001932D01*
X010500Y002444D02*
X010500Y002759D01*
X010638Y003054D02*
X011209Y003054D01*
X011212Y003050D01*
X012307Y003040D02*
X012311Y003035D01*
X012547Y002798D01*
X013413Y002798D01*
X013413Y002405D02*
X013748Y002405D01*
X013846Y002503D01*
X013846Y002936D01*
X012272Y004354D02*
X012134Y004216D01*
X012094Y004216D01*
X012272Y004354D02*
X012272Y004688D01*
X010779Y004688D02*
X010779Y004688D01*
X001297Y009404D02*
X001238Y009404D01*
X001238Y009462D02*
X001297Y009462D01*
X001297Y009519D02*
X001238Y009519D01*
X001238Y009577D02*
X001297Y009577D01*
X001297Y009634D02*
X001238Y009634D01*
X001238Y009692D02*
X001297Y009692D01*
X001297Y009749D02*
X001238Y009749D01*
X000703Y009749D02*
X000680Y009749D01*
D40*
X013000Y006834D02*
X013000Y006676D01*
X013000Y006519D02*
X013000Y006361D01*
X014134Y006463D02*
X014136Y006463D01*
X014138Y006462D01*
X014139Y006461D01*
X014140Y006459D01*
D41*
X013740Y006509D03*
X013740Y006809D03*
X014040Y007009D03*
X014340Y007009D03*
X014640Y007009D03*
X013531Y007149D03*
X012823Y007424D03*
X013118Y007720D03*
X012528Y008074D03*
X011858Y007936D03*
X011681Y008212D03*
X010874Y007720D03*
X010618Y007503D03*
X010067Y008271D03*
X009240Y008507D03*
X009457Y009019D03*
X010126Y009806D03*
X010756Y010023D03*
X011287Y010023D03*
X011681Y009452D03*
X012823Y009491D03*
X014220Y009472D03*
X014220Y010968D03*
X012567Y012621D03*
X011307Y012700D03*
X010559Y011893D03*
X011110Y011342D03*
X011760Y011460D03*
X010677Y010672D03*
X009476Y010023D03*
X008768Y010043D03*
X008256Y011243D03*
X007094Y012129D03*
X008197Y012503D03*
X007606Y013035D03*
X009673Y012070D03*
X009909Y012897D03*
X004673Y008980D03*
X003870Y009550D03*
X003492Y010043D03*
X001720Y010121D03*
X001366Y010456D03*
X001366Y011676D03*
X004299Y011952D03*
X004850Y008054D03*
X004850Y007759D03*
X004850Y007464D03*
X004181Y007169D03*
X003472Y007287D03*
X003571Y007582D03*
X004555Y005909D03*
X004850Y005909D03*
X004122Y005830D03*
X005913Y005672D03*
X006720Y004826D03*
X008630Y004255D03*
X009594Y003881D03*
X009890Y003665D03*
X010224Y003468D03*
X010638Y003054D03*
X010500Y002759D03*
X011031Y003665D03*
X011031Y004216D03*
X011346Y004216D03*
X012094Y004216D03*
X012114Y003606D03*
X013512Y004747D03*
X013571Y005495D03*
X014640Y005309D03*
X014940Y005309D03*
X014940Y005609D03*
X014240Y003409D03*
X012055Y005456D03*
X011701Y005456D03*
X011346Y005456D03*
X011346Y005928D03*
X011701Y005928D03*
X012055Y005928D03*
X012055Y006401D03*
X011701Y006401D03*
X011346Y006401D03*
X009969Y005554D03*
X009909Y006106D03*
X009909Y006401D03*
X008689Y006381D03*
X009673Y004905D03*
X009988Y004688D03*
X009476Y003291D03*
X009102Y002031D03*
X004929Y001932D03*
X004122Y002424D03*
X002921Y003232D03*
X003709Y003645D03*
X003138Y004196D03*
X001051Y004708D03*
X000933Y001952D03*
X007114Y007976D03*
D42*
X013000Y005889D02*
X013690Y005889D01*
X013970Y005609D01*
X013970Y005419D01*
X014030Y005359D01*
X014320Y005359D01*
X014380Y005419D01*
X014368Y005407D01*
X014368Y004796D01*
X014380Y005419D02*
X014380Y005764D01*
X014390Y005774D01*
D43*
X014134Y005774D02*
X014132Y005804D01*
X014127Y005835D01*
X014119Y005864D01*
X014107Y005892D01*
X014092Y005919D01*
X014075Y005944D01*
X014054Y005966D01*
X014032Y005987D01*
X014007Y006004D01*
X013980Y006019D01*
X013952Y006031D01*
X013923Y006039D01*
X013892Y006044D01*
X013862Y006046D01*
X013000Y006046D01*
X013000Y006204D02*
X013885Y006204D01*
X013916Y006206D01*
X013946Y006211D01*
X013975Y006221D01*
X014004Y006233D01*
X014030Y006249D01*
X014054Y006268D01*
X014076Y006290D01*
X014095Y006314D01*
X014111Y006340D01*
X014123Y006369D01*
X014133Y006398D01*
X014138Y006428D01*
X014140Y006459D01*
D44*
X014646Y006463D02*
X015086Y006463D01*
X015090Y006459D01*
X015088Y006461D01*
X015088Y006464D01*
X015090Y006459D02*
X015110Y006459D01*
X015110Y006429D01*
X015090Y006409D01*
X015080Y006409D01*
X015120Y006449D02*
X015110Y006459D01*
X015120Y006449D01*
X005638Y011027D02*
X004791Y011027D01*
X004673Y010987D02*
X004358Y010672D01*
X004358Y009157D01*
X004122Y008920D01*
X003335Y008920D01*
X003049Y008635D01*
X003049Y007897D01*
X004181Y007169D02*
X004358Y007169D01*
X004358Y007287D01*
X004358Y009157D01*
X004358Y007169D02*
X004555Y006972D01*
X004516Y006942D02*
X005320Y006942D01*
X004122Y005830D02*
X004122Y005436D01*
D45*
X004673Y010987D02*
X004791Y011027D01*
X005638Y011027D02*
X005657Y011046D01*
X005658Y011051D01*
D46*
X004555Y006972D02*
X004555Y006952D01*
X004516Y006952D01*
X004516Y006942D01*
M02*
